M48
; DRILL file {KiCad 7.0.9} date Thu Feb 29 12:23:14 2024
; FORMAT={-:-/ absolute / inch / decimal}
; #@! TF.CreationDate,2024-02-29T12:23:14+05:30
; #@! TF.GenerationSoftware,Kicad,Pcbnew,7.0.9
; #@! TF.FileFunction,Plated,1,2,PTH
FMAT,2
INCH
; #@! TA.AperFunction,Plated,PTH,ComponentDrill
T1C0.0079
; #@! TA.AperFunction,Plated,PTH,ViaDrill
T2C0.0118
; #@! TA.AperFunction,Plated,PTH,ViaDrill
T3C0.0157
; #@! TA.AperFunction,Plated,PTH,ComponentDrill
T4C0.0394
; #@! TA.AperFunction,Plated,PTH,ComponentDrill
T5C0.0472
%
G90
G05
T1
X2.9254Y-3.9324
X2.9254Y-3.9776
X2.9624Y-3.9324
X2.9624Y-3.9776
X2.9994Y-3.9324
X2.9994Y-3.9776
X3.8183Y-3.741
X3.8183Y-3.7804
X3.8576Y-3.741
X3.8576Y-3.7804
X3.897Y-3.741
X3.897Y-3.7804
X3.9364Y-3.741
X3.9364Y-3.7804
X4.5954Y-3.7179
X4.5954Y-3.7549
X4.5954Y-3.7919
X4.6406Y-3.7179
X4.6406Y-3.7549
X4.6406Y-3.7919
T2
X2.5279Y-1.6445
X2.5279Y-1.6799
X2.5279Y-1.7154
X2.5279Y-1.7508
X2.5279Y-1.7862
X2.5279Y-1.8217
X2.5279Y-1.8571
X2.5279Y-1.8925
X2.5279Y-1.928
X2.5279Y-1.9634
X2.5279Y-1.9988
X2.5279Y-2.0343
X2.5279Y-2.1405
X2.5279Y-2.176
X2.5279Y-3.5579
X2.5279Y-3.5933
X2.5279Y-3.6287
X2.5279Y-3.6642
X2.5279Y-3.6996
X2.5279Y-3.735
X2.5633Y-1.6445
X2.5633Y-1.6799
X2.5633Y-1.7154
X2.5633Y-1.7508
X2.5633Y-1.7862
X2.5633Y-1.8217
X2.5633Y-1.8571
X2.5633Y-1.8925
X2.5633Y-1.928
X2.5633Y-1.9634
X2.5633Y-1.9988
X2.5633Y-2.0343
X2.5633Y-2.1405
X2.5633Y-2.3177
X2.5633Y-2.3531
X2.5633Y-2.3886
X2.5633Y-2.424
X2.5633Y-2.4594
X2.5633Y-2.4949
X2.5633Y-2.5303
X2.5633Y-2.5657
X2.5633Y-2.6012
X2.5633Y-2.6366
X2.5633Y-2.672
X2.5633Y-2.7075
X2.5633Y-2.7429
X2.5633Y-2.7783
X2.5633Y-2.8138
X2.5633Y-2.8492
X2.5633Y-2.8846
X2.5633Y-2.9201
X2.5633Y-2.9555
X2.5633Y-2.9909
X2.5633Y-3.0264
X2.5633Y-3.0618
X2.5633Y-3.0972
X2.5633Y-3.1327
X2.5633Y-3.1681
X2.5633Y-3.2035
X2.5633Y-3.239
X2.5633Y-3.2744
X2.5633Y-3.3098
X2.5633Y-3.3453
X2.5633Y-3.3807
X2.5633Y-3.4161
X2.5633Y-3.5933
X2.5633Y-3.6287
X2.5633Y-3.6642
X2.5633Y-3.6996
X2.5988Y-1.6445
X2.5988Y-1.6799
X2.5988Y-1.7154
X2.5988Y-1.7508
X2.5988Y-1.7862
X2.5988Y-1.8217
X2.5988Y-1.8571
X2.5988Y-1.8925
X2.5988Y-1.928
X2.5988Y-1.9634
X2.5988Y-1.9988
X2.5988Y-2.0343
X2.5988Y-2.2823
X2.5988Y-2.3177
X2.5988Y-2.3531
X2.5988Y-2.3886
X2.5988Y-2.424
X2.5988Y-2.6012
X2.5988Y-2.6366
X2.5988Y-2.672
X2.5988Y-2.8138
X2.5988Y-2.8492
X2.5988Y-2.8846
X2.5988Y-2.9201
X2.5988Y-2.9555
X2.5988Y-2.9909
X2.5988Y-3.0264
X2.5988Y-3.0618
X2.5988Y-3.0972
X2.5988Y-3.1327
X2.5988Y-3.1681
X2.5988Y-3.2035
X2.5988Y-3.239
X2.5988Y-3.2744
X2.5988Y-3.3098
X2.5988Y-3.3453
X2.5988Y-3.3807
X2.5988Y-3.4161
X2.5988Y-3.4516
X2.6342Y-1.6445
X2.6342Y-1.6799
X2.6342Y-1.7154
X2.6342Y-1.7508
X2.6342Y-1.7862
X2.6342Y-1.8217
X2.6342Y-1.8571
X2.6342Y-1.8925
X2.6342Y-1.928
X2.6342Y-1.9634
X2.6342Y-1.9988
X2.6342Y-2.0343
X2.6342Y-2.2468
X2.6342Y-2.2823
X2.6342Y-2.3177
X2.6342Y-2.3531
X2.6342Y-2.3886
X2.6342Y-2.424
X2.6342Y-2.6012
X2.6342Y-2.6366
X2.6342Y-2.672
X2.6342Y-2.8138
X2.6342Y-2.8492
X2.6342Y-2.8846
X2.6342Y-2.9201
X2.6342Y-2.9555
X2.6342Y-2.9909
X2.6342Y-3.0264
X2.6342Y-3.0618
X2.6342Y-3.0972
X2.6342Y-3.1327
X2.6342Y-3.1681
X2.6342Y-3.2035
X2.6342Y-3.239
X2.6342Y-3.2744
X2.6342Y-3.3098
X2.6342Y-3.3453
X2.6342Y-3.3807
X2.6342Y-3.4161
X2.6342Y-3.4516
X2.6342Y-3.487
X2.6696Y-1.6445
X2.6696Y-1.6799
X2.6696Y-1.7154
X2.6696Y-1.7508
X2.6696Y-1.7862
X2.6696Y-1.8217
X2.6696Y-1.8571
X2.6696Y-1.8925
X2.6696Y-1.928
X2.6696Y-1.9634
X2.6696Y-1.9988
X2.6696Y-2.0343
X2.6696Y-2.2114
X2.6696Y-2.2468
X2.6696Y-2.2823
X2.6696Y-2.3177
X2.6696Y-2.3531
X2.6696Y-2.3886
X2.6696Y-2.424
X2.6696Y-2.6366
X2.6696Y-2.672
X2.6696Y-2.8138
X2.6696Y-2.8492
X2.6696Y-2.8846
X2.6696Y-2.9201
X2.6696Y-2.9555
X2.6696Y-2.9909
X2.6696Y-3.0264
X2.6696Y-3.0618
X2.6696Y-3.0972
X2.6696Y-3.1327
X2.6696Y-3.1681
X2.6696Y-3.2035
X2.6696Y-3.239
X2.6696Y-3.2744
X2.6696Y-3.3098
X2.6696Y-3.3453
X2.6696Y-3.3807
X2.6696Y-3.4161
X2.6696Y-3.4516
X2.7051Y-1.6445
X2.7051Y-1.6799
X2.7051Y-1.7154
X2.7051Y-1.7508
X2.7051Y-1.7862
X2.7051Y-1.8217
X2.7051Y-1.8571
X2.7051Y-1.8925
X2.7051Y-1.928
X2.7051Y-1.9634
X2.7051Y-1.9988
X2.7051Y-2.176
X2.7051Y-2.2114
X2.7051Y-2.2468
X2.7051Y-2.2823
X2.7051Y-2.3177
X2.7051Y-2.3531
X2.7051Y-2.3886
X2.7051Y-2.424
X2.7051Y-2.4594
X2.7051Y-2.4949
X2.7051Y-2.672
X2.7051Y-2.9555
X2.7051Y-2.9909
X2.7051Y-3.0264
X2.7051Y-3.0618
X2.7051Y-3.0972
X2.7051Y-3.1327
X2.7051Y-3.1681
X2.7051Y-3.2035
X2.7051Y-3.239
X2.7051Y-3.2744
X2.7051Y-3.3098
X2.7051Y-3.3453
X2.7051Y-3.3807
X2.7051Y-3.4161
X2.7051Y-3.4516
X2.7405Y-1.6445
X2.7405Y-1.6799
X2.7405Y-1.7154
X2.7405Y-1.7508
X2.7405Y-1.7862
X2.7405Y-1.8217
X2.7405Y-1.8571
X2.7405Y-1.8925
X2.7405Y-1.928
X2.7405Y-1.9634
X2.7405Y-1.9988
X2.7405Y-2.1405
X2.7405Y-2.176
X2.7405Y-2.2114
X2.7405Y-2.2468
X2.7405Y-2.2823
X2.7405Y-2.3177
X2.7405Y-2.3531
X2.7405Y-2.3886
X2.7405Y-2.424
X2.7405Y-2.4594
X2.7405Y-2.4949
X2.7405Y-2.5303
X2.7405Y-2.672
X2.7405Y-2.9555
X2.7405Y-2.9909
X2.7405Y-3.0264
X2.7405Y-3.0618
X2.7405Y-3.0972
X2.7405Y-3.1327
X2.7405Y-3.1681
X2.7405Y-3.2035
X2.7405Y-3.239
X2.7405Y-3.2744
X2.7405Y-3.3098
X2.7405Y-3.3453
X2.7405Y-3.3807
X2.7405Y-3.4161
X2.7405Y-3.4516
X2.7405Y-3.5933
X2.7405Y-3.6287
X2.7405Y-3.6642
X2.7405Y-3.6996
X2.7759Y-1.6445
X2.7759Y-1.6799
X2.7759Y-1.7154
X2.7759Y-1.7508
X2.7759Y-1.7862
X2.7759Y-1.8217
X2.7759Y-1.8571
X2.7759Y-1.8925
X2.7759Y-1.928
X2.7759Y-1.9634
X2.7759Y-1.9988
X2.7759Y-2.1405
X2.7759Y-2.176
X2.7759Y-2.2114
X2.7759Y-2.2468
X2.7759Y-2.2823
X2.7759Y-2.3177
X2.7759Y-2.3531
X2.7759Y-2.3886
X2.7759Y-2.424
X2.7759Y-2.4594
X2.7759Y-2.4949
X2.7759Y-2.5303
X2.7759Y-2.5657
X2.7759Y-3.1681
X2.7759Y-3.2035
X2.7759Y-3.239
X2.7759Y-3.2744
X2.7759Y-3.3098
X2.7759Y-3.3453
X2.7759Y-3.3807
X2.7759Y-3.4161
X2.7759Y-3.4516
X2.7759Y-3.5579
X2.7759Y-3.5933
X2.7759Y-3.6287
X2.7759Y-3.6642
X2.7759Y-3.6996
X2.8114Y-1.6445
X2.8114Y-1.6799
X2.8114Y-1.7154
X2.8114Y-1.7508
X2.8114Y-1.7862
X2.8114Y-1.8217
X2.8114Y-1.8571
X2.8114Y-1.8925
X2.8114Y-1.928
X2.8114Y-1.9634
X2.8114Y-1.9988
X2.8114Y-2.1405
X2.8114Y-2.176
X2.8114Y-2.2114
X2.8114Y-2.2468
X2.8114Y-2.2823
X2.8114Y-2.3177
X2.8114Y-2.3531
X2.8114Y-2.9555
X2.8114Y-2.9909
X2.8114Y-3.0264
X2.8114Y-3.0618
X2.8114Y-3.0972
X2.8114Y-3.1681
X2.8114Y-3.2035
X2.8114Y-3.239
X2.8114Y-3.2744
X2.8114Y-3.3098
X2.8114Y-3.3453
X2.8114Y-3.3807
X2.8114Y-3.4161
X2.8114Y-3.4516
X2.8114Y-3.5579
X2.8114Y-3.5933
X2.8114Y-3.6287
X2.8114Y-3.6642
X2.8114Y-3.6996
X2.8468Y-1.6445
X2.8468Y-1.6799
X2.8468Y-1.7154
X2.8468Y-1.7508
X2.8468Y-1.7862
X2.8468Y-1.8217
X2.8468Y-1.8571
X2.8468Y-1.8925
X2.8468Y-1.928
X2.8468Y-1.9634
X2.8468Y-1.9988
X2.8468Y-2.1405
X2.8468Y-2.9555
X2.8468Y-2.9909
X2.8468Y-3.0264
X2.8468Y-3.0618
X2.8468Y-3.0972
X2.8468Y-3.1681
X2.8468Y-3.2035
X2.8468Y-3.239
X2.8468Y-3.2744
X2.8468Y-3.3098
X2.8468Y-3.3453
X2.8468Y-3.3807
X2.8468Y-3.4161
X2.8468Y-3.4516
X2.8468Y-3.5579
X2.8468Y-3.5933
X2.8468Y-3.6287
X2.8468Y-3.6642
X2.8468Y-3.6996
X2.8822Y-1.6445
X2.8822Y-1.6799
X2.8822Y-1.7154
X2.8822Y-1.7508
X2.8822Y-1.7862
X2.8822Y-1.8217
X2.8822Y-1.8571
X2.8822Y-1.8925
X2.8822Y-1.928
X2.8822Y-1.9634
X2.8822Y-1.9988
X2.8822Y-2.1405
X2.8822Y-2.9555
X2.8822Y-2.9909
X2.8822Y-3.0264
X2.8822Y-3.0618
X2.8822Y-3.0972
X2.8822Y-3.1681
X2.8822Y-3.2035
X2.8822Y-3.239
X2.8822Y-3.2744
X2.8822Y-3.3098
X2.8822Y-3.3453
X2.8822Y-3.3807
X2.8822Y-3.4161
X2.8822Y-3.4516
X2.8822Y-3.6996
X2.9177Y-1.6445
X2.9177Y-1.6799
X2.9177Y-1.7154
X2.9177Y-1.7508
X2.9177Y-1.7862
X2.9177Y-1.8217
X2.9177Y-1.8571
X2.9177Y-1.8925
X2.9177Y-1.928
X2.9177Y-1.9634
X2.9177Y-1.9988
X2.9177Y-2.1405
X2.9177Y-2.9555
X2.9177Y-2.9909
X2.9177Y-3.0264
X2.9177Y-3.0618
X2.9177Y-3.0972
X2.9177Y-3.1681
X2.9177Y-3.2035
X2.9177Y-3.239
X2.9177Y-3.2744
X2.9177Y-3.3098
X2.9177Y-3.3453
X2.9177Y-3.3807
X2.9177Y-3.4161
X2.9177Y-3.4516
X2.9531Y-1.6445
X2.9531Y-1.6799
X2.9531Y-1.7154
X2.9531Y-1.7508
X2.9531Y-1.7862
X2.9531Y-1.8217
X2.9531Y-1.8571
X2.9531Y-1.8925
X2.9531Y-1.928
X2.9531Y-1.9634
X2.9531Y-1.9988
X2.9531Y-2.1405
X2.9531Y-2.8138
X2.9531Y-2.8492
X2.9531Y-2.8846
X2.9531Y-2.9201
X2.9531Y-2.9555
X2.9531Y-2.9909
X2.9531Y-3.0264
X2.9531Y-3.0618
X2.9531Y-3.0972
X2.9531Y-3.1681
X2.9531Y-3.2035
X2.9531Y-3.239
X2.9531Y-3.2744
X2.9531Y-3.3098
X2.9531Y-3.3453
X2.9531Y-3.3807
X2.9531Y-3.4161
X2.9531Y-3.4516
X2.9885Y-1.6445
X2.9885Y-1.6799
X2.9885Y-1.7154
X2.9885Y-1.7508
X2.9885Y-1.7862
X2.9885Y-1.8217
X2.9885Y-1.8571
X2.9885Y-1.8925
X2.9885Y-1.928
X2.9885Y-1.9634
X2.9885Y-1.9988
X2.9885Y-2.1405
X2.9885Y-2.8138
X2.9885Y-2.8492
X2.9885Y-2.8846
X2.9885Y-2.9201
X2.9885Y-2.9555
X2.9885Y-2.9909
X2.9885Y-3.0264
X2.9885Y-3.0618
X2.9885Y-3.0972
X2.9885Y-3.1681
X2.9885Y-3.2035
X2.9885Y-3.239
X2.9885Y-3.2744
X2.9885Y-3.3098
X2.9885Y-3.3453
X2.9885Y-3.3807
X2.9885Y-3.4161
X2.9885Y-3.4516
X2.9885Y-3.5579
X2.9885Y-3.5933
X3.024Y-1.6445
X3.024Y-1.6799
X3.024Y-1.7154
X3.024Y-1.7508
X3.024Y-1.7862
X3.024Y-1.8217
X3.024Y-1.8571
X3.024Y-1.8925
X3.024Y-1.928
X3.024Y-1.9634
X3.024Y-1.9988
X3.024Y-3.0264
X3.024Y-3.0618
X3.024Y-3.0972
X3.024Y-3.1681
X3.024Y-3.2035
X3.024Y-3.239
X3.024Y-3.2744
X3.024Y-3.3098
X3.024Y-3.3453
X3.024Y-3.3807
X3.024Y-3.4161
X3.024Y-3.4516
X3.024Y-3.5579
X3.024Y-3.5933
X3.024Y-3.6287
X3.0594Y-1.6445
X3.0594Y-1.6799
X3.0594Y-1.7154
X3.0594Y-1.7508
X3.0594Y-1.7862
X3.0594Y-1.8217
X3.0594Y-1.8571
X3.0594Y-1.8925
X3.0594Y-1.928
X3.0594Y-1.9634
X3.0594Y-1.9988
X3.0594Y-3.0264
X3.0594Y-3.0618
X3.0594Y-3.0972
X3.0594Y-3.1681
X3.0594Y-3.2035
X3.0594Y-3.239
X3.0594Y-3.2744
X3.0594Y-3.3098
X3.0594Y-3.3453
X3.0594Y-3.3807
X3.0594Y-3.4161
X3.0594Y-3.4516
X3.0594Y-3.5579
X3.0594Y-3.5933
X3.0594Y-3.6287
X3.0948Y-1.6445
X3.0948Y-1.6799
X3.0948Y-1.7154
X3.0948Y-1.7508
X3.0948Y-1.7862
X3.0948Y-1.8217
X3.0948Y-1.8571
X3.0948Y-1.8925
X3.0948Y-1.928
X3.0948Y-1.9634
X3.0948Y-1.9988
X3.0948Y-2.1405
X3.0948Y-2.176
X3.0948Y-2.2114
X3.0948Y-2.2468
X3.0948Y-2.2823
X3.0948Y-2.3177
X3.0948Y-3.0264
X3.0948Y-3.0618
X3.0948Y-3.0972
X3.0948Y-3.1681
X3.0948Y-3.2035
X3.0948Y-3.239
X3.0948Y-3.2744
X3.0948Y-3.3098
X3.0948Y-3.3453
X3.0948Y-3.3807
X3.0948Y-3.4161
X3.0948Y-3.4516
X3.0948Y-3.5579
X3.0948Y-3.5933
X3.0948Y-3.6287
X3.1303Y-1.6445
X3.1303Y-1.6799
X3.1303Y-1.7154
X3.1303Y-1.7508
X3.1303Y-1.7862
X3.1303Y-1.8217
X3.1303Y-1.8571
X3.1303Y-1.8925
X3.1303Y-1.928
X3.1303Y-1.9634
X3.1303Y-2.2114
X3.1303Y-2.2468
X3.1303Y-2.2823
X3.1303Y-2.3177
X3.1303Y-2.6366
X3.1303Y-2.672
X3.1303Y-2.8138
X3.1303Y-2.9201
X3.1303Y-2.9555
X3.1303Y-3.0264
X3.1303Y-3.0618
X3.1303Y-3.0972
X3.1303Y-3.1681
X3.1303Y-3.2035
X3.1303Y-3.239
X3.1303Y-3.2744
X3.1303Y-3.3098
X3.1303Y-3.3453
X3.1303Y-3.3807
X3.1303Y-3.4161
X3.1303Y-3.5579
X3.1303Y-3.5933
X3.1303Y-3.6287
X3.1657Y-1.6445
X3.1657Y-1.6799
X3.1657Y-1.7154
X3.1657Y-1.7508
X3.1657Y-1.7862
X3.1657Y-1.8217
X3.1657Y-1.8571
X3.1657Y-1.8925
X3.1657Y-1.928
X3.1657Y-1.9634
X3.1657Y-2.2114
X3.1657Y-2.2468
X3.1657Y-2.2823
X3.1657Y-2.3177
X3.1657Y-2.8138
X3.1657Y-2.9201
X3.1657Y-2.9555
X3.1657Y-3.0264
X3.1657Y-3.0618
X3.1657Y-3.0972
X3.1657Y-3.1681
X3.1657Y-3.2035
X3.1657Y-3.239
X3.1657Y-3.2744
X3.1657Y-3.3098
X3.1657Y-3.3453
X3.1657Y-3.3807
X3.1657Y-3.5579
X3.1657Y-3.5933
X3.1657Y-3.6287
X3.1657Y-3.6642
X3.2011Y-1.8571
X3.2011Y-1.8925
X3.2011Y-1.928
X3.2011Y-1.9634
X3.2011Y-2.2114
X3.2011Y-2.2468
X3.2011Y-2.2823
X3.2011Y-2.3177
X3.2011Y-2.8138
X3.2011Y-2.9201
X3.2011Y-2.9555
X3.2011Y-3.0264
X3.2011Y-3.0618
X3.2011Y-3.0972
X3.2011Y-3.1681
X3.2011Y-3.2035
X3.2011Y-3.239
X3.2011Y-3.2744
X3.2011Y-3.3098
X3.2011Y-3.3453
X3.2011Y-3.5579
X3.2011Y-3.5933
X3.2011Y-3.6287
X3.2011Y-3.6642
X3.2011Y-3.6996
X3.2366Y-1.8571
X3.2366Y-1.8925
X3.2366Y-1.928
X3.2366Y-1.9634
X3.2366Y-1.9988
X3.2366Y-2.0343
X3.2366Y-2.1405
X3.2366Y-2.176
X3.2366Y-2.2114
X3.2366Y-2.2468
X3.2366Y-2.2823
X3.2366Y-2.3177
X3.2366Y-2.8138
X3.2366Y-2.9201
X3.2366Y-2.9555
X3.2366Y-3.0264
X3.2366Y-3.0618
X3.2366Y-3.0972
X3.2366Y-3.1681
X3.2366Y-3.2035
X3.2366Y-3.239
X3.2366Y-3.2744
X3.2366Y-3.3098
X3.2366Y-3.5224
X3.2366Y-3.5579
X3.2366Y-3.5933
X3.2366Y-3.6287
X3.2366Y-3.6642
X3.2366Y-3.6996
X3.272Y-1.8571
X3.272Y-1.8925
X3.272Y-1.928
X3.272Y-1.9634
X3.272Y-1.9988
X3.272Y-2.0343
X3.272Y-2.1405
X3.272Y-2.176
X3.272Y-2.2114
X3.272Y-2.2468
X3.272Y-2.2823
X3.272Y-2.3177
X3.272Y-2.8138
X3.272Y-2.9201
X3.272Y-2.9555
X3.272Y-3.0264
X3.272Y-3.0618
X3.272Y-3.0972
X3.272Y-3.1681
X3.272Y-3.2035
X3.272Y-3.239
X3.272Y-3.2744
X3.272Y-3.487
X3.272Y-3.5224
X3.272Y-3.5579
X3.272Y-3.5933
X3.272Y-3.6287
X3.272Y-3.6642
X3.272Y-3.6996
X3.3074Y-1.8571
X3.3074Y-1.8925
X3.3074Y-1.928
X3.3074Y-1.9634
X3.3074Y-1.9988
X3.3074Y-2.0343
X3.3074Y-2.1405
X3.3074Y-2.176
X3.3074Y-2.2114
X3.3074Y-2.2468
X3.3074Y-2.2823
X3.3074Y-2.3177
X3.3074Y-2.6366
X3.3074Y-2.672
X3.3074Y-2.8138
X3.3074Y-2.9201
X3.3074Y-2.9555
X3.3074Y-3.0264
X3.3074Y-3.0618
X3.3074Y-3.0972
X3.3074Y-3.1681
X3.3074Y-3.2035
X3.3074Y-3.239
X3.3074Y-3.4516
X3.3074Y-3.487
X3.3074Y-3.5224
X3.3074Y-3.5579
X3.3074Y-3.5933
X3.3074Y-3.6287
X3.3074Y-3.6642
X3.3074Y-3.6996
X3.3429Y-1.6445
X3.3429Y-1.6799
X3.3429Y-1.7154
X3.3429Y-1.7508
X3.3429Y-1.7862
X3.3429Y-1.8217
X3.3429Y-1.8571
X3.3429Y-1.8925
X3.3429Y-1.928
X3.3429Y-1.9634
X3.3429Y-1.9988
X3.3429Y-2.0343
X3.3429Y-2.1405
X3.3429Y-2.176
X3.3429Y-2.2114
X3.3429Y-2.2468
X3.3429Y-2.2823
X3.3429Y-2.3177
X3.3429Y-2.6366
X3.3429Y-2.672
X3.3429Y-2.8138
X3.3429Y-2.9201
X3.3429Y-2.9555
X3.3429Y-3.0264
X3.3429Y-3.0618
X3.3429Y-3.0972
X3.3429Y-3.1681
X3.3429Y-3.2035
X3.3429Y-3.487
X3.3429Y-3.5224
X3.3429Y-3.5579
X3.3429Y-3.5933
X3.3429Y-3.6287
X3.3429Y-3.6642
X3.3429Y-3.6996
X3.3783Y-1.6445
X3.3783Y-1.6799
X3.3783Y-1.7154
X3.3783Y-1.7508
X3.3783Y-1.7862
X3.3783Y-1.8217
X3.3783Y-1.8571
X3.3783Y-1.8925
X3.3783Y-1.928
X3.3783Y-1.9634
X3.3783Y-1.9988
X3.3783Y-2.0343
X3.3783Y-2.1405
X3.3783Y-2.176
X3.3783Y-2.2114
X3.3783Y-2.2468
X3.3783Y-2.2823
X3.3783Y-2.3177
X3.3783Y-2.6366
X3.3783Y-2.672
X3.3783Y-2.8138
X3.3783Y-2.9201
X3.3783Y-2.9555
X3.3783Y-3.0264
X3.3783Y-3.0618
X3.3783Y-3.0972
X3.3783Y-3.1681
X3.3783Y-3.487
X3.3783Y-3.5224
X3.3783Y-3.5579
X3.3783Y-3.5933
X3.3783Y-3.6287
X3.3783Y-3.6642
X3.3783Y-3.6996
X3.4137Y-1.8571
X3.4137Y-1.8925
X3.4137Y-1.928
X3.4137Y-1.9634
X3.4137Y-1.9988
X3.4137Y-2.0343
X3.4137Y-2.1405
X3.4137Y-2.176
X3.4137Y-2.2114
X3.4137Y-2.2468
X3.4137Y-2.2823
X3.4137Y-2.3177
X3.4137Y-2.6366
X3.4137Y-2.672
X3.4137Y-2.8138
X3.4137Y-2.9201
X3.4137Y-2.9555
X3.4137Y-3.0264
X3.4137Y-3.0618
X3.4137Y-3.0972
X3.4137Y-3.3453
X3.4137Y-3.6642
X3.4137Y-3.6996
X3.4492Y-1.8571
X3.4492Y-1.8925
X3.4492Y-1.928
X3.4492Y-1.9634
X3.4492Y-1.9988
X3.4492Y-2.0343
X3.4492Y-2.1405
X3.4492Y-2.176
X3.4492Y-2.2114
X3.4492Y-2.2468
X3.4492Y-2.2823
X3.4492Y-2.3177
X3.4492Y-3.3098
X3.4492Y-3.3453
X3.4846Y-1.8571
X3.4846Y-1.8925
X3.4846Y-1.928
X3.4846Y-1.9634
X3.4846Y-1.9988
X3.4846Y-2.0343
X3.4846Y-2.1405
X3.4846Y-2.176
X3.4846Y-2.2114
X3.4846Y-2.2468
X3.52Y-1.8571
X3.52Y-1.8925
X3.52Y-1.928
X3.52Y-1.9634
X3.52Y-1.9988
X3.52Y-2.0343
X3.52Y-2.1405
X3.52Y-2.176
X3.52Y-2.2114
X3.52Y-2.2468
X3.5555Y-1.6445
X3.5555Y-1.6799
X3.5555Y-1.7154
X3.5555Y-1.7508
X3.5555Y-1.7862
X3.5555Y-1.8217
X3.5555Y-1.8571
X3.5555Y-1.8925
X3.5555Y-1.928
X3.5555Y-1.9634
X3.5555Y-1.9988
X3.5555Y-2.0343
X3.5909Y-1.6445
X3.5909Y-1.6799
X3.5909Y-1.7154
X3.5909Y-1.7508
X3.5909Y-1.7862
X3.5909Y-1.8217
X3.5909Y-1.8571
X3.5909Y-1.8925
X3.5909Y-1.928
X3.5909Y-1.9634
X3.5909Y-1.9988
X3.5909Y-2.0343
X3.5909Y-2.2114
X3.5909Y-2.2468
X3.5909Y-3.1681
X3.5909Y-3.487
X3.6263Y-1.6445
X3.6263Y-1.6799
X3.6263Y-1.7154
X3.6263Y-1.7508
X3.6263Y-1.7862
X3.6263Y-1.8217
X3.6263Y-1.8571
X3.6263Y-1.8925
X3.6263Y-1.928
X3.6263Y-1.9634
X3.6263Y-1.9988
X3.6263Y-2.0343
X3.6263Y-2.1405
X3.6263Y-2.176
X3.6263Y-2.2114
X3.6263Y-2.2468
X3.6618Y-1.6445
X3.6618Y-1.6799
X3.6618Y-1.7154
X3.6618Y-1.7508
X3.6618Y-1.7862
X3.6618Y-1.8217
X3.6618Y-1.8571
X3.6618Y-1.8925
X3.6618Y-1.928
X3.6618Y-1.9634
X3.6618Y-1.9988
X3.6618Y-2.0343
X3.6618Y-2.1405
X3.6618Y-2.176
X3.6618Y-2.2114
X3.6618Y-2.2468
X3.6618Y-3.1327
X3.6618Y-3.1681
X3.6972Y-1.6445
X3.6972Y-1.6799
X3.6972Y-1.7154
X3.6972Y-1.7508
X3.6972Y-1.7862
X3.6972Y-1.8217
X3.6972Y-1.8571
X3.6972Y-1.8925
X3.6972Y-1.928
X3.6972Y-1.9634
X3.6972Y-1.9988
X3.6972Y-2.0343
X3.6972Y-2.1405
X3.6972Y-2.176
X3.6972Y-2.2114
X3.6972Y-2.2468
X3.6972Y-2.2823
X3.6972Y-2.3177
X3.6972Y-2.3531
X3.6972Y-2.6012
X3.6972Y-2.6366
X3.6972Y-2.672
X3.6972Y-2.8138
X3.6972Y-2.8492
X3.6972Y-3.1327
X3.6972Y-3.1681
X3.7326Y-1.6445
X3.7326Y-1.6799
X3.7326Y-1.7154
X3.7326Y-1.7508
X3.7326Y-1.7862
X3.7326Y-1.8217
X3.7326Y-1.8571
X3.7326Y-1.8925
X3.7326Y-1.928
X3.7326Y-1.9634
X3.7326Y-1.9988
X3.7326Y-2.0343
X3.7326Y-2.1405
X3.7326Y-2.176
X3.7326Y-2.2114
X3.7326Y-2.2468
X3.7326Y-2.2823
X3.7326Y-2.3177
X3.7326Y-2.3531
X3.7326Y-2.6366
X3.7326Y-2.672
X3.7326Y-2.8138
X3.7326Y-2.8492
X3.7326Y-3.1327
X3.7326Y-3.1681
X3.7681Y-1.6445
X3.7681Y-1.6799
X3.7681Y-1.7154
X3.7681Y-1.7508
X3.7681Y-1.7862
X3.7681Y-1.8217
X3.7681Y-1.8571
X3.7681Y-1.8925
X3.7681Y-1.928
X3.7681Y-1.9634
X3.7681Y-1.9988
X3.7681Y-2.0343
X3.7681Y-2.1405
X3.7681Y-2.176
X3.7681Y-2.2114
X3.7681Y-2.2468
X3.7681Y-2.2823
X3.7681Y-2.3177
X3.7681Y-2.3531
X3.7681Y-2.6366
X3.7681Y-2.672
X3.7681Y-2.8138
X3.7681Y-2.8492
X3.7681Y-3.1327
X3.7681Y-3.1681
X3.7681Y-3.2035
X3.7681Y-3.239
X3.8035Y-1.6445
X3.8035Y-1.6799
X3.8035Y-1.7154
X3.8035Y-1.7508
X3.8035Y-1.7862
X3.8035Y-1.8217
X3.8035Y-1.8571
X3.8035Y-1.8925
X3.8035Y-1.928
X3.8035Y-1.9634
X3.8035Y-1.9988
X3.8035Y-2.0343
X3.8035Y-2.1405
X3.8035Y-2.176
X3.8035Y-2.2114
X3.8035Y-2.2468
X3.8035Y-2.2823
X3.8035Y-2.3177
X3.8035Y-2.3531
X3.8035Y-2.4594
X3.8035Y-2.6366
X3.8035Y-2.672
X3.8035Y-2.8138
X3.8035Y-2.8492
X3.8035Y-3.1327
X3.8035Y-3.1681
X3.8035Y-3.2035
X3.8035Y-3.239
X3.8035Y-3.2744
X3.8389Y-1.6445
X3.8389Y-1.6799
X3.8389Y-1.7154
X3.8389Y-1.7508
X3.8389Y-1.7862
X3.8389Y-1.8217
X3.8389Y-1.8571
X3.8389Y-1.8925
X3.8389Y-1.928
X3.8389Y-1.9634
X3.8389Y-1.9988
X3.8389Y-2.0343
X3.8389Y-2.1405
X3.8389Y-2.176
X3.8389Y-2.2114
X3.8389Y-2.2468
X3.8389Y-2.2823
X3.8389Y-2.3177
X3.8389Y-2.3531
X3.8389Y-2.4594
X3.8389Y-2.6366
X3.8389Y-2.672
X3.8389Y-2.8138
X3.8389Y-2.8492
X3.8389Y-3.1327
X3.8389Y-3.1681
X3.8389Y-3.2035
X3.8389Y-3.239
X3.8389Y-3.2744
X3.8389Y-3.3098
X3.8389Y-3.3453
X3.8389Y-3.3807
X3.8744Y-1.6445
X3.8744Y-1.6799
X3.8744Y-1.8217
X3.8744Y-1.8571
X3.8744Y-1.8925
X3.8744Y-1.928
X3.8744Y-1.9634
X3.8744Y-1.9988
X3.8744Y-2.0343
X3.8744Y-2.1405
X3.8744Y-2.176
X3.8744Y-2.2114
X3.8744Y-2.2468
X3.8744Y-2.2823
X3.8744Y-2.3177
X3.8744Y-2.3531
X3.8744Y-2.4594
X3.8744Y-2.6366
X3.8744Y-2.672
X3.8744Y-2.8492
X3.8744Y-3.1327
X3.8744Y-3.1681
X3.8744Y-3.2035
X3.8744Y-3.239
X3.8744Y-3.2744
X3.8744Y-3.3098
X3.8744Y-3.3453
X3.8744Y-3.3807
X3.8744Y-3.4161
X3.8744Y-3.4516
X3.9098Y-1.6445
X3.9098Y-1.6799
X3.9098Y-1.8217
X3.9098Y-1.8571
X3.9098Y-1.8925
X3.9098Y-1.928
X3.9098Y-1.9634
X3.9098Y-1.9988
X3.9098Y-2.0343
X3.9098Y-2.3531
X3.9098Y-2.8492
X3.9098Y-3.1327
X3.9098Y-3.1681
X3.9098Y-3.2035
X3.9098Y-3.239
X3.9098Y-3.2744
X3.9098Y-3.3098
X3.9098Y-3.3453
X3.9098Y-3.3807
X3.9098Y-3.4161
X3.9098Y-3.4516
X3.9452Y-2.3531
X3.9452Y-3.1327
X3.9452Y-3.1681
X3.9452Y-3.2035
X3.9452Y-3.239
X3.9452Y-3.2744
X3.9452Y-3.3098
X3.9452Y-3.3453
X3.9452Y-3.3807
X3.9452Y-3.4161
X3.9452Y-3.4516
X3.9807Y-1.6445
X3.9807Y-1.6799
X3.9807Y-1.8217
X3.9807Y-1.8571
X3.9807Y-1.8925
X3.9807Y-1.928
X3.9807Y-3.1327
X3.9807Y-3.1681
X3.9807Y-3.2035
X3.9807Y-3.239
X3.9807Y-3.2744
X3.9807Y-3.3098
X3.9807Y-3.3453
X3.9807Y-3.3807
X3.9807Y-3.4161
X3.9807Y-3.4516
X4.0161Y-1.6445
X4.0161Y-1.6799
X4.0161Y-1.8217
X4.0161Y-1.8571
X4.0161Y-1.8925
X4.0161Y-1.928
X4.0161Y-3.1327
X4.0161Y-3.1681
X4.0161Y-3.2035
X4.0161Y-3.239
X4.0161Y-3.2744
X4.0161Y-3.3098
X4.0161Y-3.3453
X4.0161Y-3.3807
X4.0161Y-3.4161
X4.0161Y-3.4516
X4.0515Y-1.6445
X4.0515Y-1.6799
X4.0515Y-1.8217
X4.0515Y-1.8571
X4.0515Y-1.8925
X4.0515Y-1.928
X4.0515Y-2.8492
X4.0515Y-2.8846
X4.0515Y-3.0618
X4.0515Y-3.0972
X4.0515Y-3.1327
X4.0515Y-3.1681
X4.0515Y-3.2035
X4.0515Y-3.239
X4.0515Y-3.6642
X4.087Y-1.6445
X4.087Y-1.6799
X4.087Y-1.7154
X4.087Y-1.7508
X4.087Y-1.7862
X4.087Y-1.8217
X4.087Y-1.8571
X4.087Y-1.8925
X4.087Y-1.928
X4.087Y-2.0343
X4.087Y-2.8492
X4.087Y-2.8846
X4.087Y-3.0618
X4.087Y-3.0972
X4.087Y-3.1327
X4.087Y-3.1681
X4.087Y-3.2035
X4.087Y-3.239
X4.087Y-3.6642
X4.087Y-3.6996
X4.1224Y-1.6445
X4.1224Y-1.6799
X4.1224Y-1.7154
X4.1224Y-1.7508
X4.1224Y-1.7862
X4.1224Y-1.8217
X4.1224Y-1.8571
X4.1224Y-1.8925
X4.1224Y-1.928
X4.1224Y-2.0343
X4.1224Y-2.8492
X4.1224Y-2.8846
X4.1224Y-3.0618
X4.1224Y-3.0972
X4.1224Y-3.1327
X4.1224Y-3.1681
X4.1224Y-3.2035
X4.1224Y-3.239
X4.1224Y-3.3453
X4.1224Y-3.4516
X4.1224Y-3.6642
X4.1224Y-3.6996
X4.1578Y-1.6445
X4.1578Y-1.6799
X4.1578Y-1.7154
X4.1578Y-1.7508
X4.1578Y-1.7862
X4.1578Y-1.8217
X4.1578Y-1.8571
X4.1578Y-1.8925
X4.1578Y-1.928
X4.1578Y-2.0343
X4.1578Y-2.1405
X4.1578Y-2.176
X4.1578Y-2.8492
X4.1578Y-2.8846
X4.1578Y-3.0618
X4.1578Y-3.0972
X4.1578Y-3.1327
X4.1578Y-3.1681
X4.1578Y-3.2035
X4.1578Y-3.239
X4.1578Y-3.6642
X4.1578Y-3.6996
X4.1933Y-1.6445
X4.1933Y-1.6799
X4.1933Y-1.7154
X4.1933Y-1.7508
X4.1933Y-1.7862
X4.1933Y-1.8217
X4.1933Y-1.8571
X4.1933Y-1.8925
X4.1933Y-1.928
X4.1933Y-2.0343
X4.1933Y-2.1405
X4.1933Y-2.176
X4.1933Y-3.0972
X4.1933Y-3.6642
X4.1933Y-3.6996
X4.2287Y-1.6445
X4.2287Y-1.6799
X4.2287Y-1.7154
X4.2287Y-1.7508
X4.2287Y-1.7862
X4.2287Y-1.8217
X4.2287Y-1.8571
X4.2287Y-1.8925
X4.2287Y-1.928
X4.2287Y-2.0343
X4.2287Y-2.1405
X4.2287Y-2.176
X4.2287Y-2.8846
X4.2287Y-3.6642
X4.2287Y-3.6996
X4.2641Y-1.6445
X4.2641Y-1.6799
X4.2641Y-1.7154
X4.2641Y-1.7508
X4.2641Y-1.7862
X4.2641Y-1.8217
X4.2641Y-1.8571
X4.2641Y-1.8925
X4.2641Y-1.928
X4.2641Y-2.0343
X4.2641Y-2.1405
X4.2641Y-2.176
X4.2641Y-2.2114
X4.2641Y-2.3531
X4.2641Y-2.3886
X4.2641Y-2.8846
X4.2641Y-3.6642
X4.2641Y-3.6996
X4.2996Y-1.6445
X4.2996Y-1.6799
X4.2996Y-1.7154
X4.2996Y-1.7508
X4.2996Y-1.7862
X4.2996Y-1.8217
X4.2996Y-1.8571
X4.2996Y-1.8925
X4.2996Y-1.928
X4.2996Y-2.0343
X4.2996Y-2.1405
X4.2996Y-2.176
X4.2996Y-2.3531
X4.2996Y-2.3886
X4.2996Y-3.0618
X4.2996Y-3.0972
X4.2996Y-3.6642
X4.2996Y-3.6996
X4.335Y-1.6445
X4.335Y-1.8217
X4.335Y-1.8571
X4.335Y-1.8925
X4.335Y-1.928
X4.335Y-2.0343
X4.335Y-2.1405
X4.335Y-2.3531
X4.335Y-3.0618
X4.335Y-3.0972
X4.335Y-3.6642
X4.335Y-3.6996
X4.3704Y-1.8571
X4.3704Y-1.8925
X4.3704Y-1.928
X4.3704Y-2.0343
X4.3704Y-2.3531
X4.3704Y-3.0618
X4.3704Y-3.0972
X4.3704Y-3.6642
X4.3704Y-3.6996
X4.4059Y-1.8571
X4.4059Y-1.8925
X4.4059Y-1.928
X4.4059Y-2.0343
X4.4059Y-2.3531
X4.4059Y-2.5657
X4.4059Y-2.672
X4.4059Y-2.7075
X4.4059Y-2.7429
X4.4059Y-2.7783
X4.4059Y-3.0264
X4.4059Y-3.0618
X4.4059Y-3.0972
X4.4059Y-3.6642
X4.4059Y-3.6996
X4.4413Y-1.8571
X4.4413Y-1.8925
X4.4413Y-1.928
X4.4413Y-2.0343
X4.4413Y-2.3531
X4.4413Y-2.672
X4.4413Y-2.7075
X4.4413Y-2.7429
X4.4413Y-2.7783
X4.4413Y-3.0618
X4.4413Y-3.0972
X4.4413Y-3.6642
X4.4413Y-3.6996
X4.4767Y-1.6445
X4.4767Y-1.6799
X4.4767Y-1.7154
X4.4767Y-1.7508
X4.4767Y-1.7862
X4.4767Y-1.8217
X4.4767Y-1.8571
X4.4767Y-1.8925
X4.4767Y-1.928
X4.4767Y-2.3531
X4.4767Y-2.672
X4.4767Y-2.7075
X4.4767Y-2.7429
X4.4767Y-2.7783
X4.4767Y-3.0618
X4.4767Y-3.0972
X4.4767Y-3.1681
X4.4767Y-3.2035
X4.4767Y-3.239
X4.4767Y-3.5579
X4.4767Y-3.5933
X4.4767Y-3.6287
X4.4767Y-3.6642
X4.4767Y-3.6996
X4.5121Y-1.6445
X4.5121Y-1.6799
X4.5121Y-1.7154
X4.5121Y-1.7508
X4.5121Y-1.7862
X4.5121Y-1.8217
X4.5121Y-1.8571
X4.5121Y-1.8925
X4.5121Y-1.928
X4.5121Y-2.2114
X4.5121Y-2.3531
X4.5121Y-3.0972
X4.5121Y-3.1681
X4.5121Y-3.2035
X4.5121Y-3.239
X4.5121Y-3.3453
X4.5121Y-3.4516
X4.5121Y-3.5579
X4.5121Y-3.5933
X4.5121Y-3.6287
X4.5476Y-1.8571
X4.5476Y-1.8925
X4.5476Y-1.928
X4.5476Y-2.3531
X4.5476Y-3.0972
X4.583Y-1.8571
X4.583Y-1.8925
X4.583Y-1.928
X4.583Y-1.9634
X4.583Y-1.9988
X4.583Y-2.0343
X4.583Y-2.1405
X4.583Y-2.176
X4.583Y-2.2114
X4.583Y-2.2468
X4.583Y-2.3531
X4.583Y-3.0972
X4.6184Y-1.8571
X4.6184Y-1.8925
X4.6184Y-1.928
X4.6184Y-1.9634
X4.6184Y-1.9988
X4.6184Y-2.0343
X4.6184Y-2.1405
X4.6184Y-2.176
X4.6184Y-2.2114
X4.6184Y-2.2468
X4.6184Y-2.3531
X4.6184Y-2.4594
X4.6184Y-2.4949
X4.6184Y-2.5303
X4.6184Y-2.5657
X4.6184Y-2.7783
X4.6184Y-3.0972
X4.6184Y-3.1327
X4.6184Y-3.1681
X4.6184Y-3.2035
X4.6184Y-3.239
X4.6184Y-3.2744
X4.6184Y-3.3098
X4.6184Y-3.3453
X4.6184Y-3.3807
X4.6184Y-3.4161
X4.6184Y-3.4516
X4.6184Y-3.487
X4.6184Y-3.5224
X4.6184Y-3.5579
X4.6184Y-3.5933
X4.6184Y-3.6287
X4.6539Y-1.8571
X4.6539Y-1.8925
X4.6539Y-1.928
X4.6539Y-1.9634
X4.6539Y-1.9988
X4.6539Y-2.0343
X4.6539Y-2.1405
X4.6539Y-2.176
X4.6539Y-2.2114
X4.6539Y-2.2468
X4.6539Y-2.3531
X4.6539Y-2.4594
X4.6539Y-2.4949
X4.6539Y-2.5303
X4.6539Y-2.5657
X4.6539Y-2.7783
X4.6539Y-3.0264
X4.6539Y-3.0618
X4.6539Y-3.0972
X4.6539Y-3.1327
X4.6539Y-3.1681
X4.6539Y-3.2035
X4.6539Y-3.239
X4.6539Y-3.2744
X4.6539Y-3.3098
X4.6539Y-3.3453
X4.6539Y-3.3807
X4.6539Y-3.4161
X4.6539Y-3.4516
X4.6539Y-3.487
X4.6539Y-3.5224
X4.6539Y-3.5579
X4.6539Y-3.5933
X4.6539Y-3.6287
X4.6893Y-1.6445
X4.6893Y-1.6799
X4.6893Y-1.7154
X4.6893Y-1.7508
X4.6893Y-1.7862
X4.6893Y-1.8217
X4.6893Y-1.8571
X4.6893Y-1.8925
X4.6893Y-1.928
X4.6893Y-1.9634
X4.6893Y-1.9988
X4.6893Y-2.0343
X4.6893Y-2.1405
X4.6893Y-2.176
X4.6893Y-2.2114
X4.6893Y-2.2468
X4.6893Y-2.3531
X4.6893Y-2.4594
X4.6893Y-2.4949
X4.6893Y-2.5303
X4.6893Y-2.5657
X4.6893Y-2.672
X4.6893Y-2.7075
X4.6893Y-2.7429
X4.6893Y-2.7783
X4.6893Y-3.0264
X4.6893Y-3.0618
X4.6893Y-3.0972
X4.6893Y-3.1327
X4.6893Y-3.1681
X4.6893Y-3.2035
X4.6893Y-3.239
X4.6893Y-3.2744
X4.6893Y-3.3098
X4.6893Y-3.3453
X4.6893Y-3.3807
X4.6893Y-3.4161
X4.6893Y-3.4516
X4.6893Y-3.487
X4.6893Y-3.5224
X4.6893Y-3.5579
X4.6893Y-3.5933
X4.7247Y-1.6445
X4.7247Y-1.6799
X4.7247Y-1.7154
X4.7247Y-1.7508
X4.7247Y-1.7862
X4.7247Y-1.8217
X4.7247Y-1.8571
X4.7247Y-1.8925
X4.7247Y-1.928
X4.7247Y-1.9634
X4.7247Y-1.9988
X4.7247Y-2.0343
X4.7247Y-2.1405
X4.7247Y-2.176
X4.7247Y-2.2114
X4.7247Y-2.2468
X4.7247Y-2.3531
X4.7247Y-3.0264
X4.7247Y-3.0618
X4.7247Y-3.0972
X4.7247Y-3.1327
X4.7247Y-3.1681
X4.7247Y-3.2035
X4.7247Y-3.239
X4.7247Y-3.2744
X4.7247Y-3.3098
X4.7247Y-3.3453
X4.7247Y-3.3807
X4.7247Y-3.4161
X4.7247Y-3.4516
X4.7247Y-3.487
X4.7247Y-3.5224
X4.7247Y-3.5579
X4.7602Y-1.6445
X4.7602Y-1.6799
X4.7602Y-1.7154
X4.7602Y-1.7508
X4.7602Y-1.7862
X4.7602Y-1.8217
X4.7602Y-1.8571
X4.7602Y-1.8925
X4.7602Y-1.928
X4.7602Y-1.9634
X4.7602Y-1.9988
X4.7602Y-2.0343
X4.7602Y-2.1405
X4.7602Y-2.176
X4.7602Y-2.2114
X4.7602Y-2.2468
X4.7602Y-2.9201
X4.7602Y-3.0264
X4.7602Y-3.0618
X4.7602Y-3.0972
X4.7602Y-3.1327
X4.7602Y-3.1681
X4.7602Y-3.2035
X4.7602Y-3.239
X4.7602Y-3.2744
X4.7602Y-3.3098
X4.7602Y-3.3453
X4.7602Y-3.3807
X4.7602Y-3.4161
X4.7602Y-3.4516
X4.7602Y-3.487
X4.7602Y-3.5224
X4.7602Y-3.5579
X4.7956Y-1.6445
X4.7956Y-1.6799
X4.7956Y-1.7154
X4.7956Y-1.7508
X4.7956Y-1.7862
X4.7956Y-1.8217
X4.7956Y-1.8571
X4.7956Y-1.8925
X4.7956Y-1.928
X4.7956Y-1.9634
X4.7956Y-1.9988
X4.7956Y-2.0343
X4.7956Y-2.1405
X4.7956Y-2.176
X4.7956Y-2.9201
X4.831Y-1.6445
X4.831Y-1.8217
X4.831Y-1.8571
X4.831Y-1.8925
X4.831Y-1.928
X4.831Y-1.9634
X4.831Y-1.9988
X4.831Y-2.0343
X4.831Y-2.1405
X4.831Y-2.176
X4.831Y-2.9201
X4.8665Y-1.6445
X4.8665Y-1.8217
X4.8665Y-1.8571
X4.8665Y-1.8925
X4.8665Y-1.928
X4.8665Y-1.9634
X4.8665Y-1.9988
X4.8665Y-2.0343
X4.8665Y-2.1405
X4.8665Y-2.176
X4.8665Y-2.9201
X4.8665Y-3.0264
X4.8665Y-3.0618
X4.8665Y-3.0972
X4.8665Y-3.1327
X4.8665Y-3.1681
X4.8665Y-3.2035
X4.8665Y-3.239
X4.8665Y-3.2744
X4.8665Y-3.3098
X4.8665Y-3.3453
X4.8665Y-3.3807
X4.8665Y-3.4161
X4.8665Y-3.4516
X4.8665Y-3.487
X4.8665Y-3.5224
X4.8665Y-3.5579
X4.9019Y-1.6445
X4.9019Y-1.8571
X4.9019Y-1.8925
X4.9019Y-1.928
X4.9019Y-1.9634
X4.9019Y-1.9988
X4.9019Y-2.0343
X4.9019Y-2.1405
X4.9019Y-2.176
X4.9019Y-2.2823
X4.9019Y-2.3177
X4.9019Y-2.9201
X4.9019Y-3.0264
X4.9019Y-3.0618
X4.9019Y-3.0972
X4.9019Y-3.1327
X4.9019Y-3.1681
X4.9019Y-3.2035
X4.9019Y-3.239
X4.9019Y-3.2744
X4.9019Y-3.3098
X4.9019Y-3.3453
X4.9019Y-3.3807
X4.9019Y-3.4161
X4.9019Y-3.4516
X4.9019Y-3.487
X4.9019Y-3.5224
X4.9019Y-3.5579
X4.9373Y-1.6445
X4.9373Y-1.8571
X4.9373Y-1.8925
X4.9373Y-1.928
X4.9373Y-2.2823
X4.9373Y-2.3177
X4.9373Y-2.9201
X4.9373Y-3.0264
X4.9373Y-3.2744
X4.9373Y-3.3098
X4.9373Y-3.3453
X4.9373Y-3.3807
X4.9373Y-3.4161
X4.9373Y-3.4516
X4.9373Y-3.487
X4.9373Y-3.5224
X4.9373Y-3.5579
X4.9373Y-3.5933
X4.9373Y-3.6287
X4.9373Y-3.6642
X4.9373Y-3.6996
X4.9728Y-1.6445
X4.9728Y-1.6799
X4.9728Y-1.7154
X4.9728Y-1.7508
X4.9728Y-1.7862
X4.9728Y-1.8217
X4.9728Y-1.8571
X4.9728Y-1.8925
X4.9728Y-1.928
X4.9728Y-2.3177
X4.9728Y-3.2744
X4.9728Y-3.3098
X4.9728Y-3.3453
X4.9728Y-3.3807
X4.9728Y-3.4161
X4.9728Y-3.4516
X4.9728Y-3.487
X4.9728Y-3.5224
X4.9728Y-3.5579
X4.9728Y-3.5933
X4.9728Y-3.6287
X4.9728Y-3.6642
X4.9728Y-3.6996
X5.0082Y-1.6445
X5.0082Y-1.6799
X5.0082Y-1.7154
X5.0082Y-1.7508
X5.0082Y-1.7862
X5.0082Y-1.8217
X5.0082Y-1.8571
X5.0082Y-1.8925
X5.0082Y-1.928
X5.0082Y-2.3177
X5.0082Y-2.3531
X5.0082Y-2.3886
X5.0082Y-2.424
X5.0082Y-2.4594
X5.0082Y-2.4949
X5.0082Y-2.5303
X5.0082Y-2.5657
X5.0082Y-2.6012
X5.0082Y-2.6366
X5.0082Y-2.672
X5.0082Y-2.7075
X5.0082Y-2.7429
X5.0082Y-2.7783
X5.0082Y-2.8138
X5.0082Y-2.8492
X5.0082Y-2.8846
X5.0082Y-3.2744
X5.0082Y-3.3098
X5.0082Y-3.3453
X5.0082Y-3.3807
X5.0082Y-3.4161
X5.0082Y-3.4516
X5.0082Y-3.487
X5.0082Y-3.5224
X5.0082Y-3.5579
X5.0082Y-3.5933
X5.0082Y-3.6287
X5.0082Y-3.6642
X5.0082Y-3.6996
T3
X2.9908Y-2.4162
X3.005Y-2.4647
X3.008Y-2.5147
X3.451Y-3.105
X3.491Y-3.107
X3.5085Y-3.674
X3.529Y-3.107
X3.569Y-3.108
X3.575Y-4.266
X3.577Y-4.174
X3.6077Y-3.9153
X3.608Y-3.107
X3.647Y-3.103
X3.65Y-3.424
X3.6916Y-3.874
X3.7318Y-3.8256
X3.8478Y-3.586
X3.9509Y-3.539
X3.996Y-3.682
X4.03Y-3.629
X4.049Y-3.7
X4.066Y-4.361
X4.0787Y-2.5013
X4.079Y-2.567
X4.079Y-2.667
X4.08Y-3.945
X4.128Y-2.4
X4.172Y-3.897
X4.176Y-3.97
X4.299Y-2.617
X4.369Y-3.859
X4.569Y-3.951
T4
X2.631Y-2.743
X2.633Y-2.502
X3.287Y-3.7796
X3.287Y-3.8796
X3.287Y-3.9796
X4.573Y-3.004
X4.8036Y-3.9719
X4.8036Y-4.0719
X4.8036Y-4.1719
X4.876Y-1.745
X4.9036Y-3.9719
X4.9036Y-4.0719
X4.9036Y-4.1719
X4.994Y-2.024
X4.994Y-2.124
X4.994Y-2.224
X5.002Y-2.977
X5.002Y-3.077
X5.002Y-3.177
T5
X3.083Y-4.466
X3.263Y-1.733
X3.283Y-4.466
X3.463Y-1.733
X4.4013Y-1.7358
X4.4507Y-4.4652
X4.6013Y-1.7358
X4.6507Y-4.4652
T0
M30
