%TF.GenerationSoftware,KiCad,Pcbnew,7.0.9*%
%TF.CreationDate,2024-02-29T12:22:54+05:30*%
%TF.ProjectId,RPS2,52505332-2e6b-4696-9361-645f70636258,rev?*%
%TF.SameCoordinates,Original*%
%TF.FileFunction,Copper,L2,Bot*%
%TF.FilePolarity,Positive*%
%FSLAX46Y46*%
G04 Gerber Fmt 4.6, Leading zero omitted, Abs format (unit mm)*
G04 Created by KiCad (PCBNEW 7.0.9) date 2024-02-29 12:22:54*
%MOMM*%
%LPD*%
G01*
G04 APERTURE LIST*
G04 Aperture macros list*
%AMRoundRect*
0 Rectangle with rounded corners*
0 $1 Rounding radius*
0 $2 $3 $4 $5 $6 $7 $8 $9 X,Y pos of 4 corners*
0 Add a 4 corners polygon primitive as box body*
4,1,4,$2,$3,$4,$5,$6,$7,$8,$9,$2,$3,0*
0 Add four circle primitives for the rounded corners*
1,1,$1+$1,$2,$3*
1,1,$1+$1,$4,$5*
1,1,$1+$1,$6,$7*
1,1,$1+$1,$8,$9*
0 Add four rect primitives between the rounded corners*
20,1,$1+$1,$2,$3,$4,$5,0*
20,1,$1+$1,$4,$5,$6,$7,0*
20,1,$1+$1,$6,$7,$8,$9,0*
20,1,$1+$1,$8,$9,$2,$3,0*%
G04 Aperture macros list end*
%TA.AperFunction,ComponentPad*%
%ADD10R,1.700000X1.700000*%
%TD*%
%TA.AperFunction,ComponentPad*%
%ADD11RoundRect,0.250000X0.650000X1.550000X-0.650000X1.550000X-0.650000X-1.550000X0.650000X-1.550000X0*%
%TD*%
%TA.AperFunction,ComponentPad*%
%ADD12O,1.800000X3.600000*%
%TD*%
%TA.AperFunction,ComponentPad*%
%ADD13O,1.700000X1.700000*%
%TD*%
%TA.AperFunction,ComponentPad*%
%ADD14RoundRect,0.250000X-0.650000X-1.550000X0.650000X-1.550000X0.650000X1.550000X-0.650000X1.550000X0*%
%TD*%
%TA.AperFunction,ComponentPad*%
%ADD15C,0.500000*%
%TD*%
%TA.AperFunction,SMDPad,CuDef*%
%ADD16R,1.650000X2.380000*%
%TD*%
%TA.AperFunction,SMDPad,CuDef*%
%ADD17R,2.380000X1.650000*%
%TD*%
%TA.AperFunction,SMDPad,CuDef*%
%ADD18R,3.500000X1.500000*%
%TD*%
%TA.AperFunction,ViaPad*%
%ADD19C,0.800000*%
%TD*%
%TA.AperFunction,ViaPad*%
%ADD20C,0.700000*%
%TD*%
%TA.AperFunction,Conductor*%
%ADD21C,0.250000*%
%TD*%
%TA.AperFunction,Conductor*%
%ADD22C,0.200000*%
%TD*%
G04 APERTURE END LIST*
D10*
%TO.P,IMON1,1,1*%
%TO.N,/IMON*%
X116154200Y-76301600D03*
%TD*%
D11*
%TO.P,Vout1,1*%
%TO.N,Net-(D2-K)*%
X87960200Y-44018200D03*
D12*
%TO.P,Vout1,2*%
X82880200Y-44018200D03*
%TD*%
D10*
%TO.P,RV1,1,1*%
%TO.N,GND*%
X127050800Y-80695800D03*
D13*
%TO.P,RV1,2,2*%
X127050800Y-78155800D03*
%TO.P,RV1,3,3*%
%TO.N,Net-(D2-A)*%
X127050800Y-75615800D03*
%TD*%
D10*
%TO.P,TEMP1,1,1*%
%TO.N,/IC1_TEMP*%
X66827400Y-69672200D03*
%TD*%
D14*
%TO.P,Vin1,1*%
%TO.N,/Vin*%
X78308200Y-113436400D03*
D12*
%TO.P,Vin1,2*%
X83388200Y-113436400D03*
%TD*%
D10*
%TO.P,RV2,1,1*%
%TO.N,/ILIM-*%
X126847600Y-51409600D03*
D13*
%TO.P,RV2,2,2*%
X126847600Y-53949600D03*
%TO.P,RV2,3,3*%
%TO.N,/ILIM+*%
X126847600Y-56489600D03*
%TD*%
D10*
%TO.P,SW1,1,C*%
%TO.N,GND*%
X83489800Y-96001600D03*
D13*
%TO.P,SW1,2,B*%
%TO.N,Net-(IC1-EN{slash}UV)*%
X83489800Y-98541600D03*
%TO.P,SW1,3,A*%
X83489800Y-101081600D03*
%TD*%
D15*
%TO.P,U1,9,EPAD*%
%TO.N,Net-(U1-EPAD)*%
X116722200Y-94435000D03*
X116722200Y-95375000D03*
X116722200Y-96315000D03*
D16*
X117297200Y-95375000D03*
D15*
X117872200Y-94435000D03*
X117872200Y-95375000D03*
X117872200Y-96315000D03*
%TD*%
%TO.P,U2,9,EPAD*%
%TO.N,Net-(U2-EPAD)*%
X76186000Y-99882000D03*
X75246000Y-99882000D03*
X74306000Y-99882000D03*
D17*
X75246000Y-100457000D03*
D15*
X76186000Y-101032000D03*
X75246000Y-101032000D03*
X74306000Y-101032000D03*
%TD*%
D10*
%TO.P,J1,1,Pin_1*%
%TO.N,Net-(D2-A)*%
X124551400Y-105966600D03*
D13*
%TO.P,J1,2,Pin_2*%
%TO.N,Net-(J1-Pin_2)*%
X122011400Y-105966600D03*
%TO.P,J1,3,Pin_3*%
%TO.N,Net-(D2-A)*%
X124551400Y-103426600D03*
%TO.P,J1,4,Pin_4*%
%TO.N,Net-(J1-Pin_4)*%
X122011400Y-103426600D03*
%TO.P,J1,5,Pin_5*%
%TO.N,Net-(D2-A)*%
X124551400Y-100886600D03*
%TO.P,J1,6,Pin_6*%
X122011400Y-100886600D03*
%TD*%
D15*
%TO.P,IC1,29,GND_9*%
%TO.N,GND*%
X99983800Y-95021400D03*
X98983800Y-95021400D03*
X97983800Y-95021400D03*
X96983800Y-95021400D03*
D18*
X98483800Y-95521400D03*
D15*
X99983800Y-96021400D03*
X98983800Y-96021400D03*
X97983800Y-96021400D03*
X96983800Y-96021400D03*
%TD*%
D10*
%TO.P,GND2,1,1*%
%TO.N,GND*%
X123850400Y-44323000D03*
%TD*%
%TO.P,TEMP2,1,1*%
%TO.N,/IC3_TEMP*%
X66878200Y-63550800D03*
%TD*%
D14*
%TO.P,GND1,1*%
%TO.N,GND*%
X113047500Y-113416900D03*
D12*
%TO.P,GND1,2*%
X118127500Y-113416900D03*
%TD*%
D11*
%TO.P,GND3,1*%
%TO.N,GND*%
X116873300Y-44088500D03*
D12*
%TO.P,GND3,2*%
X111793300Y-44088500D03*
%TD*%
D19*
%TO.N,/Vin*%
X106070400Y-100838000D03*
D20*
%TO.N,GND*%
X120908600Y-90369950D03*
X107408600Y-48969950D03*
X120908600Y-56169950D03*
X110108600Y-78669950D03*
X115508600Y-78669950D03*
X117308600Y-86769950D03*
X69608600Y-54369950D03*
X68708600Y-75069950D03*
X92108600Y-55269950D03*
X82208600Y-90369950D03*
X67808600Y-66969950D03*
X120908600Y-55269950D03*
X76808600Y-81369950D03*
X126308600Y-92169950D03*
X65108600Y-66969950D03*
X102908600Y-41769950D03*
X127208600Y-86769950D03*
X117308600Y-91269950D03*
X120008600Y-83169950D03*
X83108600Y-91269950D03*
X87608600Y-84069950D03*
X120008600Y-56169950D03*
X66908600Y-67869950D03*
X69608600Y-67869950D03*
X67808600Y-59769950D03*
X118208600Y-57069950D03*
X83108600Y-82269950D03*
X64208600Y-55269950D03*
X105608600Y-48969950D03*
X104708600Y-41769950D03*
X84008600Y-92169950D03*
X113708600Y-48069950D03*
X84008600Y-93069950D03*
X70508600Y-63369950D03*
X119108600Y-85869950D03*
X106508600Y-46269950D03*
X104708600Y-48969950D03*
X116408600Y-48969950D03*
X104708600Y-43569950D03*
X66008600Y-75069950D03*
X123608600Y-84069950D03*
X126308600Y-93969950D03*
X96608600Y-54369950D03*
X96608600Y-62469950D03*
X118208600Y-85869950D03*
X127208600Y-63369950D03*
X119108600Y-78669950D03*
X75908600Y-84969950D03*
X85808600Y-90369950D03*
X83108600Y-88569950D03*
X120008600Y-76869950D03*
X75008600Y-84069950D03*
X127208600Y-83169950D03*
X65108600Y-93969950D03*
X120908600Y-54369950D03*
X104708600Y-42669950D03*
X75908600Y-91269950D03*
X123608600Y-85869950D03*
X122708600Y-74169950D03*
X66008600Y-80469950D03*
X102908600Y-46269950D03*
X85808600Y-80469950D03*
X69608600Y-55269950D03*
X95708600Y-66969950D03*
X75908600Y-86769950D03*
X126308600Y-87669950D03*
X118208600Y-80469950D03*
X106508600Y-43569950D03*
X111908600Y-48069950D03*
X70508600Y-92169950D03*
X120008600Y-45369950D03*
X111908600Y-77769950D03*
X66008600Y-79569950D03*
X70508600Y-86769950D03*
X65108600Y-63369950D03*
X119108600Y-56169950D03*
X120908600Y-43569950D03*
X115508600Y-48069950D03*
X110108600Y-46269950D03*
X120008600Y-47169950D03*
X84008600Y-75069950D03*
X66908600Y-75969950D03*
X119108600Y-89469950D03*
X95708600Y-58869950D03*
X119108600Y-84969950D03*
X84008600Y-89469950D03*
X93908600Y-58869950D03*
X75908600Y-81369950D03*
X85808600Y-74169950D03*
X72308600Y-90369950D03*
X127208600Y-91269950D03*
X67808600Y-76869950D03*
X75008600Y-83169950D03*
X123608600Y-88569950D03*
X113708600Y-77769950D03*
X98408600Y-54369950D03*
X126308600Y-84069950D03*
X74108600Y-83169950D03*
X70508600Y-54369950D03*
X123608600Y-48069950D03*
X71408600Y-90369950D03*
X67808600Y-71469950D03*
X68708600Y-59769950D03*
X120908600Y-82269950D03*
X66008600Y-85869950D03*
X84908600Y-81369950D03*
X68708600Y-82269950D03*
X102008600Y-41769950D03*
X65108600Y-59769950D03*
X67808600Y-80469950D03*
X93908600Y-59769950D03*
X71408600Y-56169950D03*
X73208600Y-87669950D03*
X122708600Y-50769950D03*
D19*
X100352500Y-89890600D03*
D20*
X67808600Y-56169950D03*
X119108600Y-83169950D03*
X102008600Y-48969950D03*
X79508600Y-74169950D03*
X126308600Y-48969950D03*
X102908600Y-48069950D03*
X68708600Y-86769950D03*
X69608600Y-85869950D03*
X127208600Y-68769950D03*
X64208600Y-93969950D03*
X67808600Y-61569950D03*
X75908600Y-83169950D03*
X65108600Y-91269950D03*
X67808600Y-83169950D03*
X127208600Y-72369950D03*
X72308600Y-84069950D03*
X98408600Y-58869950D03*
X82208600Y-80469950D03*
X80408600Y-81369950D03*
X65108600Y-80469950D03*
X118208600Y-83169950D03*
X123608600Y-76869950D03*
X83108600Y-75069950D03*
X64208600Y-54369950D03*
X67808600Y-81369950D03*
X79508600Y-84969950D03*
X123608600Y-74169950D03*
X122708600Y-49869950D03*
X76808600Y-80469950D03*
X75008600Y-54369950D03*
X68708600Y-63369950D03*
X108308600Y-43569950D03*
X71408600Y-86769950D03*
X119108600Y-50769950D03*
X93908600Y-57969950D03*
X71408600Y-80469950D03*
X120008600Y-42669950D03*
X122708600Y-54369950D03*
X70508600Y-87669950D03*
X68708600Y-76869950D03*
X120908600Y-76869950D03*
X73208600Y-83169950D03*
X116408600Y-50769950D03*
X68708600Y-57069950D03*
X68708600Y-84069950D03*
X69608600Y-58869950D03*
X75008600Y-87669950D03*
X70508600Y-62469950D03*
X69608600Y-93969950D03*
X98408600Y-55269950D03*
X70508600Y-59769950D03*
X117308600Y-85869950D03*
X101108600Y-42669950D03*
X124508600Y-76869950D03*
X74108600Y-84969950D03*
X70508600Y-90369950D03*
X97508600Y-66969950D03*
X94808600Y-72369950D03*
X117308600Y-49869950D03*
X78608600Y-83169950D03*
X116408600Y-48069950D03*
X79508600Y-75069950D03*
X117308600Y-54369950D03*
X113708600Y-47169950D03*
X118208600Y-48969950D03*
X66908600Y-74169950D03*
X94808600Y-57069950D03*
X119108600Y-86769950D03*
X111908600Y-48969950D03*
X68708600Y-60669950D03*
X120008600Y-84969950D03*
X120008600Y-41769950D03*
X119108600Y-79569950D03*
X94808600Y-71469950D03*
X127208600Y-93969950D03*
X126308600Y-90369950D03*
X66908600Y-88569950D03*
X126308600Y-83169950D03*
X120908600Y-49869950D03*
X68708600Y-58869950D03*
X70508600Y-64269950D03*
X120008600Y-82269950D03*
X93908600Y-72369950D03*
X114608600Y-45369950D03*
X78608600Y-91269950D03*
X127208600Y-71469950D03*
X110108600Y-77769950D03*
X120008600Y-88569950D03*
X124508600Y-48969950D03*
X69608600Y-62469950D03*
X72308600Y-86769950D03*
X120908600Y-85869950D03*
X68708600Y-80469950D03*
X118208600Y-88569950D03*
X66908600Y-57969950D03*
X125408600Y-57969950D03*
X82208600Y-82269950D03*
X79508600Y-90369950D03*
X105608600Y-48069950D03*
X66008600Y-84969950D03*
X69608600Y-60669950D03*
X118208600Y-49869950D03*
X107408600Y-45369950D03*
X104708600Y-47169950D03*
X124508600Y-58869950D03*
X105608600Y-47169950D03*
X118208600Y-55269950D03*
X121808600Y-47169950D03*
X68708600Y-61569950D03*
X72308600Y-81369950D03*
X110108600Y-41769950D03*
X66008600Y-84069950D03*
X77708600Y-92169950D03*
X124508600Y-57969950D03*
X83108600Y-90369950D03*
X84908600Y-93969950D03*
X126308600Y-43569950D03*
X79508600Y-84069950D03*
X71408600Y-84969950D03*
X81308600Y-84069950D03*
X69608600Y-87669950D03*
X120008600Y-89469950D03*
X121808600Y-55269950D03*
X126308600Y-89469950D03*
X103808600Y-45369950D03*
X121808600Y-46269950D03*
X119108600Y-43569950D03*
X126308600Y-45369950D03*
X127208600Y-48069950D03*
X108308600Y-47169950D03*
X119108600Y-55269950D03*
X68708600Y-81369950D03*
X118208600Y-51669950D03*
X113708600Y-43569950D03*
X66908600Y-78669950D03*
X119108600Y-76869950D03*
X117308600Y-79569950D03*
X70508600Y-82269950D03*
X118208600Y-91269950D03*
X121808600Y-44469950D03*
X114608600Y-47169950D03*
X71408600Y-84069950D03*
X111908600Y-76869950D03*
X71408600Y-85869950D03*
X119108600Y-48969950D03*
X65108600Y-72369950D03*
X70508600Y-61569950D03*
X103808600Y-48969950D03*
X68708600Y-55269950D03*
X113708600Y-78669950D03*
X66008600Y-75969950D03*
X79508600Y-92169950D03*
X120008600Y-77769950D03*
X77708600Y-91269950D03*
X64208600Y-92169950D03*
X111008600Y-48969950D03*
X126308600Y-88569950D03*
X84008600Y-74169950D03*
X123608600Y-41769950D03*
X82208600Y-91269950D03*
X94808600Y-59769950D03*
X73208600Y-84069950D03*
X111008600Y-47169950D03*
X66008600Y-78669950D03*
X80408600Y-75069950D03*
X118208600Y-76869950D03*
X68708600Y-87669950D03*
X120008600Y-84069950D03*
X74108600Y-86769950D03*
X80408600Y-85869950D03*
X119108600Y-87669950D03*
X83108600Y-93969950D03*
X93008600Y-56169950D03*
X109208600Y-45369950D03*
X91208600Y-56169950D03*
X84008600Y-88569950D03*
X67808600Y-85869950D03*
X109208600Y-41769950D03*
X123608600Y-50769950D03*
X84908600Y-74169950D03*
X118208600Y-86769950D03*
X112808600Y-48069950D03*
X97508600Y-57069950D03*
X105608600Y-42669950D03*
X127208600Y-73269950D03*
X78608600Y-81369950D03*
X95708600Y-55269950D03*
X80408600Y-83169950D03*
D19*
X103276400Y-110769400D03*
D20*
X108308600Y-41769950D03*
X64208600Y-90369950D03*
X69608600Y-64269950D03*
X92108600Y-56169950D03*
X83108600Y-81369950D03*
X72308600Y-91269950D03*
X124508600Y-90369950D03*
X93908600Y-66969950D03*
X119108600Y-49869950D03*
X65108600Y-64269950D03*
X81308600Y-80469950D03*
X102008600Y-46269950D03*
X118208600Y-78669950D03*
X80408600Y-92169950D03*
X114608600Y-78669950D03*
X69608600Y-75969950D03*
X68708600Y-78669950D03*
X68708600Y-56169950D03*
X120908600Y-45369950D03*
X122708600Y-51669950D03*
X117308600Y-48969950D03*
X84908600Y-89469950D03*
X81308600Y-84969950D03*
X66008600Y-81369950D03*
X123608600Y-77769950D03*
X71408600Y-59769950D03*
X123608600Y-79569950D03*
X108308600Y-48069950D03*
X72308600Y-87669950D03*
X80408600Y-80469950D03*
X101108600Y-48969950D03*
X120908600Y-83169950D03*
X112808600Y-47169950D03*
X80408600Y-90369950D03*
X117308600Y-80469950D03*
X109208600Y-42669950D03*
X120008600Y-48969950D03*
X120008600Y-54369950D03*
X83108600Y-74169950D03*
X111008600Y-78669950D03*
X124508600Y-80469950D03*
X98408600Y-59769950D03*
D19*
X90805000Y-108356400D03*
D20*
X75008600Y-84969950D03*
X120908600Y-84069950D03*
X121808600Y-50769950D03*
X123608600Y-48969950D03*
X111008600Y-77769950D03*
X65108600Y-54369950D03*
X105608600Y-41769950D03*
X76808600Y-90369950D03*
X114608600Y-42669950D03*
X105608600Y-43569950D03*
X65108600Y-60669950D03*
X119108600Y-80469950D03*
X99308600Y-72369950D03*
X103808600Y-44469950D03*
X127208600Y-60669950D03*
X69608600Y-63369950D03*
X66908600Y-83169950D03*
X110108600Y-48069950D03*
X80408600Y-82269950D03*
X119108600Y-41769950D03*
X102908600Y-48969950D03*
X75008600Y-81369950D03*
X80408600Y-84969950D03*
X66008600Y-77769950D03*
X117308600Y-90369950D03*
X120908600Y-41769950D03*
X98408600Y-62469950D03*
X120908600Y-78669950D03*
X84008600Y-82269950D03*
X117308600Y-55269950D03*
X65108600Y-74169950D03*
X82208600Y-75069950D03*
X71408600Y-81369950D03*
X70508600Y-83169950D03*
X123608600Y-87669950D03*
X113708600Y-42669950D03*
X97508600Y-58869950D03*
X117308600Y-57069950D03*
X84008600Y-91269950D03*
X127208600Y-90369950D03*
X121808600Y-51669950D03*
X120008600Y-87669950D03*
X65108600Y-84069950D03*
X77708600Y-86769950D03*
X127208600Y-64269950D03*
X81308600Y-90369950D03*
X117308600Y-47169950D03*
X65108600Y-82269950D03*
X82208600Y-84069950D03*
X97508600Y-62469950D03*
X91208600Y-80469950D03*
X73208600Y-86769950D03*
X120008600Y-57069950D03*
X82208600Y-89469950D03*
X119108600Y-48069950D03*
X70508600Y-57969950D03*
X66908600Y-61569950D03*
X77708600Y-80469950D03*
X84908600Y-75069950D03*
X120008600Y-51669950D03*
X122708600Y-55269950D03*
X70508600Y-65169950D03*
X120908600Y-51669950D03*
X123608600Y-89469950D03*
X112808600Y-78669950D03*
X126308600Y-44469950D03*
X121808600Y-74169950D03*
X69608600Y-83169950D03*
X105608600Y-44469950D03*
X77708600Y-82269950D03*
X70508600Y-60669950D03*
X66008600Y-58869950D03*
X120908600Y-44469950D03*
X127208600Y-84069950D03*
X95708600Y-56169950D03*
X117308600Y-87669950D03*
X121808600Y-48969950D03*
X125408600Y-92169950D03*
X108308600Y-45369950D03*
X66908600Y-60669950D03*
X97508600Y-55269950D03*
X102008600Y-47169950D03*
X70508600Y-55269950D03*
X112808600Y-48969950D03*
X123608600Y-55269950D03*
X65108600Y-83169950D03*
X76808600Y-84969950D03*
X79508600Y-91269950D03*
X116408600Y-56169950D03*
X69608600Y-81369950D03*
X67808600Y-74169950D03*
X85808600Y-75069950D03*
X93008600Y-54369950D03*
X70508600Y-56169950D03*
X84908600Y-92169950D03*
X97508600Y-56169950D03*
X127208600Y-47169950D03*
X106508600Y-44469950D03*
X124508600Y-84069950D03*
X69608600Y-59769950D03*
X101108600Y-41769950D03*
X121808600Y-49869950D03*
X65108600Y-93069950D03*
X126308600Y-84969950D03*
X83108600Y-83169950D03*
X65108600Y-66069950D03*
X118208600Y-84969950D03*
X127208600Y-70569950D03*
X120908600Y-50769950D03*
X118208600Y-77769950D03*
X125408600Y-93069950D03*
X79508600Y-82269950D03*
X123608600Y-46269950D03*
X120908600Y-81369950D03*
X69608600Y-82269950D03*
X118208600Y-87669950D03*
X103808600Y-42669950D03*
X119108600Y-90369950D03*
X78608600Y-84069950D03*
X119108600Y-57069950D03*
X127208600Y-58869950D03*
X93908600Y-54369950D03*
X66008600Y-83169950D03*
X111908600Y-47169950D03*
X66908600Y-82269950D03*
X65108600Y-75069950D03*
X65108600Y-61569950D03*
X109208600Y-48069950D03*
X120008600Y-79569950D03*
X84908600Y-93069950D03*
X84908600Y-91269950D03*
X70508600Y-81369950D03*
X119108600Y-91269950D03*
X102008600Y-48069950D03*
X77708600Y-84969950D03*
X74108600Y-87669950D03*
X120008600Y-50769950D03*
X117308600Y-78669950D03*
X102908600Y-42669950D03*
X64208600Y-93069950D03*
X107408600Y-73269950D03*
X119108600Y-47169950D03*
X65108600Y-76869950D03*
X106508600Y-42669950D03*
X105608600Y-45369950D03*
X127208600Y-67869950D03*
X86708600Y-84969950D03*
X66908600Y-79569950D03*
X124508600Y-89469950D03*
X70508600Y-84969950D03*
X117308600Y-88569950D03*
X67808600Y-67869950D03*
X67808600Y-75969950D03*
X77708600Y-87669950D03*
X67808600Y-58869950D03*
X81308600Y-74169950D03*
X79508600Y-85869950D03*
X122708600Y-47169950D03*
X67808600Y-75069950D03*
X94808600Y-57969950D03*
X92108600Y-57069950D03*
X114608600Y-48069950D03*
X101108600Y-48069950D03*
X65108600Y-68769950D03*
X69608600Y-84969950D03*
X127208600Y-65169950D03*
X94808600Y-54369950D03*
X72308600Y-80469950D03*
X118208600Y-92169950D03*
X105608600Y-46269950D03*
X113708600Y-46269950D03*
X69608600Y-57069950D03*
X108308600Y-73269950D03*
X78608600Y-87669950D03*
X84008600Y-87669950D03*
X108308600Y-42669950D03*
X69608600Y-78669950D03*
X74108600Y-82269950D03*
X65108600Y-75969950D03*
X94808600Y-58869950D03*
X66908600Y-73269950D03*
X96608600Y-58869950D03*
X123608600Y-83169950D03*
X120908600Y-86769950D03*
X98408600Y-56169950D03*
X120908600Y-88569950D03*
X85808600Y-88569950D03*
X97508600Y-54369950D03*
X85808600Y-93069950D03*
X92108600Y-54369950D03*
X65108600Y-70569950D03*
X77708600Y-83169950D03*
X66008600Y-71469950D03*
X113708600Y-41769950D03*
X127208600Y-84969950D03*
X116408600Y-54369950D03*
X70508600Y-84069950D03*
X94808600Y-55269950D03*
X115508600Y-48969950D03*
X127208600Y-61569950D03*
X75008600Y-82269950D03*
X75908600Y-54369950D03*
X125408600Y-85869950D03*
X98408600Y-57069950D03*
X123608600Y-90369950D03*
X79508600Y-80469950D03*
X124508600Y-50769950D03*
X108308600Y-44469950D03*
X125408600Y-84969950D03*
X66908600Y-59769950D03*
X113708600Y-44469950D03*
X81308600Y-83169950D03*
X125408600Y-47169950D03*
X79508600Y-83169950D03*
X95708600Y-59769950D03*
X68708600Y-62469950D03*
X64208600Y-91269950D03*
X65108600Y-65169950D03*
X114608600Y-44469950D03*
X96608600Y-56169950D03*
X66908600Y-86769950D03*
X121808600Y-48069950D03*
X122708600Y-48969950D03*
X117308600Y-84969950D03*
X66908600Y-71469950D03*
X97508600Y-71469950D03*
X85808600Y-92169950D03*
X73208600Y-80469950D03*
X124508600Y-85869950D03*
X75008600Y-86769950D03*
X123608600Y-47169950D03*
X93908600Y-55269950D03*
X71408600Y-83169950D03*
X70508600Y-80469950D03*
X124508600Y-77769950D03*
X121808600Y-41769950D03*
X67808600Y-72369950D03*
X66008600Y-76869950D03*
X66008600Y-74169950D03*
X123608600Y-80469950D03*
X72308600Y-92169950D03*
X97508600Y-67869950D03*
X71408600Y-87669950D03*
X66908600Y-66969950D03*
X72308600Y-84969950D03*
X123608600Y-82269950D03*
X65108600Y-73269950D03*
X66008600Y-59769950D03*
X124508600Y-79569950D03*
X72308600Y-83169950D03*
X122708600Y-46269950D03*
X72308600Y-54369950D03*
X66908600Y-84069950D03*
X124508600Y-55269950D03*
X120908600Y-89469950D03*
X98408600Y-67869950D03*
X126308600Y-91269950D03*
X119108600Y-42669950D03*
X113708600Y-48969950D03*
X81308600Y-91269950D03*
X124508600Y-83169950D03*
X117308600Y-83169950D03*
X65108600Y-79569950D03*
X124508600Y-81369950D03*
X67808600Y-79569950D03*
X107408600Y-48069950D03*
X67808600Y-84069950D03*
X102008600Y-42669950D03*
X124508600Y-84969950D03*
X70508600Y-58869950D03*
X71408600Y-92169950D03*
X126308600Y-47169950D03*
X125408600Y-87669950D03*
X120908600Y-74169950D03*
X126308600Y-85869950D03*
X72308600Y-85869950D03*
X69608600Y-79569950D03*
X70508600Y-57069950D03*
X75908600Y-85869950D03*
X69608600Y-75069950D03*
X66008600Y-61569950D03*
X114608600Y-48969950D03*
X86708600Y-93969950D03*
X77708600Y-81369950D03*
X123608600Y-81369950D03*
X120908600Y-47169950D03*
X120908600Y-87669950D03*
X71408600Y-93069950D03*
X72308600Y-93069950D03*
X98408600Y-72369950D03*
X102908600Y-47169950D03*
X65108600Y-67869950D03*
X84008600Y-93969950D03*
X75008600Y-80469950D03*
X75908600Y-84069950D03*
X124508600Y-82269950D03*
X127208600Y-85869950D03*
X109208600Y-48969950D03*
X70508600Y-85869950D03*
X68708600Y-84969950D03*
X124508600Y-74169950D03*
X124508600Y-88569950D03*
X85808600Y-93969950D03*
X116408600Y-78669950D03*
X75908600Y-80469950D03*
D19*
X93766500Y-98399600D03*
D20*
X76808600Y-82269950D03*
X126308600Y-46269950D03*
X125408600Y-41769950D03*
X117308600Y-89469950D03*
X119108600Y-81369950D03*
X84908600Y-88569950D03*
X118208600Y-84069950D03*
X125408600Y-90369950D03*
X94808600Y-56169950D03*
X117308600Y-50769950D03*
X95708600Y-57969950D03*
X71408600Y-57969950D03*
X127208600Y-92169950D03*
X77708600Y-90369950D03*
X125408600Y-48069950D03*
X119108600Y-45369950D03*
X70508600Y-93969950D03*
X64208600Y-94869950D03*
X116408600Y-51669950D03*
X67808600Y-73269950D03*
X124508600Y-86769950D03*
X84008600Y-80469950D03*
X125408600Y-83169950D03*
X81308600Y-93069950D03*
X69608600Y-76869950D03*
D19*
X103632000Y-100203000D03*
D20*
X112808600Y-77769950D03*
X111008600Y-48069950D03*
X65108600Y-62469950D03*
X80408600Y-93069950D03*
X83108600Y-92169950D03*
X127208600Y-62469950D03*
X81308600Y-75069950D03*
X103808600Y-41769950D03*
X116408600Y-49869950D03*
X100208600Y-59769950D03*
X118208600Y-54369950D03*
X67808600Y-86769950D03*
X66008600Y-73269950D03*
X84908600Y-80469950D03*
X117308600Y-81369950D03*
X91208600Y-88569950D03*
X109208600Y-77769950D03*
X118208600Y-56169950D03*
X86708600Y-93069950D03*
X120908600Y-57069950D03*
X123608600Y-51669950D03*
X120908600Y-77769950D03*
X119108600Y-84069950D03*
X94808600Y-66969950D03*
X120008600Y-49869950D03*
X83108600Y-93069950D03*
X66008600Y-72369950D03*
X84008600Y-81369950D03*
X124508600Y-41769950D03*
X120908600Y-79569950D03*
X107408600Y-46269950D03*
X76808600Y-92169950D03*
X120008600Y-86769950D03*
X69608600Y-86769950D03*
X78608600Y-84969950D03*
X120008600Y-44469950D03*
X69608600Y-92169950D03*
X83108600Y-80469950D03*
X74108600Y-80469950D03*
X120008600Y-81369950D03*
X125408600Y-89469950D03*
X81308600Y-93969950D03*
X127208600Y-93069950D03*
X114608600Y-46269950D03*
X93908600Y-56169950D03*
X119108600Y-88569950D03*
X110108600Y-48969950D03*
X119108600Y-44469950D03*
X106508600Y-48069950D03*
X125408600Y-76869950D03*
X104708600Y-48069950D03*
X69608600Y-84069950D03*
X119108600Y-77769950D03*
X67808600Y-87669950D03*
X65108600Y-92169950D03*
X71408600Y-58869950D03*
X117308600Y-56169950D03*
X73208600Y-81369950D03*
X73208600Y-93969950D03*
X119108600Y-54369950D03*
X114608600Y-41769950D03*
X95708600Y-72369950D03*
X101108600Y-47169950D03*
X120008600Y-46269950D03*
X87608600Y-84969950D03*
X109208600Y-47169950D03*
X82208600Y-74169950D03*
X66908600Y-57069950D03*
X124508600Y-54369950D03*
X120008600Y-85869950D03*
X120908600Y-84969950D03*
X66008600Y-87669950D03*
X94808600Y-67869950D03*
X75908600Y-90369950D03*
X81308600Y-92169950D03*
X95708600Y-71469950D03*
X120008600Y-43569950D03*
X69608600Y-57969950D03*
X106508600Y-41769950D03*
X97508600Y-57969950D03*
X121808600Y-45369950D03*
X70508600Y-93069950D03*
X124508600Y-78669950D03*
X66908600Y-75069950D03*
X126308600Y-42669950D03*
X76808600Y-86769950D03*
X65108600Y-86769950D03*
X67808600Y-57069950D03*
X117308600Y-51669950D03*
X67808600Y-82269950D03*
X75008600Y-85869950D03*
X96608600Y-66969950D03*
X76808600Y-87669950D03*
X127208600Y-66069950D03*
X127208600Y-46269950D03*
X125408600Y-88569950D03*
X96608600Y-59769950D03*
X66908600Y-85869950D03*
X120908600Y-42669950D03*
X107408600Y-41769950D03*
X82208600Y-81369950D03*
X103808600Y-48069950D03*
X127208600Y-59769950D03*
X99308600Y-59769950D03*
X103808600Y-46269950D03*
X79508600Y-81369950D03*
X66908600Y-77769950D03*
X66908600Y-66069950D03*
X96608600Y-57969950D03*
X72308600Y-82269950D03*
X117308600Y-82269950D03*
X103808600Y-47169950D03*
X123608600Y-54369950D03*
X120908600Y-46269950D03*
X68708600Y-79569950D03*
X109208600Y-78669950D03*
X67808600Y-77769950D03*
X71408600Y-55269950D03*
X71408600Y-93969950D03*
X107408600Y-47169950D03*
X93908600Y-66069950D03*
X108308600Y-46269950D03*
X126308600Y-58869950D03*
X78608600Y-80469950D03*
X69608600Y-93069950D03*
X78608600Y-90369950D03*
X82208600Y-83169950D03*
X75908600Y-87669950D03*
X97508600Y-59769950D03*
X126308600Y-93069950D03*
X74108600Y-81369950D03*
X127208600Y-69669950D03*
X66908600Y-58869950D03*
X67808600Y-60669950D03*
X66008600Y-60669950D03*
X93908600Y-67869950D03*
X69608600Y-77769950D03*
X96608600Y-71469950D03*
X68708600Y-67869950D03*
X81308600Y-82269950D03*
X80408600Y-91269950D03*
X96608600Y-57069950D03*
X66008600Y-67869950D03*
X120008600Y-80469950D03*
X66008600Y-57969950D03*
X127208600Y-43569950D03*
X84008600Y-90369950D03*
X122708600Y-41769950D03*
X106508600Y-45369950D03*
X120008600Y-55269950D03*
X73208600Y-54369950D03*
X82208600Y-93069950D03*
X93908600Y-71469950D03*
X118208600Y-47169950D03*
X65108600Y-84969950D03*
X125408600Y-91269950D03*
X78608600Y-82269950D03*
X117308600Y-84069950D03*
X125408600Y-93969950D03*
X85808600Y-91269950D03*
X84908600Y-90369950D03*
X124508600Y-87669950D03*
X66008600Y-86769950D03*
X109208600Y-46269950D03*
X127208600Y-89469950D03*
X125408600Y-58869950D03*
X74108600Y-54369950D03*
X66908600Y-76869950D03*
X107408600Y-42669950D03*
X77708600Y-85869950D03*
X119108600Y-46269950D03*
X78608600Y-86769950D03*
X96608600Y-67869950D03*
X68708600Y-83169950D03*
X71408600Y-91269950D03*
X73208600Y-84969950D03*
X116408600Y-55269950D03*
X111908600Y-78669950D03*
X124508600Y-51669950D03*
X86708600Y-75069950D03*
X103808600Y-43569950D03*
X65108600Y-81369950D03*
X71408600Y-57069950D03*
X106508600Y-47169950D03*
X81308600Y-81369950D03*
X68708600Y-77769950D03*
X78608600Y-92169950D03*
X65108600Y-58869950D03*
X75908600Y-82269950D03*
X71408600Y-54369950D03*
X95708600Y-57069950D03*
X107408600Y-44469950D03*
X76808600Y-85869950D03*
X101108600Y-46269950D03*
X80408600Y-84069950D03*
X124508600Y-47169950D03*
X74108600Y-84069950D03*
X114608600Y-43569950D03*
X68708600Y-57969950D03*
X120908600Y-48969950D03*
X119108600Y-82269950D03*
X77708600Y-84069950D03*
X116408600Y-47169950D03*
X126308600Y-86769950D03*
X79508600Y-86769950D03*
X116408600Y-57069950D03*
X66908600Y-87669950D03*
X113708600Y-45369950D03*
X118208600Y-90369950D03*
X85808600Y-89469950D03*
X69608600Y-91269950D03*
X72308600Y-93969950D03*
X91208600Y-57069950D03*
X96608600Y-55269950D03*
X121808600Y-54369950D03*
X115508600Y-47169950D03*
X126308600Y-41769950D03*
X78608600Y-85869950D03*
X65108600Y-69669950D03*
X67808600Y-78669950D03*
X120908600Y-48069950D03*
X118208600Y-48069950D03*
X82208600Y-93969950D03*
X95708600Y-67869950D03*
X110108600Y-47169950D03*
X93008600Y-55269950D03*
X66908600Y-81369950D03*
X98408600Y-57969950D03*
X66008600Y-66069950D03*
X65108600Y-78669950D03*
X66008600Y-66969950D03*
X97508600Y-72369950D03*
X120008600Y-90369950D03*
X104708600Y-44469950D03*
X109208600Y-43569950D03*
X121808600Y-42669950D03*
X86708600Y-74169950D03*
X123608600Y-78669950D03*
X125408600Y-84069950D03*
X65108600Y-77769950D03*
X127208600Y-45369950D03*
X95708600Y-54369950D03*
X70508600Y-91269950D03*
X69608600Y-61569950D03*
X67808600Y-57969950D03*
X118208600Y-81369950D03*
X66908600Y-80469950D03*
X127208600Y-48969950D03*
X118208600Y-82269950D03*
X120908600Y-80469950D03*
X120008600Y-48069950D03*
X117308600Y-92169950D03*
D19*
X91635088Y-99449480D03*
D20*
X98408600Y-66969950D03*
X82208600Y-92169950D03*
X74108600Y-85869950D03*
X124508600Y-48069950D03*
X123608600Y-84969950D03*
X123608600Y-86769950D03*
X76808600Y-83169950D03*
X93908600Y-57069950D03*
X123608600Y-49869950D03*
X93008600Y-57069950D03*
X66908600Y-72369950D03*
X65108600Y-71469950D03*
X76808600Y-91269950D03*
X69608600Y-80469950D03*
X127208600Y-87669950D03*
X125408600Y-48969950D03*
X126308600Y-48069950D03*
X104708600Y-46269950D03*
X127208600Y-88569950D03*
X65108600Y-85869950D03*
X118208600Y-79569950D03*
X73208600Y-85869950D03*
X68708600Y-85869950D03*
X71408600Y-82269950D03*
X66908600Y-84969950D03*
X120008600Y-78669950D03*
X127208600Y-44469950D03*
X96608600Y-72369950D03*
X69608600Y-56169950D03*
X127208600Y-66969950D03*
X67808600Y-84969950D03*
X108308600Y-48969950D03*
X125408600Y-86769950D03*
X107408600Y-43569950D03*
X66008600Y-82269950D03*
X124508600Y-49869950D03*
X127208600Y-42669950D03*
X68708600Y-75969950D03*
X73208600Y-82269950D03*
X119108600Y-51669950D03*
X117308600Y-48069950D03*
X127208600Y-41769950D03*
X83108600Y-89469950D03*
X76808600Y-84069950D03*
X125408600Y-74169950D03*
X122708600Y-48069950D03*
X104708600Y-45369950D03*
X80408600Y-74169950D03*
X106508600Y-48969950D03*
X118208600Y-89469950D03*
X121808600Y-43569950D03*
X118208600Y-50769950D03*
X109208600Y-44469950D03*
D19*
%TO.N,/INTVCC*%
X105968800Y-98983800D03*
X97733800Y-91084400D03*
X94787026Y-97169927D03*
X90855800Y-106019600D03*
D20*
%TO.N,/SW*%
X113708600Y-80469950D03*
X110108600Y-93969950D03*
X113708600Y-90369950D03*
X112808600Y-93969950D03*
D19*
X101498400Y-93522800D03*
D20*
X113708600Y-93069950D03*
X111008600Y-93969950D03*
X104708600Y-93969950D03*
X108308600Y-93069950D03*
X114608600Y-91269950D03*
X105608600Y-93969950D03*
X110108600Y-93069950D03*
X102908600Y-93069950D03*
X111908600Y-93069950D03*
X114608600Y-87669950D03*
X114608600Y-82269950D03*
X107408600Y-93069950D03*
X103808600Y-93969950D03*
X113708600Y-92169950D03*
X114608600Y-92169950D03*
X113708600Y-81369950D03*
X114608600Y-81369950D03*
X107408600Y-93969950D03*
X105608600Y-93069950D03*
X109208600Y-93069950D03*
X114608600Y-80469950D03*
X111908600Y-93969950D03*
X113708600Y-91269950D03*
X111008600Y-93069950D03*
X106508600Y-93969950D03*
X114608600Y-90369950D03*
X104708600Y-93069950D03*
X113708600Y-82269950D03*
D19*
X102844600Y-93980000D03*
D20*
X108308600Y-93969950D03*
X106508600Y-93069950D03*
X109208600Y-93969950D03*
X112808600Y-93069950D03*
X103808600Y-93069950D03*
D19*
X102362000Y-92176600D03*
D20*
X113708600Y-93969950D03*
X114608600Y-84969950D03*
%TO.N,Net-(C8-+)*%
X102908600Y-72369950D03*
X71408600Y-76869950D03*
X100208600Y-86769950D03*
X72308600Y-78669950D03*
X94808600Y-80469950D03*
X72308600Y-75969950D03*
X72308600Y-75069950D03*
X75908600Y-78669950D03*
X75908600Y-74169950D03*
X105608600Y-80469950D03*
X79508600Y-78669950D03*
X93908600Y-80469950D03*
X102008600Y-87669950D03*
X75008600Y-73269950D03*
X101108600Y-85869950D03*
X105608600Y-78669950D03*
X97508600Y-80469950D03*
D19*
X92633800Y-78816200D03*
D20*
X85808600Y-77769950D03*
X102908600Y-77769950D03*
X95708600Y-80469950D03*
X80408600Y-76869950D03*
X82208600Y-78669950D03*
X104708600Y-79569950D03*
X96608600Y-83169950D03*
X72308600Y-77769950D03*
X78608600Y-76869950D03*
X102908600Y-73269950D03*
X102008600Y-84069950D03*
X77708600Y-78669950D03*
X99308600Y-87669950D03*
X99308600Y-81369950D03*
X95708600Y-81369950D03*
D19*
X91643200Y-78917800D03*
D20*
X102908600Y-79569950D03*
X76808600Y-76869950D03*
X75008600Y-71469950D03*
X100208600Y-82269950D03*
X96608600Y-81369950D03*
X99308600Y-84969950D03*
X104708600Y-81369950D03*
X104708600Y-78669950D03*
X84908600Y-78669950D03*
X75008600Y-72369950D03*
X73208600Y-78669950D03*
X103808600Y-82269950D03*
X95708600Y-79569950D03*
X75008600Y-74169950D03*
X86708600Y-76869950D03*
X100208600Y-79569950D03*
X84008600Y-78669950D03*
X75908600Y-75969950D03*
X104708600Y-84969950D03*
D19*
X90652600Y-78943200D03*
D20*
X102008600Y-82269950D03*
X78608600Y-78669950D03*
D19*
X89636600Y-78917800D03*
D20*
X105608600Y-73269950D03*
X99308600Y-79569950D03*
X97508600Y-84069950D03*
X93008600Y-80469950D03*
X97508600Y-81369950D03*
X98408600Y-80469950D03*
X105608600Y-82269950D03*
X97508600Y-84969950D03*
X102908600Y-81369950D03*
X103808600Y-73269950D03*
X99308600Y-84069950D03*
X81308600Y-78669950D03*
X100208600Y-84969950D03*
X99308600Y-85869950D03*
X97508600Y-83169950D03*
X83108600Y-76869950D03*
X75008600Y-75969950D03*
X79508600Y-76869950D03*
X101108600Y-83169950D03*
X80408600Y-78669950D03*
X85808600Y-78669950D03*
X74108600Y-75969950D03*
X71408600Y-78669950D03*
X100208600Y-85869950D03*
X100208600Y-83169950D03*
X82208600Y-77769950D03*
X85808600Y-76869950D03*
X97508600Y-85869950D03*
X103808600Y-72369950D03*
X101108600Y-81369950D03*
X102008600Y-84969950D03*
X102008600Y-85869950D03*
X102908600Y-80469950D03*
X103808600Y-81369950D03*
X98408600Y-84069950D03*
X102008600Y-83169950D03*
X77708600Y-76869950D03*
X98408600Y-84969950D03*
X98408600Y-81369950D03*
X104708600Y-72369950D03*
X80408600Y-77769950D03*
X96608600Y-80469950D03*
X98408600Y-83169950D03*
X103808600Y-79569950D03*
X105608600Y-79569950D03*
X75008600Y-75069950D03*
X71408600Y-75969950D03*
X82208600Y-76869950D03*
X86708600Y-77769950D03*
X73208600Y-77769950D03*
X74108600Y-75069950D03*
X99308600Y-86769950D03*
X104708600Y-77769950D03*
X77708600Y-77769950D03*
X96608600Y-79569950D03*
X103808600Y-77769950D03*
X104708600Y-80469950D03*
X81308600Y-76869950D03*
X74108600Y-78669950D03*
X73208600Y-76869950D03*
X101108600Y-84069950D03*
X97508600Y-79569950D03*
X105608600Y-77769950D03*
X79508600Y-77769950D03*
X102908600Y-78669950D03*
X84008600Y-76869950D03*
X103808600Y-78669950D03*
X97508600Y-82269950D03*
X101108600Y-82269950D03*
X105608600Y-81369950D03*
X94808600Y-79569950D03*
X75908600Y-75069950D03*
X106508600Y-78669950D03*
D19*
X88671400Y-78917800D03*
D20*
X84008600Y-77769950D03*
X101108600Y-87669950D03*
X78608600Y-77769950D03*
X101108600Y-86769950D03*
X83108600Y-77769950D03*
X75908600Y-77769950D03*
X75008600Y-76869950D03*
X86708600Y-78669950D03*
X98408600Y-87669950D03*
X74108600Y-76869950D03*
X99308600Y-80469950D03*
X84908600Y-77769950D03*
X72308600Y-76869950D03*
X98408600Y-79569950D03*
X101108600Y-84969950D03*
X102908600Y-82269950D03*
X73208600Y-75069950D03*
X81308600Y-77769950D03*
X100208600Y-84069950D03*
X98408600Y-85869950D03*
X102008600Y-79569950D03*
X104708600Y-73269950D03*
X75908600Y-72369950D03*
X83108600Y-78669950D03*
X71408600Y-75069950D03*
X93008600Y-79569950D03*
X95708600Y-82269950D03*
X101108600Y-80469950D03*
X75008600Y-77769950D03*
X76808600Y-78669950D03*
X75908600Y-73269950D03*
X102008600Y-86769950D03*
X84908600Y-76869950D03*
X73208600Y-75969950D03*
X105608600Y-72369950D03*
X75908600Y-76869950D03*
X71408600Y-77769950D03*
X98408600Y-86769950D03*
X99308600Y-82269950D03*
X100208600Y-87669950D03*
X75908600Y-71469950D03*
X75008600Y-78669950D03*
X103808600Y-80469950D03*
X104708600Y-87669950D03*
X104708600Y-82269950D03*
X98408600Y-82269950D03*
X100208600Y-81369950D03*
X102008600Y-81369950D03*
X99308600Y-83169950D03*
X101108600Y-79569950D03*
X74108600Y-77769950D03*
X100208600Y-80469950D03*
X96608600Y-82269950D03*
D19*
X87655400Y-78867000D03*
D20*
X102008600Y-80469950D03*
X93908600Y-79569950D03*
X76808600Y-77769950D03*
D19*
%TO.N,Net-(Q4-C)*%
X92710000Y-86969600D03*
X89115300Y-93319600D03*
%TO.N,Net-(D2-A)*%
X76327000Y-62604600D03*
X103598100Y-63533900D03*
D20*
%TO.N,Net-(C20-Pad2)*%
X82208600Y-71469950D03*
X78608600Y-57069950D03*
X84008600Y-55269950D03*
X83108600Y-55269950D03*
X82208600Y-57069950D03*
X79508600Y-57069950D03*
X89408600Y-56169950D03*
X82208600Y-54369950D03*
X80408600Y-57969950D03*
X85808600Y-58869950D03*
X83108600Y-57969950D03*
X86708600Y-55269950D03*
X83108600Y-71469950D03*
X81308600Y-57069950D03*
X87608600Y-55269950D03*
X80408600Y-71469950D03*
X79508600Y-57969950D03*
X84008600Y-56169950D03*
X81308600Y-71469950D03*
X86708600Y-57969950D03*
X85808600Y-55269950D03*
X85808600Y-66969950D03*
X78608600Y-56169950D03*
X78608600Y-54369950D03*
X83108600Y-58869950D03*
X89408600Y-55269950D03*
X84908600Y-67869950D03*
X79508600Y-66969950D03*
X81308600Y-57969950D03*
X84008600Y-54369950D03*
X88508600Y-57069950D03*
X84008600Y-66969950D03*
X83108600Y-56169950D03*
X82208600Y-58869950D03*
X86708600Y-56169950D03*
X87608600Y-56169950D03*
X87608600Y-54369950D03*
X86708600Y-58869950D03*
X79508600Y-58869950D03*
X84908600Y-66969950D03*
X78608600Y-55269950D03*
X80408600Y-56169950D03*
X87608600Y-57069950D03*
X78608600Y-57969950D03*
X89408600Y-54369950D03*
X82208600Y-57969950D03*
X85808600Y-57969950D03*
X85808600Y-71469950D03*
X88508600Y-55269950D03*
X79508600Y-71469950D03*
X79508600Y-56169950D03*
X81308600Y-56169950D03*
X85808600Y-57069950D03*
X89408600Y-57069950D03*
X87608600Y-57969950D03*
X84908600Y-57969950D03*
X88508600Y-56169950D03*
X85808600Y-67869950D03*
X82208600Y-55269950D03*
X79508600Y-67869950D03*
X84008600Y-57969950D03*
X84908600Y-54369950D03*
X84008600Y-71469950D03*
X86708600Y-66969950D03*
X84008600Y-67869950D03*
X86708600Y-57069950D03*
X80408600Y-57069950D03*
X85808600Y-56169950D03*
X80408600Y-58869950D03*
X82208600Y-56169950D03*
X85808600Y-54369950D03*
X81308600Y-58869950D03*
X84908600Y-71469950D03*
X86708600Y-54369950D03*
X84908600Y-56169950D03*
X83108600Y-54369950D03*
X84908600Y-58869950D03*
X83108600Y-57069950D03*
X84008600Y-58869950D03*
X88508600Y-54369950D03*
X84908600Y-57069950D03*
X84008600Y-57069950D03*
X78608600Y-58869950D03*
X86708600Y-71469950D03*
X86708600Y-67869950D03*
X84908600Y-55269950D03*
X87608600Y-58869950D03*
%TO.N,/ILIM+*%
X111008600Y-59769950D03*
X117308600Y-62469950D03*
X119108600Y-62469950D03*
X111908600Y-59769950D03*
X119108600Y-70569950D03*
X113708600Y-70569950D03*
X111908600Y-69669950D03*
X112808600Y-67869950D03*
X113708600Y-59769950D03*
X113708600Y-67869950D03*
X117308600Y-64269950D03*
X109208600Y-54369950D03*
X115508600Y-59769950D03*
X118208600Y-62469950D03*
X105608600Y-55269950D03*
X106508600Y-55269950D03*
X108308600Y-54369950D03*
X112808600Y-59769950D03*
X119108600Y-59769950D03*
X117308600Y-65169950D03*
X110108600Y-54369950D03*
X112808600Y-68769950D03*
X108308600Y-56169950D03*
X118208600Y-64269950D03*
D19*
X109194600Y-66471800D03*
D20*
X118208600Y-70569950D03*
X117308600Y-63369950D03*
X114608600Y-59769950D03*
X109208600Y-59769950D03*
X118208600Y-65169950D03*
X109208600Y-55269950D03*
X117308600Y-59769950D03*
X119108600Y-68769950D03*
X110108600Y-59769950D03*
X119108600Y-69669950D03*
X118208600Y-63369950D03*
X105608600Y-54369950D03*
X108308600Y-59769950D03*
X119108600Y-63369950D03*
X120008600Y-59769950D03*
X119108600Y-64269950D03*
X116408600Y-59769950D03*
X112808600Y-70569950D03*
X111908600Y-67869950D03*
X108308600Y-60669950D03*
X107408600Y-55269950D03*
X114608600Y-56169950D03*
X107408600Y-54369950D03*
X111908600Y-70569950D03*
X118208600Y-59769950D03*
X109208600Y-60669950D03*
X113708600Y-68769950D03*
X117308600Y-70569950D03*
X112808600Y-69669950D03*
X111908600Y-68769950D03*
X108308600Y-55269950D03*
X119108600Y-65169950D03*
X119108600Y-67869950D03*
X106508600Y-54369950D03*
X113708600Y-69669950D03*
X111908600Y-65169950D03*
%TO.N,Net-(D2-K)*%
X75008600Y-45369950D03*
X85808600Y-45369950D03*
X75908600Y-49869950D03*
X93008600Y-45369950D03*
X90308600Y-48969950D03*
X74108600Y-48969950D03*
X76808600Y-49869950D03*
X112808600Y-51669950D03*
X90308600Y-48069950D03*
X95708600Y-42669950D03*
X68708600Y-48969950D03*
X104708600Y-51669950D03*
X77708600Y-43569950D03*
X95708600Y-48969950D03*
X99308600Y-47169950D03*
X99308600Y-48969950D03*
X67808600Y-43569950D03*
X86708600Y-49869950D03*
X76808600Y-46269950D03*
X91208600Y-51669950D03*
X83108600Y-49869950D03*
X64208600Y-47169950D03*
X84008600Y-51669950D03*
X86708600Y-51669950D03*
X87608600Y-48969950D03*
X89408600Y-50769950D03*
X90308600Y-42669950D03*
X92108600Y-47169950D03*
X93908600Y-49869950D03*
X71408600Y-45369950D03*
X94808600Y-42669950D03*
X69608600Y-50769950D03*
X84908600Y-51669950D03*
X93008600Y-51669950D03*
X66908600Y-47169950D03*
X70508600Y-44469950D03*
X91208600Y-50769950D03*
X79508600Y-42669950D03*
X65108600Y-46269950D03*
X78608600Y-44469950D03*
X97508600Y-48069950D03*
X68708600Y-45369950D03*
X78608600Y-41769950D03*
X73208600Y-46269950D03*
X70508600Y-46269950D03*
X89408600Y-47169950D03*
X90308600Y-50769950D03*
X70508600Y-50769950D03*
X80408600Y-46269950D03*
X84908600Y-49869950D03*
X75008600Y-49869950D03*
X96608600Y-50769950D03*
X66908600Y-43569950D03*
X64208600Y-42669950D03*
X89408600Y-51669950D03*
X71408600Y-48969950D03*
X66008600Y-48069950D03*
X75908600Y-47169950D03*
X78608600Y-49869950D03*
X78608600Y-50769950D03*
X65108600Y-45369950D03*
X91208600Y-42669950D03*
X69608600Y-47169950D03*
X111008600Y-51669950D03*
X76808600Y-41769950D03*
X84908600Y-50769950D03*
X64208600Y-46269950D03*
X94808600Y-47169950D03*
X82208600Y-48069950D03*
X65108600Y-43569950D03*
X97508600Y-50769950D03*
X70508600Y-49869950D03*
X75908600Y-48969950D03*
X79508600Y-48969950D03*
X69608600Y-41769950D03*
X96608600Y-51669950D03*
X75908600Y-45369950D03*
X75008600Y-47169950D03*
X86708600Y-48969950D03*
X69608600Y-48969950D03*
X85808600Y-50769950D03*
X92108600Y-44469950D03*
X67808600Y-49869950D03*
X64208600Y-44469950D03*
X88508600Y-49869950D03*
X94808600Y-43569950D03*
X70508600Y-45369950D03*
X92108600Y-48969950D03*
X96608600Y-47169950D03*
X64208600Y-41769950D03*
X94808600Y-46269950D03*
X71408600Y-49869950D03*
X65108600Y-47169950D03*
X91208600Y-44469950D03*
X81308600Y-48069950D03*
X77708600Y-41769950D03*
X97508600Y-41769950D03*
X73208600Y-41769950D03*
X82208600Y-49869950D03*
X87608600Y-49869950D03*
X85808600Y-46269950D03*
X74108600Y-50769950D03*
X67808600Y-41769950D03*
X99308600Y-41769950D03*
X91208600Y-47169950D03*
X95708600Y-45369950D03*
X103808600Y-51669950D03*
X83108600Y-48969950D03*
X93008600Y-42669950D03*
X85808600Y-44469950D03*
X75008600Y-48969950D03*
X83108600Y-50769950D03*
X90308600Y-47169950D03*
X76808600Y-47169950D03*
X91208600Y-49869950D03*
X89408600Y-48969950D03*
X82208600Y-51669950D03*
X71408600Y-48069950D03*
X71408600Y-46269950D03*
X99308600Y-48069950D03*
X95708600Y-51669950D03*
X98408600Y-49869950D03*
X72308600Y-48069950D03*
X73208600Y-43569950D03*
X98408600Y-42669950D03*
X66908600Y-44469950D03*
X64208600Y-49869950D03*
X96608600Y-41769950D03*
X77708600Y-47169950D03*
X78608600Y-48069950D03*
X78608600Y-45369950D03*
X84008600Y-50769950D03*
X87608600Y-50769950D03*
X76808600Y-44469950D03*
X70508600Y-48069950D03*
X81308600Y-48969950D03*
X96608600Y-44469950D03*
X72308600Y-50769950D03*
X79508600Y-41769950D03*
X67808600Y-51669950D03*
X95708600Y-50769950D03*
X91208600Y-41769950D03*
X86708600Y-50769950D03*
X84908600Y-48969950D03*
X74108600Y-43569950D03*
X68708600Y-41769950D03*
X68708600Y-42669950D03*
X68708600Y-46269950D03*
X93908600Y-48069950D03*
X97508600Y-43569950D03*
X77708600Y-46269950D03*
X65108600Y-51669950D03*
X98408600Y-41769950D03*
X87608600Y-47169950D03*
X94808600Y-50769950D03*
X77708600Y-49869950D03*
X81308600Y-47169950D03*
X69608600Y-45369950D03*
X93008600Y-48969950D03*
X66908600Y-50769950D03*
X70508600Y-43569950D03*
X75908600Y-42669950D03*
X98408600Y-46269950D03*
X98408600Y-48969950D03*
X91208600Y-48969950D03*
X76808600Y-48969950D03*
X71408600Y-50769950D03*
X69608600Y-48069950D03*
X95708600Y-41769950D03*
X80408600Y-49869950D03*
X65108600Y-49869950D03*
X66908600Y-45369950D03*
X66008600Y-44469950D03*
X66908600Y-48969950D03*
X87608600Y-48069950D03*
X79508600Y-47169950D03*
X75908600Y-43569950D03*
X77708600Y-44469950D03*
X92108600Y-50769950D03*
X93008600Y-50769950D03*
X65108600Y-42669950D03*
X94808600Y-49869950D03*
X85808600Y-43569950D03*
X93908600Y-44469950D03*
X85808600Y-41769950D03*
X70508600Y-41769950D03*
X87608600Y-51669950D03*
X99308600Y-51669950D03*
X67808600Y-46269950D03*
X68708600Y-49869950D03*
X109208600Y-51669950D03*
X94808600Y-45369950D03*
X66008600Y-51669950D03*
X75008600Y-44469950D03*
X79508600Y-44469950D03*
X91208600Y-43569950D03*
X67808600Y-50769950D03*
X93008600Y-41769950D03*
X96608600Y-48069950D03*
X84908600Y-43569950D03*
X92108600Y-48069950D03*
X74108600Y-46269950D03*
X74108600Y-42669950D03*
X91208600Y-45369950D03*
X75008600Y-46269950D03*
X76808600Y-48069950D03*
X92108600Y-51669950D03*
X65108600Y-50769950D03*
X74108600Y-49869950D03*
X78608600Y-46269950D03*
X92108600Y-42669950D03*
X73208600Y-48069950D03*
X96608600Y-49869950D03*
X99308600Y-46269950D03*
X84008600Y-49869950D03*
X90308600Y-45369950D03*
X72308600Y-44469950D03*
X68708600Y-48069950D03*
X74108600Y-48069950D03*
X77708600Y-48969950D03*
X72308600Y-48969950D03*
X72308600Y-49869950D03*
X97508600Y-46269950D03*
X93008600Y-48069950D03*
X90308600Y-43569950D03*
X70508600Y-47169950D03*
X65108600Y-48969950D03*
X75008600Y-42669950D03*
X67808600Y-44469950D03*
X80408600Y-45369950D03*
X90308600Y-46269950D03*
X95708600Y-43569950D03*
X73208600Y-49869950D03*
X93908600Y-47169950D03*
X73208600Y-45369950D03*
X84008600Y-47169950D03*
X98408600Y-47169950D03*
X99308600Y-42669950D03*
X64208600Y-48069950D03*
X80408600Y-43569950D03*
X92108600Y-46269950D03*
X106508600Y-51669950D03*
X88508600Y-51669950D03*
X97508600Y-45369950D03*
X99308600Y-49869950D03*
X71408600Y-43569950D03*
X111908600Y-51669950D03*
X85808600Y-47169950D03*
X107408600Y-51669950D03*
X71408600Y-41769950D03*
X73208600Y-47169950D03*
X76808600Y-45369950D03*
X74108600Y-44469950D03*
X76808600Y-50769950D03*
X108308600Y-51669950D03*
X79508600Y-46269950D03*
X97508600Y-48969950D03*
X84908600Y-42669950D03*
X66008600Y-41769950D03*
X96608600Y-45369950D03*
X78608600Y-43569950D03*
X67808600Y-48069950D03*
X93908600Y-48969950D03*
X80408600Y-48969950D03*
X75008600Y-48069950D03*
X78608600Y-42669950D03*
X66008600Y-46269950D03*
X66008600Y-48969950D03*
X72308600Y-45369950D03*
X84908600Y-45369950D03*
X83108600Y-48069950D03*
X75908600Y-41769950D03*
X99308600Y-50769950D03*
X64208600Y-43569950D03*
X82208600Y-48969950D03*
X72308600Y-46269950D03*
X68708600Y-47169950D03*
X66908600Y-41769950D03*
X68708600Y-44469950D03*
X96608600Y-48969950D03*
X90308600Y-51669950D03*
X89408600Y-48069950D03*
X67808600Y-48969950D03*
X93008600Y-49869950D03*
X84908600Y-46269950D03*
X110108600Y-51669950D03*
X64208600Y-48969950D03*
X80408600Y-41769950D03*
X97508600Y-49869950D03*
X73208600Y-44469950D03*
X84908600Y-41769950D03*
X92108600Y-43569950D03*
X64208600Y-45369950D03*
X97508600Y-51669950D03*
X92108600Y-41769950D03*
X93908600Y-51669950D03*
X85808600Y-49869950D03*
X97508600Y-47169950D03*
X80408600Y-48069950D03*
X96608600Y-43569950D03*
X80408600Y-47169950D03*
X93008600Y-44469950D03*
X88508600Y-50769950D03*
X69608600Y-42669950D03*
X66908600Y-46269950D03*
X77708600Y-50769950D03*
X105608600Y-51669950D03*
X85808600Y-48969950D03*
X82208600Y-50769950D03*
X83108600Y-47169950D03*
X98408600Y-50769950D03*
X68708600Y-50769950D03*
X72308600Y-41769950D03*
X70508600Y-48969950D03*
X88508600Y-48969950D03*
X85808600Y-51669950D03*
X93908600Y-42669950D03*
X93908600Y-41769950D03*
X78608600Y-48969950D03*
X72308600Y-42669950D03*
X74108600Y-47169950D03*
X94808600Y-48069950D03*
X77708600Y-45369950D03*
X66008600Y-42669950D03*
X90308600Y-44469950D03*
X71408600Y-47169950D03*
X84908600Y-47169950D03*
X94808600Y-51669950D03*
X84008600Y-48069950D03*
X64208600Y-51669950D03*
X98408600Y-51669950D03*
X93008600Y-47169950D03*
X69608600Y-44469950D03*
X78608600Y-47169950D03*
X77708600Y-48069950D03*
X75008600Y-41769950D03*
X65108600Y-48069950D03*
X93908600Y-46269950D03*
X92108600Y-45369950D03*
X70508600Y-42669950D03*
X96608600Y-46269950D03*
X94808600Y-48969950D03*
X65108600Y-41769950D03*
X79508600Y-48069950D03*
X97508600Y-42669950D03*
X85808600Y-42669950D03*
X89408600Y-49869950D03*
X93908600Y-45369950D03*
X81308600Y-49869950D03*
X66908600Y-48069950D03*
X72308600Y-43569950D03*
X97508600Y-44469950D03*
X94808600Y-41769950D03*
X76808600Y-43569950D03*
X90308600Y-49869950D03*
X80408600Y-42669950D03*
X66908600Y-51669950D03*
X90308600Y-41769950D03*
X73208600Y-50769950D03*
X75008600Y-43569950D03*
X66008600Y-43569950D03*
X75908600Y-50769950D03*
X74108600Y-41769950D03*
X84908600Y-48069950D03*
X67808600Y-45369950D03*
X66908600Y-49869950D03*
X77708600Y-42669950D03*
X98408600Y-48069950D03*
X94808600Y-44469950D03*
X91208600Y-46269950D03*
X66008600Y-49869950D03*
X86708600Y-47169950D03*
X71408600Y-42669950D03*
X93908600Y-50769950D03*
X73208600Y-42669950D03*
X95708600Y-46269950D03*
X85808600Y-48069950D03*
X83108600Y-51669950D03*
X95708600Y-44469950D03*
X95708600Y-48069950D03*
X75908600Y-44469950D03*
X66008600Y-47169950D03*
X79508600Y-45369950D03*
X80408600Y-44469950D03*
X75008600Y-50769950D03*
X96608600Y-42669950D03*
X93008600Y-43569950D03*
X91208600Y-48069950D03*
X75908600Y-46269950D03*
X92108600Y-49869950D03*
X88508600Y-48069950D03*
X69608600Y-49869950D03*
X66908600Y-42669950D03*
X67808600Y-42669950D03*
X79508600Y-49869950D03*
X73208600Y-48969950D03*
X66008600Y-50769950D03*
X95708600Y-47169950D03*
X69608600Y-43569950D03*
X68708600Y-43569950D03*
X71408600Y-44469950D03*
X69608600Y-46269950D03*
X64208600Y-50769950D03*
X67808600Y-47169950D03*
X74108600Y-45369950D03*
X84908600Y-44469950D03*
X93908600Y-43569950D03*
X65108600Y-44469950D03*
X79508600Y-43569950D03*
X76808600Y-42669950D03*
X86708600Y-48069950D03*
X75908600Y-48069950D03*
X93008600Y-46269950D03*
X88508600Y-47169950D03*
X95708600Y-49869950D03*
X66008600Y-45369950D03*
X82208600Y-47169950D03*
X84008600Y-48969950D03*
X72308600Y-47169950D03*
D19*
%TO.N,Net-(IC2-ILIM)*%
X75965201Y-61372599D03*
X104851200Y-60960000D03*
%TO.N,/IMON*%
X103606600Y-65201800D03*
X76403200Y-63874600D03*
%TO.N,/IC1_TEMP*%
X103606600Y-67741800D03*
%TO.N,Net-(Q2-C)*%
X110972600Y-98018600D03*
X116052600Y-100355400D03*
%TD*%
D21*
%TO.N,Net-(Q2-C)*%
X113588800Y-98018600D02*
X110972600Y-98018600D01*
X115925600Y-100355400D02*
X113588800Y-98018600D01*
X116052600Y-100355400D02*
X115925600Y-100355400D01*
%TO.N,/Vin*%
X106070400Y-100838000D02*
X106222800Y-100685600D01*
%TO.N,GND*%
X96983800Y-92982800D02*
X98831400Y-91135200D01*
X100352500Y-89890600D02*
X100101400Y-89890600D01*
X124993400Y-45466000D02*
X123850400Y-44323000D01*
X98831400Y-91135200D02*
X98983800Y-91135200D01*
X127050800Y-80695800D02*
X127050800Y-78155800D01*
X100101400Y-89890600D02*
X98983800Y-91008200D01*
X96983800Y-95021400D02*
X96983800Y-92982800D01*
X98983800Y-91135200D02*
X98983800Y-95021400D01*
X98983800Y-91008200D02*
X98983800Y-91135200D01*
%TO.N,/INTVCC*%
X94787026Y-97169927D02*
X94792800Y-97175701D01*
X95072200Y-95951895D02*
X95072200Y-93746000D01*
X96600899Y-98983800D02*
X105968800Y-98983800D01*
X94787026Y-98983800D02*
X96600899Y-98983800D01*
X94787026Y-97169927D02*
X94787026Y-98983800D01*
X95086000Y-96870953D02*
X95086000Y-95965695D01*
X95072200Y-93746000D02*
X97733800Y-91084400D01*
X94792800Y-97175701D02*
X94792800Y-102082600D01*
X95086000Y-95965695D02*
X95072200Y-95951895D01*
X94792800Y-102082600D02*
X90855800Y-106019600D01*
X94787026Y-97169927D02*
X95086000Y-96870953D01*
%TO.N,Net-(Q4-C)*%
X92710000Y-89724900D02*
X89115300Y-93319600D01*
X92710000Y-86969600D02*
X92710000Y-89724900D01*
%TO.N,Net-(D2-A)*%
X122011400Y-100886600D02*
X124551400Y-100886600D01*
X95402400Y-63931800D02*
X103200200Y-63931800D01*
X103200200Y-63931800D02*
X103598100Y-63533900D01*
X94075200Y-62604600D02*
X95402400Y-63931800D01*
X76327000Y-62604600D02*
X94075200Y-62604600D01*
%TO.N,Net-(IC2-ILIM)*%
X75965201Y-61372599D02*
X76377800Y-60960000D01*
X76377800Y-60960000D02*
X104851200Y-60960000D01*
%TO.N,/IMON*%
X104419400Y-66014600D02*
X104419400Y-68605400D01*
X104419400Y-68605400D02*
X108408950Y-72594950D01*
X93948200Y-63874600D02*
X95275400Y-65201800D01*
X95275400Y-65201800D02*
X103606600Y-65201800D01*
X103606600Y-65201800D02*
X104419400Y-66014600D01*
X76403200Y-63874600D02*
X93948200Y-63874600D01*
X112447550Y-72594950D02*
X116154200Y-76301600D01*
X108408950Y-72594950D02*
X112447550Y-72594950D01*
%TO.N,/IC1_TEMP*%
X103606600Y-67741800D02*
X101701600Y-69646800D01*
X101701600Y-69646800D02*
X66852800Y-69646800D01*
X66852800Y-69646800D02*
X66827400Y-69672200D01*
D22*
%TO.N,/ILIM-*%
X126847600Y-53949600D02*
X126847600Y-51409600D01*
%TD*%
%TA.AperFunction,Conductor*%
%TO.N,Net-(D2-K)*%
G36*
X100196839Y-40634785D02*
G01*
X100242594Y-40687589D01*
X100253800Y-40739100D01*
X100253800Y-41763034D01*
X100253460Y-41769516D01*
X100253415Y-41769944D01*
X100253415Y-41769954D01*
X100253460Y-41770383D01*
X100253800Y-41776867D01*
X100253800Y-42663034D01*
X100253460Y-42669516D01*
X100253415Y-42669944D01*
X100253415Y-42669954D01*
X100253460Y-42670383D01*
X100253800Y-42676867D01*
X100253800Y-46263034D01*
X100253460Y-46269516D01*
X100253415Y-46269944D01*
X100253415Y-46269954D01*
X100253460Y-46270383D01*
X100253800Y-46276867D01*
X100253800Y-47163034D01*
X100253460Y-47169516D01*
X100253415Y-47169944D01*
X100253415Y-47169954D01*
X100253460Y-47170383D01*
X100253800Y-47176867D01*
X100253800Y-48063034D01*
X100253460Y-48069516D01*
X100253415Y-48069944D01*
X100253415Y-48069954D01*
X100253460Y-48070383D01*
X100253800Y-48076867D01*
X100253800Y-48963034D01*
X100253460Y-48969516D01*
X100253415Y-48969944D01*
X100253415Y-48969954D01*
X100253460Y-48970383D01*
X100253800Y-48976867D01*
X100253800Y-50342799D01*
X100253800Y-50342800D01*
X115295854Y-50317603D01*
X115362924Y-50337175D01*
X115408767Y-50389903D01*
X115420034Y-50439123D01*
X115443000Y-51587400D01*
X115443000Y-52484851D01*
X115423315Y-52551890D01*
X115370511Y-52597645D01*
X115321161Y-52608832D01*
X107232729Y-52749807D01*
X90514001Y-52737603D01*
X90463663Y-52726885D01*
X90451545Y-52721490D01*
X90451543Y-52721489D01*
X90384316Y-52702446D01*
X90380499Y-52701916D01*
X90380215Y-52701897D01*
X90241712Y-52683333D01*
X90241711Y-52683333D01*
X90241704Y-52683332D01*
X84987021Y-52733569D01*
X80645000Y-52730400D01*
X80619600Y-52730400D01*
X62584314Y-52906969D01*
X62517085Y-52887942D01*
X62470815Y-52835588D01*
X62459100Y-52782975D01*
X62459100Y-40739100D01*
X62478785Y-40672061D01*
X62531589Y-40626306D01*
X62583100Y-40615100D01*
X100129800Y-40615100D01*
X100196839Y-40634785D01*
G37*
%TD.AperFunction*%
%TD*%
%TA.AperFunction,Conductor*%
%TO.N,/SW*%
G36*
X115867816Y-79953940D02*
G01*
X115913985Y-80006382D01*
X115925600Y-80058780D01*
X115925600Y-92360993D01*
X115905915Y-92428032D01*
X115853111Y-92473787D01*
X115805246Y-92484939D01*
X115062000Y-92506799D01*
X115062000Y-94363809D01*
X115042315Y-94430848D01*
X114989511Y-94476603D01*
X114937810Y-94487809D01*
X100692257Y-94465993D01*
X100625248Y-94446206D01*
X100593180Y-94416303D01*
X100591350Y-94413858D01*
X100591347Y-94413855D01*
X100591346Y-94413854D01*
X100524495Y-94363809D01*
X100476135Y-94327606D01*
X100476128Y-94327602D01*
X100341282Y-94277308D01*
X100341283Y-94277308D01*
X100281683Y-94270901D01*
X100281681Y-94270900D01*
X100281673Y-94270900D01*
X100281665Y-94270900D01*
X100029431Y-94270900D01*
X100022490Y-94270510D01*
X99997377Y-94267680D01*
X99983802Y-94266151D01*
X99983798Y-94266151D01*
X99972105Y-94267468D01*
X99945107Y-94270510D01*
X99938169Y-94270900D01*
X99733300Y-94270900D01*
X99666261Y-94251215D01*
X99620506Y-94198411D01*
X99609300Y-94146900D01*
X99609300Y-93527247D01*
X99628985Y-93460208D01*
X99681789Y-93414453D01*
X99731524Y-93403261D01*
X100253800Y-93395800D01*
X100253800Y-91282912D01*
X100273485Y-91215873D01*
X100326289Y-91170118D01*
X100376099Y-91158924D01*
X102050299Y-91135990D01*
X102117600Y-91154754D01*
X102145761Y-91178835D01*
X103251000Y-92456000D01*
X111592008Y-92479168D01*
X113106200Y-92506800D01*
X113082483Y-80079447D01*
X113102040Y-80012373D01*
X113154756Y-79966517D01*
X113205502Y-79955218D01*
X115800624Y-79934784D01*
X115867816Y-79953940D01*
G37*
%TD.AperFunction*%
%TD*%
%TA.AperFunction,Conductor*%
%TO.N,Net-(C8-+)*%
G36*
X103751308Y-68661985D02*
G01*
X103797063Y-68714789D01*
X103807291Y-68750759D01*
X103808734Y-68762187D01*
X103808735Y-68762190D01*
X103825890Y-68805519D01*
X103827782Y-68811047D01*
X103840781Y-68855788D01*
X103850980Y-68873034D01*
X103859538Y-68890503D01*
X103866914Y-68909132D01*
X103894298Y-68946823D01*
X103897506Y-68951707D01*
X103921227Y-68991816D01*
X103921233Y-68991824D01*
X103935390Y-69005980D01*
X103948028Y-69020776D01*
X103959805Y-69036986D01*
X103959806Y-69036987D01*
X103995709Y-69066688D01*
X104000020Y-69070610D01*
X105548860Y-70619450D01*
X106675929Y-71746519D01*
X106709414Y-71807842D01*
X106704430Y-71877534D01*
X106662558Y-71933467D01*
X106597094Y-71957884D01*
X106588248Y-71958200D01*
X106299000Y-71958200D01*
X106299000Y-78028800D01*
X107519084Y-78005779D01*
X107586482Y-78024195D01*
X107633225Y-78076127D01*
X107645422Y-78129539D01*
X107646940Y-78991831D01*
X107627373Y-79058905D01*
X107574650Y-79104753D01*
X107521130Y-79116036D01*
X106121200Y-79095600D01*
X106145555Y-91833954D01*
X106125998Y-91901031D01*
X106073282Y-91946887D01*
X106021211Y-91958191D01*
X103539072Y-91951297D01*
X103472087Y-91931426D01*
X103445651Y-91908440D01*
X103439239Y-91901031D01*
X102890810Y-91267290D01*
X102528005Y-90848048D01*
X102528005Y-90848049D01*
X102528004Y-90848048D01*
X102500177Y-90820384D01*
X102466512Y-90759160D01*
X102463600Y-90732445D01*
X102463600Y-88620600D01*
X97815400Y-88671400D01*
X97815400Y-90059900D01*
X97795715Y-90126939D01*
X97742911Y-90172694D01*
X97691400Y-90183900D01*
X97639154Y-90183900D01*
X97606697Y-90190798D01*
X97453997Y-90223255D01*
X97453992Y-90223257D01*
X97281070Y-90300248D01*
X97281065Y-90300251D01*
X97127929Y-90411511D01*
X97001266Y-90552185D01*
X96906621Y-90716115D01*
X96906618Y-90716122D01*
X96863753Y-90848048D01*
X96848126Y-90896144D01*
X96830479Y-91064049D01*
X96803894Y-91128663D01*
X96794839Y-91138768D01*
X95310727Y-92622881D01*
X95249404Y-92656366D01*
X95223046Y-92659200D01*
X95145400Y-92659200D01*
X95078361Y-92639515D01*
X95032606Y-92586711D01*
X95021400Y-92535200D01*
X95021400Y-85775800D01*
X94307200Y-85775800D01*
X94240161Y-85756115D01*
X94194406Y-85703311D01*
X94183200Y-85651800D01*
X94183200Y-83515200D01*
X92580000Y-83515200D01*
X92512961Y-83495515D01*
X92467206Y-83442711D01*
X92456000Y-83391200D01*
X92456000Y-79400400D01*
X70913897Y-79501418D01*
X70846766Y-79482048D01*
X70800764Y-79429459D01*
X70789317Y-79377901D01*
X70787815Y-78991831D01*
X70764400Y-72974200D01*
X70752091Y-72949582D01*
X70739000Y-72894128D01*
X70739000Y-70396300D01*
X70758685Y-70329261D01*
X70811489Y-70283506D01*
X70863000Y-70272300D01*
X76483375Y-70272300D01*
X76550414Y-70291985D01*
X76596169Y-70344789D01*
X76607370Y-70395240D01*
X76657199Y-76225399D01*
X76657199Y-76225398D01*
X76657200Y-76225400D01*
X101549200Y-76022200D01*
X101549200Y-71805800D01*
X101114400Y-71805800D01*
X101047361Y-71786115D01*
X101001606Y-71733311D01*
X100990400Y-71681800D01*
X100990400Y-70396300D01*
X101010085Y-70329261D01*
X101062889Y-70283506D01*
X101114400Y-70272300D01*
X101618857Y-70272300D01*
X101634477Y-70274024D01*
X101634504Y-70273739D01*
X101642260Y-70274471D01*
X101642267Y-70274473D01*
X101711414Y-70272300D01*
X101740950Y-70272300D01*
X101747828Y-70271430D01*
X101753641Y-70270972D01*
X101800227Y-70269509D01*
X101819469Y-70263917D01*
X101838512Y-70259974D01*
X101858392Y-70257464D01*
X101901722Y-70240307D01*
X101907246Y-70238417D01*
X101910996Y-70237327D01*
X101951990Y-70225418D01*
X101969229Y-70215222D01*
X101986703Y-70206662D01*
X102005327Y-70199288D01*
X102005327Y-70199287D01*
X102005332Y-70199286D01*
X102043049Y-70171882D01*
X102047905Y-70168692D01*
X102088020Y-70144970D01*
X102102189Y-70130799D01*
X102116979Y-70118168D01*
X102133187Y-70106394D01*
X102162899Y-70070476D01*
X102166812Y-70066176D01*
X103554372Y-68678619D01*
X103615695Y-68645134D01*
X103642053Y-68642300D01*
X103684269Y-68642300D01*
X103751308Y-68661985D01*
G37*
%TD.AperFunction*%
%TD*%
%TA.AperFunction,Conductor*%
%TO.N,/ILIM+*%
G36*
X115433204Y-53132143D02*
G01*
X115479873Y-53184142D01*
X115491980Y-53239374D01*
X115417599Y-58470800D01*
X115417600Y-58470799D01*
X115417600Y-58470800D01*
X122811799Y-58445819D01*
X122878903Y-58465277D01*
X122924836Y-58517926D01*
X122936216Y-58569602D01*
X122961182Y-72875131D01*
X122941614Y-72942204D01*
X122888890Y-72988051D01*
X122836930Y-72999347D01*
X113769254Y-72980953D01*
X113702255Y-72961132D01*
X113681825Y-72944634D01*
X112948353Y-72211162D01*
X112938530Y-72198900D01*
X112938309Y-72199084D01*
X112933336Y-72193073D01*
X112932350Y-72192147D01*
X112882914Y-72145723D01*
X112872469Y-72135278D01*
X112862025Y-72124833D01*
X112856536Y-72120575D01*
X112852111Y-72116797D01*
X112818132Y-72084888D01*
X112818130Y-72084886D01*
X112818127Y-72084885D01*
X112800579Y-72075238D01*
X112784313Y-72064554D01*
X112768483Y-72052275D01*
X112725718Y-72033768D01*
X112720472Y-72031198D01*
X112679643Y-72008753D01*
X112679642Y-72008752D01*
X112660243Y-72003772D01*
X112641831Y-71997468D01*
X112623448Y-71989512D01*
X112623442Y-71989510D01*
X112577424Y-71982222D01*
X112571702Y-71981037D01*
X112526571Y-71969450D01*
X112526569Y-71969450D01*
X112506534Y-71969450D01*
X112487136Y-71967923D01*
X112479712Y-71966747D01*
X112467355Y-71964790D01*
X112467354Y-71964790D01*
X112420966Y-71969175D01*
X112415128Y-71969450D01*
X110563200Y-71969450D01*
X110496161Y-71949765D01*
X110450406Y-71896961D01*
X110439200Y-71845450D01*
X110439200Y-67081400D01*
X105170793Y-67161832D01*
X105103461Y-67143173D01*
X105056905Y-67091073D01*
X105044900Y-67037846D01*
X105044900Y-66097342D01*
X105046624Y-66081722D01*
X105046339Y-66081696D01*
X105047071Y-66073940D01*
X105047073Y-66073933D01*
X105044900Y-66004785D01*
X105044900Y-65975250D01*
X105044031Y-65968372D01*
X105043572Y-65962543D01*
X105042109Y-65915972D01*
X105036522Y-65896744D01*
X105032574Y-65877684D01*
X105030063Y-65857804D01*
X105012912Y-65814487D01*
X105011019Y-65808958D01*
X104998018Y-65764209D01*
X104998016Y-65764206D01*
X104987823Y-65746971D01*
X104979261Y-65729494D01*
X104971887Y-65710870D01*
X104971886Y-65710868D01*
X104944479Y-65673145D01*
X104941288Y-65668286D01*
X104917572Y-65628183D01*
X104917565Y-65628174D01*
X104903406Y-65614015D01*
X104890768Y-65599219D01*
X104878994Y-65583013D01*
X104843088Y-65553309D01*
X104838776Y-65549386D01*
X104674114Y-65384723D01*
X104640630Y-65323402D01*
X104645614Y-65253710D01*
X104687486Y-65197777D01*
X104752950Y-65173360D01*
X104759724Y-65173061D01*
X109184926Y-65099616D01*
X109283431Y-65088255D01*
X109330747Y-65078018D01*
X109425134Y-65047647D01*
X109547620Y-64972157D01*
X109601278Y-64927406D01*
X109697532Y-64820467D01*
X109759761Y-64690740D01*
X109780707Y-64624084D01*
X109780708Y-64624082D01*
X109803867Y-64482078D01*
X109824626Y-63381875D01*
X109814154Y-63269546D01*
X109802970Y-63215696D01*
X109767851Y-63108496D01*
X109690063Y-62987457D01*
X109690058Y-62987451D01*
X109644314Y-62934659D01*
X109644310Y-62934656D01*
X109644308Y-62934653D01*
X109535574Y-62840433D01*
X109535571Y-62840431D01*
X109535569Y-62840430D01*
X109404703Y-62780664D01*
X109404698Y-62780662D01*
X109404697Y-62780662D01*
X109382096Y-62774025D01*
X109337663Y-62760978D01*
X109337657Y-62760976D01*
X109252204Y-62748690D01*
X109195238Y-62740500D01*
X109195236Y-62740500D01*
X104407493Y-62740500D01*
X104340454Y-62720815D01*
X104294699Y-62668011D01*
X104283499Y-62617768D01*
X104275970Y-61881816D01*
X104294968Y-61814582D01*
X104347301Y-61768289D01*
X104416355Y-61757639D01*
X104450399Y-61767271D01*
X104571397Y-61821144D01*
X104756554Y-61860500D01*
X104756555Y-61860500D01*
X104945844Y-61860500D01*
X104945846Y-61860500D01*
X105131003Y-61821144D01*
X105303930Y-61744151D01*
X105457071Y-61632888D01*
X105583733Y-61492216D01*
X105678379Y-61328284D01*
X105736874Y-61148256D01*
X105756660Y-60960000D01*
X105736874Y-60771744D01*
X105678379Y-60591716D01*
X105583733Y-60427784D01*
X105457071Y-60287112D01*
X105457070Y-60287111D01*
X105303934Y-60175851D01*
X105303929Y-60175848D01*
X105131007Y-60098857D01*
X105131002Y-60098855D01*
X104985201Y-60067865D01*
X104945846Y-60059500D01*
X104756554Y-60059500D01*
X104724097Y-60066398D01*
X104571397Y-60098855D01*
X104571392Y-60098857D01*
X104431651Y-60161075D01*
X104362401Y-60170360D01*
X104299124Y-60140732D01*
X104261911Y-60081597D01*
X104257221Y-60049064D01*
X104246341Y-58985525D01*
X104189522Y-53431547D01*
X104208520Y-53364312D01*
X104260853Y-53318019D01*
X104311350Y-53306301D01*
X115365833Y-53113630D01*
X115433204Y-53132143D01*
G37*
%TD.AperFunction*%
%TD*%
%TA.AperFunction,Conductor*%
%TO.N,Net-(D2-A)*%
G36*
X103711714Y-61605185D02*
G01*
X103757469Y-61657989D01*
X103768668Y-61708228D01*
X103784400Y-63246000D01*
X109195238Y-63246000D01*
X109262277Y-63265685D01*
X109308032Y-63318489D01*
X109319216Y-63372339D01*
X109298457Y-64472542D01*
X109277511Y-64539198D01*
X109223853Y-64583949D01*
X109176537Y-64594186D01*
X104399908Y-64673465D01*
X104332551Y-64654896D01*
X104305703Y-64632457D01*
X104212471Y-64528912D01*
X104212470Y-64528911D01*
X104059334Y-64417651D01*
X104059329Y-64417648D01*
X103886407Y-64340657D01*
X103886402Y-64340655D01*
X103740601Y-64309665D01*
X103701246Y-64301300D01*
X103511954Y-64301300D01*
X103374679Y-64330478D01*
X103337165Y-64338452D01*
X103267498Y-64333135D01*
X103211765Y-64290997D01*
X103187660Y-64225417D01*
X103187428Y-64213919D01*
X103200200Y-63728600D01*
X103200198Y-63728599D01*
X103200199Y-63728599D01*
X101670582Y-63681534D01*
X101604180Y-63659797D01*
X101560071Y-63605611D01*
X101550402Y-63556365D01*
X101552758Y-63318489D01*
X101568700Y-61708271D01*
X101589047Y-61641431D01*
X101642302Y-61596201D01*
X101692694Y-61585500D01*
X103644675Y-61585500D01*
X103711714Y-61605185D01*
G37*
%TD.AperFunction*%
%TD*%
%TA.AperFunction,Conductor*%
%TO.N,Net-(C20-Pad2)*%
G36*
X90115090Y-70291985D02*
G01*
X90160845Y-70344789D01*
X90172042Y-70397746D01*
X90153479Y-71985934D01*
X90146029Y-72623321D01*
X90125562Y-72690126D01*
X90072227Y-72735261D01*
X90022314Y-72745872D01*
X78889677Y-72770722D01*
X78822594Y-72751187D01*
X78776721Y-72698485D01*
X78765400Y-72646722D01*
X78765400Y-70396300D01*
X78785085Y-70329261D01*
X78837889Y-70283506D01*
X78889400Y-70272300D01*
X90048051Y-70272300D01*
X90115090Y-70291985D01*
G37*
%TD.AperFunction*%
%TA.AperFunction,Conductor*%
G36*
X90182557Y-64519785D02*
G01*
X90228312Y-64572589D01*
X90239509Y-64625547D01*
X90222067Y-66117898D01*
X90189563Y-68898749D01*
X90169096Y-68965554D01*
X90115761Y-69010689D01*
X90065571Y-69021300D01*
X78889400Y-69021300D01*
X78822361Y-69001615D01*
X78776606Y-68948811D01*
X78765400Y-68897300D01*
X78765400Y-66141599D01*
X77035212Y-66117898D01*
X76968448Y-66097297D01*
X76923421Y-66043872D01*
X76912922Y-65992188D01*
X76931349Y-64665420D01*
X76951963Y-64598663D01*
X76982449Y-64566829D01*
X77009071Y-64547488D01*
X77011988Y-64544247D01*
X77014800Y-64541126D01*
X77074287Y-64504479D01*
X77106948Y-64500100D01*
X90115518Y-64500100D01*
X90182557Y-64519785D01*
G37*
%TD.AperFunction*%
%TA.AperFunction,Conductor*%
G36*
X90313766Y-53207852D02*
G01*
X90360024Y-53260217D01*
X90371719Y-53314253D01*
X90291097Y-60211949D01*
X90270630Y-60278754D01*
X90217295Y-60323889D01*
X90167105Y-60334500D01*
X77117235Y-60334500D01*
X77050196Y-60314815D01*
X77004441Y-60262011D01*
X76993247Y-60208780D01*
X77087317Y-53435711D01*
X77107931Y-53368954D01*
X77161365Y-53323937D01*
X77210119Y-53313442D01*
X90246545Y-53188810D01*
X90313766Y-53207852D01*
G37*
%TD.AperFunction*%
%TD*%
%TA.AperFunction,Conductor*%
%TO.N,GND*%
G36*
X128924280Y-40634785D02*
G01*
X128970035Y-40687589D01*
X128981241Y-40739059D01*
X129006100Y-115314600D01*
X129006100Y-116690100D01*
X128986415Y-116757139D01*
X128933611Y-116802894D01*
X128882100Y-116814100D01*
X62583100Y-116814100D01*
X62516061Y-116794415D01*
X62470306Y-116741611D01*
X62459100Y-116690100D01*
X62459100Y-115036401D01*
X76907700Y-115036401D01*
X76907701Y-115036418D01*
X76918200Y-115139196D01*
X76918201Y-115139199D01*
X76973385Y-115305731D01*
X76973387Y-115305736D01*
X77008269Y-115362288D01*
X77065488Y-115455056D01*
X77189544Y-115579112D01*
X77338866Y-115671214D01*
X77505403Y-115726399D01*
X77608191Y-115736900D01*
X79008208Y-115736899D01*
X79110997Y-115726399D01*
X79277534Y-115671214D01*
X79426856Y-115579112D01*
X79550912Y-115455056D01*
X79643014Y-115305734D01*
X79698199Y-115139197D01*
X79708700Y-115036409D01*
X79708700Y-114395902D01*
X81987700Y-114395902D01*
X82002852Y-114573936D01*
X82062924Y-114804648D01*
X82161119Y-115021880D01*
X82161124Y-115021888D01*
X82294613Y-115219393D01*
X82294618Y-115219398D01*
X82294621Y-115219403D01*
X82459579Y-115391518D01*
X82651253Y-115533279D01*
X82864126Y-115640607D01*
X83092077Y-115710416D01*
X83328546Y-115740698D01*
X83566732Y-115730580D01*
X83799781Y-115680354D01*
X84020990Y-115591464D01*
X84223995Y-115466469D01*
X84402955Y-115308964D01*
X84552723Y-115123480D01*
X84668990Y-114915354D01*
X84748411Y-114690571D01*
X84768410Y-114573936D01*
X84788699Y-114455609D01*
X84788700Y-114455598D01*
X84788700Y-112476898D01*
X84773547Y-112298863D01*
X84713475Y-112068151D01*
X84615280Y-111850919D01*
X84615275Y-111850911D01*
X84481786Y-111653406D01*
X84481782Y-111653401D01*
X84481779Y-111653397D01*
X84316821Y-111481282D01*
X84125147Y-111339521D01*
X83912274Y-111232193D01*
X83782483Y-111192445D01*
X83684321Y-111162383D01*
X83447847Y-111132101D01*
X83209671Y-111142219D01*
X83209667Y-111142219D01*
X82976619Y-111192445D01*
X82755411Y-111281335D01*
X82552403Y-111406332D01*
X82373445Y-111563835D01*
X82370835Y-111567068D01*
X82223677Y-111749320D01*
X82223676Y-111749322D01*
X82107410Y-111957444D01*
X82027988Y-112182229D01*
X81987700Y-112417190D01*
X81987700Y-114395902D01*
X79708700Y-114395902D01*
X79708699Y-111836392D01*
X79698199Y-111733603D01*
X79643014Y-111567066D01*
X79550912Y-111417744D01*
X79426856Y-111293688D01*
X79277534Y-111201586D01*
X79110997Y-111146401D01*
X79110995Y-111146400D01*
X79008210Y-111135900D01*
X77608198Y-111135900D01*
X77608181Y-111135901D01*
X77505403Y-111146400D01*
X77505400Y-111146401D01*
X77338868Y-111201585D01*
X77338863Y-111201587D01*
X77189542Y-111293689D01*
X77065489Y-111417742D01*
X76973387Y-111567063D01*
X76973386Y-111567066D01*
X76918201Y-111733603D01*
X76918201Y-111733604D01*
X76918200Y-111733604D01*
X76907700Y-111836383D01*
X76907700Y-115036401D01*
X62459100Y-115036401D01*
X62459100Y-101031999D01*
X73550751Y-101031999D01*
X73555110Y-101070696D01*
X73555500Y-101077641D01*
X73555500Y-101329869D01*
X73555501Y-101329876D01*
X73561908Y-101389483D01*
X73612202Y-101524328D01*
X73612206Y-101524335D01*
X73698452Y-101639544D01*
X73698455Y-101639547D01*
X73813664Y-101725793D01*
X73813671Y-101725797D01*
X73847730Y-101738500D01*
X73948517Y-101776091D01*
X74008127Y-101782500D01*
X74260365Y-101782499D01*
X74267309Y-101782888D01*
X74306000Y-101787249D01*
X74344690Y-101782888D01*
X74351634Y-101782499D01*
X75200364Y-101782499D01*
X75207303Y-101782888D01*
X75238287Y-101786379D01*
X75245999Y-101787249D01*
X75245999Y-101787248D01*
X75246000Y-101787249D01*
X75284695Y-101782888D01*
X75291635Y-101782499D01*
X76140361Y-101782499D01*
X76147301Y-101782888D01*
X76177888Y-101786335D01*
X76185999Y-101787249D01*
X76186000Y-101787249D01*
X76186001Y-101787249D01*
X76193973Y-101786350D01*
X76224697Y-101782888D01*
X76231638Y-101782499D01*
X76483871Y-101782499D01*
X76483872Y-101782499D01*
X76543483Y-101776091D01*
X76678331Y-101725796D01*
X76793546Y-101639546D01*
X76879796Y-101524331D01*
X76930091Y-101389483D01*
X76936500Y-101329873D01*
X76936499Y-101081600D01*
X82134141Y-101081600D01*
X82154736Y-101317003D01*
X82154738Y-101317013D01*
X82215894Y-101545255D01*
X82215896Y-101545259D01*
X82215897Y-101545263D01*
X82287652Y-101699142D01*
X82315765Y-101759430D01*
X82315767Y-101759434D01*
X82424081Y-101914121D01*
X82451305Y-101953001D01*
X82618399Y-102120095D01*
X82677704Y-102161621D01*
X82811965Y-102255632D01*
X82811967Y-102255633D01*
X82811970Y-102255635D01*
X83026137Y-102355503D01*
X83254392Y-102416663D01*
X83442718Y-102433139D01*
X83489799Y-102437259D01*
X83489800Y-102437259D01*
X83489801Y-102437259D01*
X83529034Y-102433826D01*
X83725208Y-102416663D01*
X83953463Y-102355503D01*
X84167630Y-102255635D01*
X84361201Y-102120095D01*
X84528295Y-101953001D01*
X84663835Y-101759430D01*
X84763703Y-101545263D01*
X84824863Y-101317008D01*
X84845459Y-101081600D01*
X84824863Y-100846192D01*
X84772226Y-100649744D01*
X84763705Y-100617944D01*
X84763704Y-100617943D01*
X84763703Y-100617937D01*
X84663835Y-100403771D01*
X84629966Y-100355400D01*
X84528294Y-100210197D01*
X84361202Y-100043106D01*
X84361196Y-100043101D01*
X84175642Y-99913175D01*
X84132017Y-99858598D01*
X84124823Y-99789100D01*
X84156346Y-99726745D01*
X84175642Y-99710025D01*
X84197826Y-99694491D01*
X84361201Y-99580095D01*
X84528295Y-99413001D01*
X84663835Y-99219430D01*
X84763703Y-99005263D01*
X84824863Y-98777008D01*
X84845459Y-98541600D01*
X84824863Y-98306192D01*
X84763703Y-98077937D01*
X84663835Y-97863771D01*
X84653236Y-97848633D01*
X84528294Y-97670197D01*
X84361202Y-97503106D01*
X84361195Y-97503101D01*
X84355178Y-97498888D01*
X84292283Y-97454848D01*
X84167634Y-97367567D01*
X84167630Y-97367565D01*
X84147510Y-97358183D01*
X83953463Y-97267697D01*
X83953459Y-97267696D01*
X83953455Y-97267694D01*
X83725213Y-97206538D01*
X83725203Y-97206536D01*
X83489801Y-97185941D01*
X83489799Y-97185941D01*
X83254396Y-97206536D01*
X83254386Y-97206538D01*
X83026144Y-97267694D01*
X83026135Y-97267698D01*
X82811971Y-97367564D01*
X82811969Y-97367565D01*
X82618397Y-97503105D01*
X82451305Y-97670197D01*
X82315765Y-97863769D01*
X82315764Y-97863771D01*
X82215898Y-98077935D01*
X82215894Y-98077944D01*
X82154738Y-98306186D01*
X82154736Y-98306196D01*
X82134141Y-98541599D01*
X82134141Y-98541600D01*
X82154736Y-98777003D01*
X82154738Y-98777013D01*
X82215894Y-99005255D01*
X82215896Y-99005259D01*
X82215897Y-99005263D01*
X82301203Y-99188202D01*
X82315765Y-99219430D01*
X82315767Y-99219434D01*
X82451301Y-99412995D01*
X82451306Y-99413002D01*
X82618397Y-99580093D01*
X82618403Y-99580098D01*
X82803958Y-99710025D01*
X82847583Y-99764602D01*
X82854777Y-99834100D01*
X82823254Y-99896455D01*
X82803958Y-99913175D01*
X82618397Y-100043105D01*
X82451305Y-100210197D01*
X82315765Y-100403769D01*
X82315764Y-100403771D01*
X82215898Y-100617935D01*
X82215894Y-100617944D01*
X82154738Y-100846186D01*
X82154736Y-100846196D01*
X82134141Y-101081599D01*
X82134141Y-101081600D01*
X76936499Y-101081600D01*
X76936499Y-101077632D01*
X76936889Y-101070684D01*
X76941249Y-101032000D01*
X76936888Y-100993302D01*
X76936499Y-100986365D01*
X76936499Y-99927638D01*
X76936889Y-99920690D01*
X76941249Y-99882000D01*
X76941249Y-99881999D01*
X76940335Y-99873888D01*
X76936888Y-99843301D01*
X76936499Y-99836361D01*
X76936499Y-99584129D01*
X76936498Y-99584123D01*
X76936497Y-99584116D01*
X76930091Y-99524517D01*
X76926920Y-99516016D01*
X76879797Y-99389671D01*
X76879793Y-99389664D01*
X76793547Y-99274455D01*
X76793544Y-99274452D01*
X76678335Y-99188206D01*
X76678328Y-99188202D01*
X76543482Y-99137908D01*
X76543483Y-99137908D01*
X76483883Y-99131501D01*
X76483881Y-99131500D01*
X76483873Y-99131500D01*
X76483865Y-99131500D01*
X76231631Y-99131500D01*
X76224690Y-99131110D01*
X76199577Y-99128280D01*
X76186002Y-99126751D01*
X76185999Y-99126751D01*
X76180079Y-99127418D01*
X76147305Y-99131110D01*
X76140369Y-99131500D01*
X75291632Y-99131500D01*
X75284695Y-99131110D01*
X75252073Y-99127435D01*
X75246001Y-99126751D01*
X75245998Y-99126751D01*
X75235382Y-99127947D01*
X75207303Y-99131110D01*
X75200367Y-99131500D01*
X74351643Y-99131500D01*
X74344697Y-99131110D01*
X74313935Y-99127644D01*
X74306000Y-99126751D01*
X74305999Y-99126751D01*
X74267302Y-99131110D01*
X74260357Y-99131500D01*
X74008130Y-99131500D01*
X74008123Y-99131501D01*
X73948516Y-99137908D01*
X73813671Y-99188202D01*
X73813664Y-99188206D01*
X73698455Y-99274452D01*
X73698452Y-99274455D01*
X73612206Y-99389664D01*
X73612202Y-99389671D01*
X73561908Y-99524517D01*
X73555933Y-99580098D01*
X73555501Y-99584123D01*
X73555500Y-99584135D01*
X73555500Y-99836368D01*
X73555110Y-99843307D01*
X73550751Y-99882000D01*
X73555110Y-99920690D01*
X73555500Y-99927630D01*
X73555500Y-100986356D01*
X73555110Y-100993302D01*
X73550751Y-101031999D01*
X62459100Y-101031999D01*
X62459100Y-93319600D01*
X88209840Y-93319600D01*
X88229626Y-93507856D01*
X88229627Y-93507859D01*
X88288118Y-93687877D01*
X88288121Y-93687884D01*
X88382767Y-93851816D01*
X88488074Y-93968771D01*
X88509429Y-93992488D01*
X88662565Y-94103748D01*
X88662570Y-94103751D01*
X88835492Y-94180742D01*
X88835497Y-94180744D01*
X89020654Y-94220100D01*
X89020655Y-94220100D01*
X89209944Y-94220100D01*
X89209946Y-94220100D01*
X89395103Y-94180744D01*
X89568030Y-94103751D01*
X89721171Y-93992488D01*
X89847833Y-93851816D01*
X89942479Y-93687884D01*
X90000974Y-93507856D01*
X90018621Y-93339945D01*
X90045205Y-93275332D01*
X90054252Y-93265236D01*
X93093788Y-90225701D01*
X93106042Y-90215886D01*
X93105859Y-90215664D01*
X93111866Y-90210692D01*
X93111877Y-90210686D01*
X93142775Y-90177782D01*
X93159227Y-90160264D01*
X93169671Y-90149818D01*
X93180120Y-90139371D01*
X93184379Y-90133878D01*
X93188152Y-90129461D01*
X93220062Y-90095482D01*
X93229713Y-90077924D01*
X93240396Y-90061661D01*
X93252673Y-90045836D01*
X93271185Y-90003053D01*
X93273738Y-89997841D01*
X93296197Y-89956992D01*
X93301180Y-89937580D01*
X93307481Y-89919180D01*
X93315437Y-89900796D01*
X93322729Y-89854752D01*
X93323906Y-89849071D01*
X93335500Y-89803919D01*
X93335500Y-89783883D01*
X93337027Y-89764482D01*
X93340160Y-89744704D01*
X93335775Y-89698318D01*
X93335500Y-89692480D01*
X93335500Y-87668287D01*
X93355185Y-87601248D01*
X93367350Y-87585315D01*
X93385891Y-87564722D01*
X93442533Y-87501816D01*
X93537179Y-87337884D01*
X93595674Y-87157856D01*
X93615460Y-86969600D01*
X93595674Y-86781344D01*
X93537179Y-86601316D01*
X93442533Y-86437384D01*
X93315871Y-86296712D01*
X93315870Y-86296711D01*
X93162734Y-86185451D01*
X93162729Y-86185448D01*
X92989807Y-86108457D01*
X92989802Y-86108455D01*
X92844001Y-86077465D01*
X92804646Y-86069100D01*
X92615354Y-86069100D01*
X92582897Y-86075998D01*
X92430197Y-86108455D01*
X92430192Y-86108457D01*
X92257270Y-86185448D01*
X92257265Y-86185451D01*
X92104129Y-86296711D01*
X91977466Y-86437385D01*
X91882821Y-86601315D01*
X91882818Y-86601322D01*
X91824327Y-86781340D01*
X91824326Y-86781344D01*
X91804540Y-86969600D01*
X91824326Y-87157856D01*
X91824327Y-87157859D01*
X91882818Y-87337877D01*
X91882821Y-87337884D01*
X91977467Y-87501816D01*
X92020772Y-87549910D01*
X92052650Y-87585315D01*
X92082880Y-87648306D01*
X92084500Y-87668287D01*
X92084500Y-89414447D01*
X92064815Y-89481486D01*
X92048181Y-89502128D01*
X89167528Y-92382781D01*
X89106205Y-92416266D01*
X89079847Y-92419100D01*
X89020654Y-92419100D01*
X88988197Y-92425998D01*
X88835497Y-92458455D01*
X88835492Y-92458457D01*
X88662570Y-92535448D01*
X88662565Y-92535451D01*
X88509429Y-92646711D01*
X88382766Y-92787385D01*
X88288121Y-92951315D01*
X88288118Y-92951322D01*
X88229627Y-93131340D01*
X88229626Y-93131344D01*
X88209840Y-93319600D01*
X62459100Y-93319600D01*
X62459100Y-64448670D01*
X65527700Y-64448670D01*
X65527701Y-64448676D01*
X65534108Y-64508283D01*
X65584402Y-64643128D01*
X65584406Y-64643135D01*
X65670652Y-64758344D01*
X65670655Y-64758347D01*
X65785864Y-64844593D01*
X65785871Y-64844597D01*
X65920717Y-64894891D01*
X65920716Y-64894891D01*
X65927644Y-64895635D01*
X65980327Y-64901300D01*
X67776072Y-64901299D01*
X67835683Y-64894891D01*
X67970531Y-64844596D01*
X68085746Y-64758346D01*
X68171996Y-64643131D01*
X68222291Y-64508283D01*
X68228700Y-64448673D01*
X68228699Y-62652928D01*
X68222291Y-62593317D01*
X68171996Y-62458469D01*
X68171995Y-62458468D01*
X68171993Y-62458464D01*
X68085747Y-62343255D01*
X68085744Y-62343252D01*
X67970535Y-62257006D01*
X67970528Y-62257002D01*
X67835682Y-62206708D01*
X67835683Y-62206708D01*
X67776083Y-62200301D01*
X67776081Y-62200300D01*
X67776073Y-62200300D01*
X67776064Y-62200300D01*
X65980329Y-62200300D01*
X65980323Y-62200301D01*
X65920716Y-62206708D01*
X65785871Y-62257002D01*
X65785864Y-62257006D01*
X65670655Y-62343252D01*
X65670652Y-62343255D01*
X65584406Y-62458464D01*
X65584402Y-62458471D01*
X65534108Y-62593317D01*
X65527701Y-62652916D01*
X65527701Y-62652923D01*
X65527700Y-62652935D01*
X65527700Y-64448670D01*
X62459100Y-64448670D01*
X62459100Y-53536300D01*
X62478785Y-53469261D01*
X62531589Y-53423506D01*
X62584845Y-53413629D01*
X62584834Y-53412488D01*
X62589260Y-53412444D01*
X62589263Y-53412445D01*
X76459546Y-53276651D01*
X76526773Y-53295678D01*
X76573043Y-53348032D01*
X76583663Y-53417090D01*
X76583240Y-53419986D01*
X76581866Y-53428681D01*
X76581865Y-53428699D01*
X76487795Y-60201750D01*
X76487938Y-60205183D01*
X76486142Y-60205257D01*
X76474469Y-60266947D01*
X76426425Y-60317677D01*
X76364062Y-60334500D01*
X76338450Y-60334500D01*
X76337729Y-60334590D01*
X76331557Y-60335369D01*
X76325745Y-60335826D01*
X76279173Y-60337290D01*
X76279172Y-60337290D01*
X76259929Y-60342881D01*
X76240879Y-60346825D01*
X76221011Y-60349334D01*
X76177684Y-60366488D01*
X76172158Y-60368379D01*
X76127414Y-60381379D01*
X76127410Y-60381381D01*
X76110166Y-60391579D01*
X76092705Y-60400133D01*
X76074074Y-60407510D01*
X76074062Y-60407517D01*
X76036370Y-60434902D01*
X76031487Y-60438109D01*
X76003217Y-60454829D01*
X75940093Y-60472099D01*
X75870555Y-60472099D01*
X75838098Y-60478997D01*
X75685398Y-60511454D01*
X75685393Y-60511456D01*
X75512471Y-60588447D01*
X75512466Y-60588450D01*
X75359330Y-60699710D01*
X75232667Y-60840384D01*
X75138022Y-61004314D01*
X75138019Y-61004321D01*
X75079528Y-61184339D01*
X75079527Y-61184343D01*
X75059741Y-61372599D01*
X75079527Y-61560855D01*
X75079528Y-61560858D01*
X75138019Y-61740876D01*
X75138022Y-61740883D01*
X75232668Y-61904815D01*
X75295359Y-61974440D01*
X75356422Y-62042258D01*
X75359330Y-62045487D01*
X75450268Y-62111557D01*
X75492932Y-62166884D01*
X75498911Y-62236497D01*
X75495312Y-62250191D01*
X75465074Y-62343255D01*
X75441326Y-62416344D01*
X75421540Y-62604600D01*
X75441326Y-62792856D01*
X75441327Y-62792859D01*
X75499818Y-62972877D01*
X75499821Y-62972884D01*
X75594467Y-63136816D01*
X75636527Y-63183528D01*
X75652928Y-63201743D01*
X75683158Y-63264734D01*
X75674533Y-63334069D01*
X75668166Y-63346714D01*
X75576020Y-63506318D01*
X75576018Y-63506322D01*
X75517527Y-63686340D01*
X75517526Y-63686344D01*
X75497740Y-63874600D01*
X75517526Y-64062856D01*
X75517527Y-64062859D01*
X75576018Y-64242877D01*
X75576021Y-64242884D01*
X75670667Y-64406816D01*
X75754661Y-64500100D01*
X75797329Y-64547488D01*
X75950465Y-64658748D01*
X75950470Y-64658751D01*
X76123392Y-64735742D01*
X76123397Y-64735744D01*
X76308554Y-64775100D01*
X76308567Y-64775100D01*
X76311511Y-64775410D01*
X76313111Y-64776068D01*
X76314911Y-64776451D01*
X76314841Y-64776780D01*
X76376125Y-64801996D01*
X76416109Y-64859294D01*
X76422536Y-64900453D01*
X76407471Y-65985170D01*
X76407471Y-65985179D01*
X76417539Y-66092818D01*
X76417540Y-66092822D01*
X76428037Y-66144496D01*
X76460768Y-66247547D01*
X76531439Y-66360895D01*
X76550204Y-66428198D01*
X76529604Y-66494961D01*
X76476178Y-66539989D01*
X76426216Y-66550500D01*
X70863000Y-66550500D01*
X70862991Y-66550500D01*
X70862990Y-66550501D01*
X70755549Y-66562052D01*
X70755537Y-66562054D01*
X70704027Y-66573260D01*
X70601502Y-66607383D01*
X70601496Y-66607386D01*
X70480462Y-66685171D01*
X70480451Y-66685179D01*
X70427659Y-66730923D01*
X70333433Y-66839664D01*
X70333430Y-66839668D01*
X70273664Y-66970534D01*
X70253978Y-67037575D01*
X70253976Y-67037580D01*
X70237595Y-67151516D01*
X70233502Y-67179990D01*
X70233500Y-67180001D01*
X70233500Y-68897300D01*
X70213815Y-68964339D01*
X70161011Y-69010094D01*
X70109500Y-69021300D01*
X68301899Y-69021300D01*
X68234860Y-69001615D01*
X68189105Y-68948811D01*
X68177899Y-68897300D01*
X68177899Y-68774329D01*
X68177898Y-68774323D01*
X68177897Y-68774316D01*
X68171491Y-68714717D01*
X68121196Y-68579869D01*
X68121195Y-68579868D01*
X68121193Y-68579864D01*
X68034947Y-68464655D01*
X68034944Y-68464652D01*
X67919735Y-68378406D01*
X67919728Y-68378402D01*
X67784882Y-68328108D01*
X67784883Y-68328108D01*
X67725283Y-68321701D01*
X67725281Y-68321700D01*
X67725273Y-68321700D01*
X67725264Y-68321700D01*
X65929529Y-68321700D01*
X65929523Y-68321701D01*
X65869916Y-68328108D01*
X65735071Y-68378402D01*
X65735064Y-68378406D01*
X65619855Y-68464652D01*
X65619852Y-68464655D01*
X65533606Y-68579864D01*
X65533602Y-68579871D01*
X65483308Y-68714717D01*
X65476901Y-68774316D01*
X65476901Y-68774323D01*
X65476900Y-68774335D01*
X65476900Y-70570070D01*
X65476901Y-70570076D01*
X65483308Y-70629683D01*
X65533602Y-70764528D01*
X65533606Y-70764535D01*
X65619852Y-70879744D01*
X65619855Y-70879747D01*
X65735064Y-70965993D01*
X65735071Y-70965997D01*
X65869917Y-71016291D01*
X65869916Y-71016291D01*
X65876844Y-71017035D01*
X65929527Y-71022700D01*
X67725272Y-71022699D01*
X67784883Y-71016291D01*
X67919731Y-70965996D01*
X68034946Y-70879746D01*
X68121196Y-70764531D01*
X68171491Y-70629683D01*
X68177900Y-70570073D01*
X68177900Y-70396300D01*
X68197585Y-70329261D01*
X68250389Y-70283506D01*
X68301900Y-70272300D01*
X70109500Y-70272300D01*
X70176539Y-70291985D01*
X70222294Y-70344789D01*
X70233500Y-70396300D01*
X70233500Y-72894129D01*
X70247023Y-73010270D01*
X70247024Y-73010277D01*
X70255977Y-73048199D01*
X70259293Y-73076207D01*
X70283821Y-79379866D01*
X70295833Y-79487457D01*
X70295835Y-79487472D01*
X70307280Y-79539020D01*
X70341935Y-79641607D01*
X70361902Y-79672357D01*
X70420289Y-79762278D01*
X70454456Y-79801338D01*
X70459373Y-79808930D01*
X70466291Y-79814867D01*
X70466291Y-79814868D01*
X70575469Y-79908578D01*
X70706626Y-79967734D01*
X70706630Y-79967735D01*
X70706632Y-79967736D01*
X70720850Y-79971838D01*
X70773757Y-79987104D01*
X70916267Y-80006912D01*
X91825919Y-79908859D01*
X91893050Y-79928229D01*
X91939052Y-79980818D01*
X91950500Y-80032858D01*
X91950500Y-83391200D01*
X91950501Y-83391209D01*
X91962052Y-83498650D01*
X91962054Y-83498662D01*
X91973260Y-83550172D01*
X92007383Y-83652697D01*
X92007386Y-83652703D01*
X92085171Y-83773737D01*
X92085179Y-83773748D01*
X92130923Y-83826540D01*
X92130926Y-83826543D01*
X92130930Y-83826547D01*
X92239664Y-83920767D01*
X92370541Y-83980538D01*
X92415357Y-83993697D01*
X92437575Y-84000222D01*
X92437580Y-84000223D01*
X92437584Y-84000224D01*
X92580000Y-84020700D01*
X93553700Y-84020700D01*
X93620739Y-84040385D01*
X93666494Y-84093189D01*
X93677700Y-84144700D01*
X93677700Y-85651800D01*
X93677701Y-85651809D01*
X93689252Y-85759250D01*
X93689254Y-85759262D01*
X93700460Y-85810772D01*
X93734583Y-85913297D01*
X93734586Y-85913303D01*
X93812371Y-86034337D01*
X93812379Y-86034348D01*
X93858123Y-86087140D01*
X93858126Y-86087143D01*
X93858130Y-86087147D01*
X93966864Y-86181367D01*
X94097741Y-86241138D01*
X94142557Y-86254297D01*
X94164775Y-86260822D01*
X94164780Y-86260823D01*
X94164784Y-86260824D01*
X94307200Y-86281300D01*
X94391900Y-86281300D01*
X94458939Y-86300985D01*
X94504694Y-86353789D01*
X94515900Y-86405300D01*
X94515900Y-92535200D01*
X94515901Y-92535209D01*
X94527452Y-92642650D01*
X94527454Y-92642662D01*
X94538660Y-92694172D01*
X94572783Y-92796697D01*
X94572786Y-92796703D01*
X94650571Y-92917737D01*
X94650579Y-92917748D01*
X94696323Y-92970540D01*
X94696326Y-92970543D01*
X94696330Y-92970547D01*
X94736393Y-93005262D01*
X94738580Y-93007157D01*
X94776353Y-93065935D01*
X94776353Y-93135805D01*
X94745057Y-93188550D01*
X94688408Y-93245199D01*
X94676151Y-93255020D01*
X94676334Y-93255241D01*
X94670323Y-93260213D01*
X94622972Y-93310636D01*
X94602089Y-93331519D01*
X94602077Y-93331532D01*
X94597821Y-93337017D01*
X94594037Y-93341447D01*
X94562137Y-93375418D01*
X94562136Y-93375420D01*
X94552484Y-93392976D01*
X94541810Y-93409226D01*
X94529529Y-93425061D01*
X94529524Y-93425068D01*
X94511015Y-93467838D01*
X94508445Y-93473084D01*
X94486003Y-93513906D01*
X94481022Y-93533307D01*
X94474721Y-93551710D01*
X94466762Y-93570102D01*
X94466761Y-93570105D01*
X94459471Y-93616127D01*
X94458287Y-93621846D01*
X94446701Y-93666972D01*
X94446700Y-93666982D01*
X94446700Y-93687016D01*
X94445173Y-93706415D01*
X94442040Y-93726194D01*
X94442040Y-93726195D01*
X94446425Y-93772583D01*
X94446700Y-93778421D01*
X94446700Y-95869150D01*
X94444975Y-95884767D01*
X94445261Y-95884794D01*
X94444526Y-95892560D01*
X94446700Y-95961709D01*
X94446700Y-95991238D01*
X94446701Y-95991255D01*
X94447568Y-95998126D01*
X94448026Y-96003945D01*
X94449490Y-96050522D01*
X94455079Y-96069756D01*
X94459024Y-96088802D01*
X94460010Y-96096612D01*
X94460500Y-96104385D01*
X94460500Y-96249059D01*
X94440815Y-96316098D01*
X94388011Y-96361853D01*
X94386937Y-96362338D01*
X94334293Y-96385776D01*
X94181155Y-96497038D01*
X94054492Y-96637712D01*
X93959847Y-96801642D01*
X93959844Y-96801649D01*
X93901353Y-96981667D01*
X93901352Y-96981671D01*
X93881566Y-97169927D01*
X93901352Y-97358183D01*
X93901353Y-97358186D01*
X93959844Y-97538204D01*
X93959847Y-97538211D01*
X94054493Y-97702143D01*
X94097798Y-97750237D01*
X94129676Y-97785642D01*
X94159906Y-97848633D01*
X94161526Y-97868614D01*
X94161526Y-98912952D01*
X94159331Y-98936179D01*
X94157799Y-98944212D01*
X94161404Y-99001524D01*
X94161526Y-99005395D01*
X94161526Y-99023156D01*
X94163751Y-99040768D01*
X94164116Y-99044637D01*
X94167178Y-99093302D01*
X94167300Y-99097175D01*
X94167300Y-101772147D01*
X94147615Y-101839186D01*
X94130981Y-101859828D01*
X90908028Y-105082781D01*
X90846705Y-105116266D01*
X90820347Y-105119100D01*
X90761154Y-105119100D01*
X90728697Y-105125998D01*
X90575997Y-105158455D01*
X90575992Y-105158457D01*
X90403070Y-105235448D01*
X90403065Y-105235451D01*
X90249929Y-105346711D01*
X90123266Y-105487385D01*
X90028621Y-105651315D01*
X90028618Y-105651322D01*
X90002666Y-105731196D01*
X89970126Y-105831344D01*
X89950340Y-106019600D01*
X89970126Y-106207856D01*
X89970127Y-106207859D01*
X90028618Y-106387877D01*
X90028621Y-106387884D01*
X90123267Y-106551816D01*
X90206661Y-106644434D01*
X90249929Y-106692488D01*
X90403065Y-106803748D01*
X90403070Y-106803751D01*
X90575992Y-106880742D01*
X90575997Y-106880744D01*
X90761154Y-106920100D01*
X90761155Y-106920100D01*
X90950444Y-106920100D01*
X90950446Y-106920100D01*
X91135603Y-106880744D01*
X91308530Y-106803751D01*
X91461671Y-106692488D01*
X91588333Y-106551816D01*
X91682979Y-106387884D01*
X91741474Y-106207856D01*
X91759121Y-106039945D01*
X91785705Y-105975332D01*
X91793530Y-105966600D01*
X120655741Y-105966600D01*
X120676336Y-106202003D01*
X120676338Y-106202013D01*
X120737494Y-106430255D01*
X120737496Y-106430259D01*
X120737497Y-106430263D01*
X120794178Y-106551816D01*
X120837365Y-106644430D01*
X120837367Y-106644434D01*
X120945681Y-106799121D01*
X120972905Y-106838001D01*
X121139999Y-107005095D01*
X121236784Y-107072865D01*
X121333565Y-107140632D01*
X121333567Y-107140633D01*
X121333570Y-107140635D01*
X121547737Y-107240503D01*
X121775992Y-107301663D01*
X121952434Y-107317100D01*
X122011399Y-107322259D01*
X122011400Y-107322259D01*
X122011401Y-107322259D01*
X122070366Y-107317100D01*
X122246808Y-107301663D01*
X122475063Y-107240503D01*
X122689230Y-107140635D01*
X122882801Y-107005095D01*
X123004729Y-106883166D01*
X123066048Y-106849684D01*
X123135740Y-106854668D01*
X123191674Y-106896539D01*
X123208589Y-106927517D01*
X123257602Y-107058928D01*
X123257606Y-107058935D01*
X123343852Y-107174144D01*
X123343855Y-107174147D01*
X123459064Y-107260393D01*
X123459071Y-107260397D01*
X123593917Y-107310691D01*
X123593916Y-107310691D01*
X123600844Y-107311435D01*
X123653527Y-107317100D01*
X125449272Y-107317099D01*
X125508883Y-107310691D01*
X125643731Y-107260396D01*
X125758946Y-107174146D01*
X125845196Y-107058931D01*
X125895491Y-106924083D01*
X125901900Y-106864473D01*
X125901899Y-105068728D01*
X125895491Y-105009117D01*
X125894210Y-105005683D01*
X125845197Y-104874271D01*
X125845193Y-104874264D01*
X125758947Y-104759055D01*
X125758944Y-104759052D01*
X125643735Y-104672806D01*
X125643728Y-104672802D01*
X125512317Y-104623789D01*
X125456383Y-104581918D01*
X125431966Y-104516453D01*
X125446818Y-104448180D01*
X125467963Y-104419932D01*
X125589895Y-104298001D01*
X125725435Y-104104430D01*
X125825303Y-103890263D01*
X125886463Y-103662008D01*
X125907059Y-103426600D01*
X125886463Y-103191192D01*
X125825303Y-102962937D01*
X125725435Y-102748771D01*
X125719825Y-102740758D01*
X125589894Y-102555197D01*
X125422802Y-102388106D01*
X125422796Y-102388101D01*
X125237242Y-102258175D01*
X125193617Y-102203598D01*
X125186423Y-102134100D01*
X125217946Y-102071745D01*
X125237242Y-102055025D01*
X125259426Y-102039491D01*
X125422801Y-101925095D01*
X125589895Y-101758001D01*
X125725435Y-101564430D01*
X125825303Y-101350263D01*
X125886463Y-101122008D01*
X125907059Y-100886600D01*
X125886463Y-100651192D01*
X125825303Y-100422937D01*
X125725435Y-100208771D01*
X125719825Y-100200758D01*
X125589894Y-100015197D01*
X125422802Y-99848106D01*
X125422795Y-99848101D01*
X125418286Y-99844944D01*
X125370667Y-99811600D01*
X125229234Y-99712567D01*
X125229230Y-99712565D01*
X125129931Y-99666261D01*
X125015063Y-99612697D01*
X125015059Y-99612696D01*
X125015055Y-99612694D01*
X124786813Y-99551538D01*
X124786803Y-99551536D01*
X124551401Y-99530941D01*
X124551399Y-99530941D01*
X124315996Y-99551536D01*
X124315986Y-99551538D01*
X124087744Y-99612694D01*
X124087735Y-99612698D01*
X123873571Y-99712564D01*
X123873569Y-99712565D01*
X123679997Y-99848105D01*
X123512905Y-100015197D01*
X123382975Y-100200758D01*
X123328398Y-100244383D01*
X123258900Y-100251577D01*
X123196545Y-100220054D01*
X123179825Y-100200758D01*
X123049894Y-100015197D01*
X122882802Y-99848106D01*
X122882795Y-99848101D01*
X122878286Y-99844944D01*
X122830667Y-99811600D01*
X122689234Y-99712567D01*
X122689230Y-99712565D01*
X122589931Y-99666261D01*
X122475063Y-99612697D01*
X122475059Y-99612696D01*
X122475055Y-99612694D01*
X122246813Y-99551538D01*
X122246803Y-99551536D01*
X122011401Y-99530941D01*
X122011399Y-99530941D01*
X121775996Y-99551536D01*
X121775986Y-99551538D01*
X121547744Y-99612694D01*
X121547735Y-99612698D01*
X121333571Y-99712564D01*
X121333569Y-99712565D01*
X121139997Y-99848105D01*
X120972905Y-100015197D01*
X120837365Y-100208769D01*
X120837364Y-100208771D01*
X120737498Y-100422935D01*
X120737494Y-100422944D01*
X120676338Y-100651186D01*
X120676336Y-100651196D01*
X120655741Y-100886599D01*
X120655741Y-100886600D01*
X120676336Y-101122003D01*
X120676338Y-101122013D01*
X120737494Y-101350255D01*
X120737496Y-101350259D01*
X120737497Y-101350263D01*
X120818668Y-101524335D01*
X120837365Y-101564430D01*
X120837367Y-101564434D01*
X120931691Y-101699142D01*
X120972901Y-101757996D01*
X120972906Y-101758002D01*
X121139997Y-101925093D01*
X121140003Y-101925098D01*
X121325558Y-102055025D01*
X121369183Y-102109602D01*
X121376377Y-102179100D01*
X121344854Y-102241455D01*
X121325558Y-102258175D01*
X121139997Y-102388105D01*
X120972905Y-102555197D01*
X120837365Y-102748769D01*
X120837364Y-102748771D01*
X120737498Y-102962935D01*
X120737494Y-102962944D01*
X120676338Y-103191186D01*
X120676336Y-103191196D01*
X120655741Y-103426599D01*
X120655741Y-103426600D01*
X120676336Y-103662003D01*
X120676338Y-103662013D01*
X120737494Y-103890255D01*
X120737496Y-103890259D01*
X120737497Y-103890263D01*
X120741400Y-103898632D01*
X120837365Y-104104430D01*
X120837367Y-104104434D01*
X120945681Y-104259121D01*
X120972901Y-104297996D01*
X120972906Y-104298002D01*
X121139997Y-104465093D01*
X121140003Y-104465098D01*
X121325558Y-104595025D01*
X121369183Y-104649602D01*
X121376377Y-104719100D01*
X121344854Y-104781455D01*
X121325558Y-104798175D01*
X121139997Y-104928105D01*
X120972905Y-105095197D01*
X120837365Y-105288769D01*
X120837364Y-105288771D01*
X120737498Y-105502935D01*
X120737494Y-105502944D01*
X120676338Y-105731186D01*
X120676336Y-105731196D01*
X120655741Y-105966599D01*
X120655741Y-105966600D01*
X91793530Y-105966600D01*
X91794752Y-105965236D01*
X95176586Y-102583402D01*
X95188848Y-102573580D01*
X95188665Y-102573359D01*
X95194667Y-102568392D01*
X95194677Y-102568386D01*
X95242041Y-102517948D01*
X95262920Y-102497070D01*
X95267170Y-102491589D01*
X95270951Y-102487161D01*
X95302862Y-102453182D01*
X95312513Y-102435624D01*
X95323196Y-102419361D01*
X95335473Y-102403536D01*
X95353983Y-102360758D01*
X95356543Y-102355532D01*
X95378997Y-102314692D01*
X95383978Y-102295287D01*
X95390282Y-102276879D01*
X95398238Y-102258495D01*
X95405529Y-102212453D01*
X95406708Y-102206762D01*
X95418300Y-102161619D01*
X95418300Y-102141583D01*
X95419827Y-102122182D01*
X95422960Y-102102404D01*
X95418575Y-102056015D01*
X95418300Y-102050177D01*
X95418300Y-99733300D01*
X95437985Y-99666261D01*
X95490789Y-99620506D01*
X95542300Y-99609300D01*
X96521880Y-99609300D01*
X105265052Y-99609300D01*
X105332091Y-99628985D01*
X105357200Y-99650326D01*
X105362926Y-99656685D01*
X105362930Y-99656689D01*
X105516065Y-99767948D01*
X105516070Y-99767951D01*
X105633508Y-99820239D01*
X105686745Y-99865489D01*
X105707066Y-99932339D01*
X105688020Y-99999562D01*
X105635654Y-100045817D01*
X105633510Y-100046796D01*
X105617671Y-100053847D01*
X105617665Y-100053851D01*
X105464529Y-100165111D01*
X105337866Y-100305785D01*
X105243221Y-100469715D01*
X105243218Y-100469722D01*
X105184727Y-100649740D01*
X105184726Y-100649744D01*
X105164940Y-100838000D01*
X105184726Y-101026256D01*
X105184727Y-101026259D01*
X105243218Y-101206277D01*
X105243221Y-101206284D01*
X105337867Y-101370216D01*
X105464529Y-101510888D01*
X105617665Y-101622148D01*
X105617670Y-101622151D01*
X105790592Y-101699142D01*
X105790597Y-101699144D01*
X105975754Y-101738500D01*
X105975755Y-101738500D01*
X106165044Y-101738500D01*
X106165046Y-101738500D01*
X106350203Y-101699144D01*
X106523130Y-101622151D01*
X106676271Y-101510888D01*
X106802933Y-101370216D01*
X106897579Y-101206284D01*
X106956074Y-101026256D01*
X106975860Y-100838000D01*
X106956074Y-100649744D01*
X106897579Y-100469716D01*
X106802933Y-100305784D01*
X106676271Y-100165112D01*
X106676270Y-100165111D01*
X106523134Y-100053851D01*
X106523132Y-100053850D01*
X106523125Y-100053847D01*
X106498990Y-100043101D01*
X106405690Y-100001560D01*
X106352454Y-99956309D01*
X106332133Y-99889460D01*
X106351179Y-99822236D01*
X106403546Y-99775981D01*
X106405581Y-99775051D01*
X106421530Y-99767951D01*
X106574671Y-99656688D01*
X106701333Y-99516016D01*
X106795979Y-99352084D01*
X106854474Y-99172056D01*
X106874260Y-98983800D01*
X106854474Y-98795544D01*
X106795979Y-98615516D01*
X106701333Y-98451584D01*
X106574671Y-98310912D01*
X106574670Y-98310911D01*
X106421534Y-98199651D01*
X106421529Y-98199648D01*
X106248607Y-98122657D01*
X106248602Y-98122655D01*
X106102801Y-98091665D01*
X106063446Y-98083300D01*
X105874154Y-98083300D01*
X105841697Y-98090198D01*
X105688997Y-98122655D01*
X105688992Y-98122657D01*
X105516070Y-98199648D01*
X105516065Y-98199651D01*
X105362930Y-98310910D01*
X105362926Y-98310914D01*
X105357200Y-98317274D01*
X105297713Y-98353921D01*
X105265052Y-98358300D01*
X95542300Y-98358300D01*
X95475261Y-98338615D01*
X95429506Y-98285811D01*
X95418300Y-98234300D01*
X95418300Y-98018600D01*
X110067140Y-98018600D01*
X110086926Y-98206856D01*
X110086927Y-98206859D01*
X110145418Y-98386877D01*
X110145421Y-98386884D01*
X110240067Y-98550816D01*
X110341785Y-98663785D01*
X110366729Y-98691488D01*
X110519865Y-98802748D01*
X110519870Y-98802751D01*
X110692792Y-98879742D01*
X110692797Y-98879744D01*
X110877954Y-98919100D01*
X110877955Y-98919100D01*
X111067244Y-98919100D01*
X111067246Y-98919100D01*
X111252403Y-98879744D01*
X111425330Y-98802751D01*
X111578471Y-98691488D01*
X111581388Y-98688247D01*
X111584200Y-98685126D01*
X111643687Y-98648479D01*
X111676348Y-98644100D01*
X113278348Y-98644100D01*
X113345387Y-98663785D01*
X113366029Y-98680419D01*
X115128554Y-100442945D01*
X115162039Y-100504268D01*
X115164193Y-100517661D01*
X115166925Y-100543650D01*
X115166927Y-100543660D01*
X115225418Y-100723677D01*
X115225421Y-100723684D01*
X115320067Y-100887616D01*
X115415237Y-100993313D01*
X115446729Y-101028288D01*
X115599865Y-101139548D01*
X115599870Y-101139551D01*
X115772792Y-101216542D01*
X115772797Y-101216544D01*
X115957954Y-101255900D01*
X115957955Y-101255900D01*
X116147244Y-101255900D01*
X116147246Y-101255900D01*
X116332403Y-101216544D01*
X116505330Y-101139551D01*
X116658471Y-101028288D01*
X116785133Y-100887616D01*
X116879779Y-100723684D01*
X116938274Y-100543656D01*
X116958060Y-100355400D01*
X116938274Y-100167144D01*
X116879779Y-99987116D01*
X116785133Y-99823184D01*
X116658471Y-99682512D01*
X116658470Y-99682511D01*
X116505334Y-99571251D01*
X116505329Y-99571248D01*
X116332407Y-99494257D01*
X116332402Y-99494255D01*
X116186601Y-99463265D01*
X116147246Y-99454900D01*
X115961053Y-99454900D01*
X115894014Y-99435215D01*
X115873372Y-99418581D01*
X114089603Y-97634812D01*
X114079780Y-97622550D01*
X114079559Y-97622734D01*
X114074586Y-97616723D01*
X114024164Y-97569373D01*
X114013719Y-97558928D01*
X114003275Y-97548483D01*
X113997786Y-97544225D01*
X113993361Y-97540447D01*
X113959382Y-97508538D01*
X113959380Y-97508536D01*
X113959377Y-97508535D01*
X113941829Y-97498888D01*
X113925563Y-97488204D01*
X113909733Y-97475925D01*
X113866968Y-97457418D01*
X113861722Y-97454848D01*
X113820893Y-97432403D01*
X113820892Y-97432402D01*
X113801493Y-97427422D01*
X113783081Y-97421118D01*
X113764698Y-97413162D01*
X113764692Y-97413160D01*
X113718674Y-97405872D01*
X113712952Y-97404687D01*
X113667821Y-97393100D01*
X113667819Y-97393100D01*
X113647784Y-97393100D01*
X113628386Y-97391573D01*
X113620962Y-97390397D01*
X113608605Y-97388440D01*
X113608604Y-97388440D01*
X113562216Y-97392825D01*
X113556378Y-97393100D01*
X111676348Y-97393100D01*
X111609309Y-97373415D01*
X111584200Y-97352074D01*
X111578473Y-97345714D01*
X111578469Y-97345710D01*
X111425334Y-97234451D01*
X111425329Y-97234448D01*
X111252407Y-97157457D01*
X111252402Y-97157455D01*
X111106601Y-97126465D01*
X111067246Y-97118100D01*
X110877954Y-97118100D01*
X110845497Y-97124998D01*
X110692797Y-97157455D01*
X110692792Y-97157457D01*
X110519870Y-97234448D01*
X110519865Y-97234451D01*
X110366729Y-97345711D01*
X110240066Y-97486385D01*
X110145421Y-97650315D01*
X110145418Y-97650322D01*
X110086927Y-97830340D01*
X110086926Y-97830344D01*
X110067140Y-98018600D01*
X95418300Y-98018600D01*
X95418300Y-97862201D01*
X95437985Y-97795162D01*
X95450150Y-97779229D01*
X95519559Y-97702143D01*
X95614205Y-97538211D01*
X95672700Y-97358183D01*
X95692486Y-97169927D01*
X95685250Y-97101083D01*
X95689498Y-97053520D01*
X95691434Y-97046853D01*
X95691437Y-97046849D01*
X95698729Y-97000805D01*
X95699906Y-96995124D01*
X95711500Y-96949972D01*
X95711500Y-96929936D01*
X95713027Y-96910535D01*
X95716160Y-96890757D01*
X95711775Y-96844368D01*
X95711500Y-96838530D01*
X95711500Y-96314999D01*
X115966951Y-96314999D01*
X115971310Y-96353696D01*
X115971700Y-96360641D01*
X115971700Y-96612869D01*
X115971701Y-96612876D01*
X115978108Y-96672483D01*
X116028402Y-96807328D01*
X116028406Y-96807335D01*
X116114652Y-96922544D01*
X116114655Y-96922547D01*
X116229864Y-97008793D01*
X116229871Y-97008797D01*
X116274818Y-97025561D01*
X116364717Y-97059091D01*
X116424327Y-97065500D01*
X116676564Y-97065499D01*
X116683508Y-97065888D01*
X116722200Y-97070249D01*
X116760890Y-97065888D01*
X116767834Y-97065499D01*
X117826561Y-97065499D01*
X117833501Y-97065888D01*
X117860663Y-97068949D01*
X117872199Y-97070249D01*
X117872200Y-97070249D01*
X117872201Y-97070249D01*
X117883737Y-97068949D01*
X117910897Y-97065888D01*
X117917838Y-97065499D01*
X118170071Y-97065499D01*
X118170072Y-97065499D01*
X118229683Y-97059091D01*
X118364531Y-97008796D01*
X118479746Y-96922546D01*
X118565996Y-96807331D01*
X118616291Y-96672483D01*
X118622700Y-96612873D01*
X118622699Y-96360632D01*
X118623089Y-96353684D01*
X118627449Y-96315000D01*
X118623088Y-96276302D01*
X118622699Y-96269365D01*
X118622699Y-95420635D01*
X118623089Y-95413687D01*
X118623090Y-95413685D01*
X118627449Y-95375000D01*
X118623088Y-95336305D01*
X118622699Y-95329362D01*
X118622699Y-94480638D01*
X118623089Y-94473690D01*
X118627449Y-94435000D01*
X118627449Y-94434999D01*
X118623089Y-94396309D01*
X118622699Y-94389361D01*
X118622699Y-94137129D01*
X118622698Y-94137123D01*
X118622697Y-94137116D01*
X118616291Y-94077517D01*
X118608434Y-94056452D01*
X118565997Y-93942671D01*
X118565993Y-93942664D01*
X118479747Y-93827455D01*
X118479744Y-93827452D01*
X118364535Y-93741206D01*
X118364528Y-93741202D01*
X118229682Y-93690908D01*
X118229683Y-93690908D01*
X118170083Y-93684501D01*
X118170081Y-93684500D01*
X118170073Y-93684500D01*
X118170065Y-93684500D01*
X117917831Y-93684500D01*
X117910892Y-93684110D01*
X117883894Y-93681068D01*
X117872202Y-93679751D01*
X117872199Y-93679751D01*
X117866279Y-93680418D01*
X117833505Y-93684110D01*
X117826569Y-93684500D01*
X116767843Y-93684500D01*
X116760897Y-93684110D01*
X116730135Y-93680644D01*
X116722200Y-93679751D01*
X116722199Y-93679751D01*
X116683502Y-93684110D01*
X116676557Y-93684500D01*
X116424330Y-93684500D01*
X116424323Y-93684501D01*
X116364716Y-93690908D01*
X116229871Y-93741202D01*
X116229864Y-93741206D01*
X116114655Y-93827452D01*
X116114652Y-93827455D01*
X116028406Y-93942664D01*
X116028402Y-93942671D01*
X115978108Y-94077517D01*
X115975288Y-94103751D01*
X115971701Y-94137123D01*
X115971700Y-94137135D01*
X115971700Y-94389369D01*
X115971310Y-94396307D01*
X115966951Y-94435000D01*
X115971310Y-94473690D01*
X115971700Y-94480630D01*
X115971700Y-95329366D01*
X115971310Y-95336304D01*
X115966951Y-95375000D01*
X115971310Y-95413687D01*
X115971700Y-95420632D01*
X115971700Y-96269356D01*
X115971310Y-96276302D01*
X115966951Y-96314999D01*
X95711500Y-96314999D01*
X95711500Y-96048433D01*
X95713224Y-96032819D01*
X95712938Y-96032792D01*
X95713672Y-96025029D01*
X95711500Y-95955898D01*
X95711500Y-95926346D01*
X95711500Y-95926345D01*
X95710629Y-95919454D01*
X95710172Y-95913640D01*
X95709204Y-95882840D01*
X95708709Y-95867068D01*
X95703122Y-95847839D01*
X95699174Y-95828775D01*
X95698189Y-95820975D01*
X95697700Y-95813200D01*
X95697700Y-94056452D01*
X95717385Y-93989413D01*
X95734019Y-93968771D01*
X97681572Y-92021219D01*
X97742895Y-91987734D01*
X97769253Y-91984900D01*
X97828444Y-91984900D01*
X97828446Y-91984900D01*
X98013603Y-91945544D01*
X98186530Y-91868551D01*
X98339671Y-91757288D01*
X98466333Y-91616616D01*
X98560979Y-91452684D01*
X98619474Y-91272656D01*
X98639260Y-91084400D01*
X98619474Y-90896144D01*
X98560979Y-90716116D01*
X98466333Y-90552184D01*
X98339671Y-90411512D01*
X98327415Y-90402607D01*
X98284751Y-90347280D01*
X98278772Y-90277667D01*
X98281318Y-90267380D01*
X98300423Y-90202320D01*
X98300424Y-90202316D01*
X98320900Y-90059900D01*
X98320900Y-89294057D01*
X98340585Y-89227018D01*
X98393389Y-89181263D01*
X98443542Y-89170064D01*
X101832745Y-89133024D01*
X101899995Y-89151975D01*
X101946325Y-89204276D01*
X101958100Y-89257017D01*
X101958100Y-90509392D01*
X101938415Y-90576431D01*
X101885611Y-90622186D01*
X101835798Y-90633380D01*
X100369182Y-90653470D01*
X100369178Y-90653470D01*
X100369175Y-90653471D01*
X100265260Y-90665725D01*
X100215453Y-90676917D01*
X100215445Y-90676920D01*
X100117721Y-90709819D01*
X100116296Y-90710299D01*
X100116294Y-90710299D01*
X100116292Y-90710301D01*
X99995262Y-90788083D01*
X99995251Y-90788091D01*
X99942459Y-90833835D01*
X99848233Y-90942576D01*
X99848230Y-90942580D01*
X99788464Y-91073446D01*
X99768778Y-91140487D01*
X99768776Y-91140492D01*
X99748300Y-91282913D01*
X99748300Y-92784784D01*
X99728615Y-92851823D01*
X99675811Y-92897578D01*
X99638876Y-92907924D01*
X99620548Y-92910093D01*
X99620546Y-92910093D01*
X99586581Y-92917737D01*
X99570810Y-92921286D01*
X99481648Y-92951316D01*
X99471793Y-92954635D01*
X99350762Y-93032417D01*
X99350751Y-93032426D01*
X99297959Y-93078170D01*
X99203733Y-93186911D01*
X99203730Y-93186915D01*
X99143964Y-93317781D01*
X99124278Y-93384822D01*
X99124276Y-93384827D01*
X99111957Y-93470514D01*
X99103800Y-93527247D01*
X99103800Y-94146900D01*
X99103801Y-94146909D01*
X99115352Y-94254350D01*
X99115354Y-94254362D01*
X99126560Y-94305872D01*
X99160683Y-94408397D01*
X99160686Y-94408403D01*
X99238471Y-94529437D01*
X99238479Y-94529448D01*
X99284223Y-94582240D01*
X99284226Y-94582243D01*
X99284230Y-94582247D01*
X99392964Y-94676467D01*
X99392967Y-94676468D01*
X99392968Y-94676469D01*
X99453568Y-94704145D01*
X99523841Y-94736238D01*
X99568657Y-94749397D01*
X99590875Y-94755922D01*
X99590880Y-94755923D01*
X99590884Y-94755924D01*
X99733300Y-94776400D01*
X99733303Y-94776400D01*
X99945265Y-94776400D01*
X99945266Y-94776400D01*
X99952360Y-94776201D01*
X99959455Y-94776002D01*
X99980323Y-94774829D01*
X99987285Y-94774829D01*
X100008155Y-94776002D01*
X100022337Y-94776400D01*
X100189288Y-94776400D01*
X100256327Y-94796085D01*
X100273854Y-94809710D01*
X100280501Y-94815909D01*
X100280502Y-94815909D01*
X100280503Y-94815910D01*
X100351304Y-94871041D01*
X100482090Y-94931011D01*
X100549099Y-94950798D01*
X100691483Y-94971492D01*
X114937036Y-94993308D01*
X115044889Y-94981838D01*
X115096590Y-94970632D01*
X115199504Y-94936422D01*
X115320543Y-94858634D01*
X115373347Y-94812879D01*
X115467567Y-94704145D01*
X115527338Y-94573268D01*
X115547023Y-94506229D01*
X115547024Y-94506225D01*
X115567500Y-94363809D01*
X115567500Y-93118056D01*
X115587185Y-93051017D01*
X115639989Y-93005262D01*
X115687852Y-92994110D01*
X115820107Y-92990221D01*
X115820115Y-92990220D01*
X115820117Y-92990220D01*
X115899243Y-92979942D01*
X115919950Y-92977253D01*
X115967815Y-92966101D01*
X115967821Y-92966099D01*
X115967825Y-92966098D01*
X116016837Y-92949383D01*
X116063104Y-92933606D01*
X116184143Y-92855818D01*
X116236947Y-92810063D01*
X116331167Y-92701329D01*
X116390938Y-92570452D01*
X116410623Y-92503413D01*
X116410624Y-92503409D01*
X116431100Y-92360993D01*
X116431100Y-80058780D01*
X116419120Y-79949382D01*
X116407505Y-79896984D01*
X116372137Y-79792777D01*
X116372135Y-79792773D01*
X116293402Y-79672357D01*
X116293398Y-79672352D01*
X116247230Y-79619911D01*
X116247225Y-79619907D01*
X116137753Y-79526548D01*
X116006408Y-79467810D01*
X116006401Y-79467808D01*
X115939223Y-79448655D01*
X115939218Y-79448654D01*
X115796643Y-79429299D01*
X113206021Y-79449698D01*
X113138829Y-79430542D01*
X113092660Y-79378100D01*
X113081045Y-79325940D01*
X113080800Y-79197200D01*
X113080799Y-79197199D01*
X113080800Y-79197199D01*
X108274086Y-79127028D01*
X108207341Y-79106367D01*
X108162362Y-79052900D01*
X108152197Y-78994402D01*
X108152437Y-78990948D01*
X108152439Y-78990941D01*
X108150921Y-78128649D01*
X108138236Y-78017002D01*
X108126039Y-77963590D01*
X108089002Y-77857500D01*
X108008945Y-77737949D01*
X107974325Y-77699486D01*
X107962316Y-77686143D01*
X107962199Y-77686013D01*
X107851706Y-77593862D01*
X107719725Y-77536572D01*
X107719715Y-77536568D01*
X107652328Y-77518156D01*
X107652327Y-77518155D01*
X107652324Y-77518155D01*
X107509548Y-77500369D01*
X107509546Y-77500369D01*
X106930839Y-77511288D01*
X106863440Y-77492871D01*
X106816697Y-77440940D01*
X106804500Y-77387310D01*
X106804500Y-72499622D01*
X106824185Y-72432583D01*
X106869072Y-72390790D01*
X106965488Y-72338144D01*
X107028843Y-72274789D01*
X107090166Y-72241307D01*
X107159857Y-72246293D01*
X107204203Y-72274793D01*
X107908144Y-72978734D01*
X107917969Y-72990998D01*
X107918190Y-72990816D01*
X107923160Y-72996823D01*
X107923163Y-72996826D01*
X107923164Y-72996827D01*
X107973601Y-73044191D01*
X107994480Y-73065070D01*
X107999954Y-73069316D01*
X108004392Y-73073106D01*
X108038368Y-73105012D01*
X108038372Y-73105014D01*
X108055923Y-73114663D01*
X108072181Y-73125342D01*
X108088014Y-73137624D01*
X108109965Y-73147122D01*
X108130787Y-73156133D01*
X108136031Y-73158702D01*
X108176858Y-73181147D01*
X108196262Y-73186129D01*
X108214660Y-73192428D01*
X108233055Y-73200388D01*
X108279079Y-73207676D01*
X108284782Y-73208857D01*
X108329931Y-73220450D01*
X108349966Y-73220450D01*
X108369363Y-73221976D01*
X108389146Y-73225110D01*
X108435534Y-73220725D01*
X108441372Y-73220450D01*
X112137098Y-73220450D01*
X112204137Y-73240135D01*
X112224779Y-73256769D01*
X114767381Y-75799371D01*
X114800866Y-75860694D01*
X114803700Y-75887052D01*
X114803700Y-77199470D01*
X114803701Y-77199476D01*
X114810108Y-77259083D01*
X114860402Y-77393928D01*
X114860406Y-77393935D01*
X114946652Y-77509144D01*
X114946655Y-77509147D01*
X115061864Y-77595393D01*
X115061871Y-77595397D01*
X115196717Y-77645691D01*
X115196716Y-77645691D01*
X115203644Y-77646435D01*
X115256327Y-77652100D01*
X117052072Y-77652099D01*
X117111683Y-77645691D01*
X117246531Y-77595396D01*
X117361746Y-77509146D01*
X117447996Y-77393931D01*
X117498291Y-77259083D01*
X117504700Y-77199473D01*
X117504699Y-75615800D01*
X125695141Y-75615800D01*
X125715736Y-75851203D01*
X125715738Y-75851213D01*
X125776894Y-76079455D01*
X125776896Y-76079459D01*
X125776897Y-76079463D01*
X125876765Y-76293630D01*
X125876767Y-76293634D01*
X125985081Y-76448321D01*
X126012305Y-76487201D01*
X126179399Y-76654295D01*
X126276184Y-76722065D01*
X126372965Y-76789832D01*
X126372967Y-76789833D01*
X126372970Y-76789835D01*
X126587137Y-76889703D01*
X126815392Y-76950863D01*
X127003718Y-76967339D01*
X127050799Y-76971459D01*
X127050800Y-76971459D01*
X127050801Y-76971459D01*
X127090034Y-76968026D01*
X127286208Y-76950863D01*
X127514463Y-76889703D01*
X127728630Y-76789835D01*
X127922201Y-76654295D01*
X128089295Y-76487201D01*
X128224835Y-76293630D01*
X128324703Y-76079463D01*
X128385863Y-75851208D01*
X128406459Y-75615800D01*
X128385863Y-75380392D01*
X128324703Y-75152137D01*
X128224835Y-74937971D01*
X128220245Y-74931415D01*
X128089294Y-74744397D01*
X127922202Y-74577306D01*
X127922195Y-74577301D01*
X127728634Y-74441767D01*
X127728630Y-74441765D01*
X127728628Y-74441764D01*
X127514463Y-74341897D01*
X127514459Y-74341896D01*
X127514455Y-74341894D01*
X127286213Y-74280738D01*
X127286203Y-74280736D01*
X127050801Y-74260141D01*
X127050799Y-74260141D01*
X126815396Y-74280736D01*
X126815386Y-74280738D01*
X126587144Y-74341894D01*
X126587135Y-74341898D01*
X126372971Y-74441764D01*
X126372969Y-74441765D01*
X126179397Y-74577305D01*
X126012305Y-74744397D01*
X125876765Y-74937969D01*
X125876764Y-74937971D01*
X125776898Y-75152135D01*
X125776894Y-75152144D01*
X125715738Y-75380386D01*
X125715736Y-75380396D01*
X125695141Y-75615799D01*
X125695141Y-75615800D01*
X117504699Y-75615800D01*
X117504699Y-75403728D01*
X117498291Y-75344117D01*
X117447996Y-75209269D01*
X117447995Y-75209268D01*
X117447993Y-75209264D01*
X117361747Y-75094055D01*
X117361744Y-75094052D01*
X117246535Y-75007806D01*
X117246528Y-75007802D01*
X117111682Y-74957508D01*
X117111683Y-74957508D01*
X117052083Y-74951101D01*
X117052081Y-74951100D01*
X117052073Y-74951100D01*
X117052065Y-74951100D01*
X115739653Y-74951100D01*
X115672614Y-74931415D01*
X115651972Y-74914781D01*
X114436858Y-73699667D01*
X114403373Y-73638344D01*
X114408357Y-73568652D01*
X114450229Y-73512719D01*
X114515693Y-73488302D01*
X114524790Y-73487986D01*
X119922937Y-73498936D01*
X122835896Y-73504846D01*
X122835898Y-73504846D01*
X122835898Y-73504845D01*
X122835905Y-73504846D01*
X122944316Y-73493309D01*
X122996276Y-73482013D01*
X123099685Y-73447503D01*
X123220589Y-73369504D01*
X123273313Y-73323657D01*
X123367341Y-73214759D01*
X123426884Y-73083778D01*
X123445615Y-73019575D01*
X123445929Y-73018663D01*
X123446452Y-73016705D01*
X123446454Y-73016700D01*
X123466681Y-72874249D01*
X123466501Y-72771395D01*
X123465268Y-72064343D01*
X123441715Y-58568720D01*
X123429887Y-58460887D01*
X123418507Y-58409211D01*
X123383943Y-58306381D01*
X123305747Y-58185605D01*
X123259814Y-58132956D01*
X123150762Y-58039104D01*
X123019683Y-57979776D01*
X122952579Y-57960318D01*
X122952575Y-57960317D01*
X122952570Y-57960316D01*
X122952566Y-57960315D01*
X122810085Y-57940321D01*
X116056562Y-57963137D01*
X115989456Y-57943679D01*
X115943523Y-57891030D01*
X115932156Y-57837375D01*
X115933207Y-57763501D01*
X115951319Y-56489600D01*
X125491941Y-56489600D01*
X125512536Y-56725003D01*
X125512538Y-56725013D01*
X125573694Y-56953255D01*
X125573696Y-56953259D01*
X125573697Y-56953263D01*
X125673565Y-57167430D01*
X125673567Y-57167434D01*
X125781881Y-57322121D01*
X125809105Y-57361001D01*
X125976199Y-57528095D01*
X126072984Y-57595865D01*
X126169765Y-57663632D01*
X126169767Y-57663633D01*
X126169770Y-57663635D01*
X126383937Y-57763503D01*
X126612192Y-57824663D01*
X126757488Y-57837375D01*
X126847599Y-57845259D01*
X126847600Y-57845259D01*
X126847601Y-57845259D01*
X126886834Y-57841826D01*
X127083008Y-57824663D01*
X127311263Y-57763503D01*
X127525430Y-57663635D01*
X127719001Y-57528095D01*
X127886095Y-57361001D01*
X128021635Y-57167430D01*
X128121503Y-56953263D01*
X128182663Y-56725008D01*
X128203259Y-56489600D01*
X128182663Y-56254192D01*
X128121503Y-56025937D01*
X128021635Y-55811771D01*
X127886095Y-55618199D01*
X127886094Y-55618197D01*
X127719002Y-55451106D01*
X127718996Y-55451101D01*
X127533442Y-55321175D01*
X127489817Y-55266598D01*
X127482623Y-55197100D01*
X127514146Y-55134745D01*
X127533442Y-55118025D01*
X127555626Y-55102491D01*
X127719001Y-54988095D01*
X127886095Y-54821001D01*
X128021635Y-54627430D01*
X128121503Y-54413263D01*
X128182663Y-54185008D01*
X128203259Y-53949600D01*
X128182663Y-53714192D01*
X128121503Y-53485937D01*
X128021635Y-53271771D01*
X128009239Y-53254068D01*
X127886096Y-53078200D01*
X127857967Y-53050071D01*
X127764167Y-52956271D01*
X127730684Y-52894951D01*
X127735668Y-52825259D01*
X127777539Y-52769325D01*
X127808515Y-52752410D01*
X127939931Y-52703396D01*
X128055146Y-52617146D01*
X128141396Y-52501931D01*
X128191691Y-52367083D01*
X128198100Y-52307473D01*
X128198099Y-50511728D01*
X128191691Y-50452117D01*
X128141396Y-50317269D01*
X128141395Y-50317268D01*
X128141393Y-50317264D01*
X128055147Y-50202055D01*
X128055144Y-50202052D01*
X127939935Y-50115806D01*
X127939928Y-50115802D01*
X127805082Y-50065508D01*
X127805083Y-50065508D01*
X127745483Y-50059101D01*
X127745481Y-50059100D01*
X127745473Y-50059100D01*
X127745464Y-50059100D01*
X125949729Y-50059100D01*
X125949723Y-50059101D01*
X125890116Y-50065508D01*
X125755271Y-50115802D01*
X125755264Y-50115806D01*
X125640055Y-50202052D01*
X125640052Y-50202055D01*
X125553806Y-50317264D01*
X125553802Y-50317271D01*
X125503508Y-50452117D01*
X125497101Y-50511716D01*
X125497101Y-50511723D01*
X125497100Y-50511735D01*
X125497100Y-52307470D01*
X125497101Y-52307476D01*
X125503508Y-52367083D01*
X125553802Y-52501928D01*
X125553806Y-52501935D01*
X125640052Y-52617144D01*
X125640055Y-52617147D01*
X125755264Y-52703393D01*
X125755271Y-52703397D01*
X125886681Y-52752410D01*
X125942615Y-52794281D01*
X125967032Y-52859745D01*
X125952180Y-52928018D01*
X125931030Y-52956273D01*
X125809103Y-53078200D01*
X125673565Y-53271769D01*
X125673564Y-53271771D01*
X125573698Y-53485935D01*
X125573694Y-53485944D01*
X125512538Y-53714186D01*
X125512536Y-53714196D01*
X125491941Y-53949599D01*
X125491941Y-53949600D01*
X125512536Y-54185003D01*
X125512538Y-54185013D01*
X125573694Y-54413255D01*
X125573696Y-54413259D01*
X125573697Y-54413263D01*
X125673565Y-54627430D01*
X125673567Y-54627434D01*
X125809101Y-54820995D01*
X125809106Y-54821002D01*
X125976197Y-54988093D01*
X125976203Y-54988098D01*
X126161758Y-55118025D01*
X126205383Y-55172602D01*
X126212577Y-55242100D01*
X126181054Y-55304455D01*
X126161758Y-55321175D01*
X125976197Y-55451105D01*
X125809105Y-55618197D01*
X125673565Y-55811769D01*
X125673564Y-55811771D01*
X125573698Y-56025935D01*
X125573694Y-56025944D01*
X125512538Y-56254186D01*
X125512536Y-56254196D01*
X125491941Y-56489599D01*
X125491941Y-56489600D01*
X115951319Y-56489600D01*
X115997429Y-53246560D01*
X115985756Y-53131137D01*
X115985755Y-53131131D01*
X115985755Y-53131130D01*
X115973651Y-53075913D01*
X115973650Y-53075911D01*
X115973649Y-53075905D01*
X115935962Y-52966166D01*
X115929358Y-52956274D01*
X115884214Y-52888650D01*
X115863364Y-52821964D01*
X115874551Y-52768290D01*
X115908338Y-52694310D01*
X115928023Y-52627271D01*
X115928024Y-52627267D01*
X115948500Y-52484851D01*
X115948500Y-51582345D01*
X115925433Y-50429015D01*
X115912789Y-50326326D01*
X115912787Y-50326319D01*
X115912787Y-50326315D01*
X115901523Y-50277112D01*
X115901522Y-50277106D01*
X115901520Y-50277100D01*
X115901518Y-50277092D01*
X115868238Y-50179149D01*
X115868236Y-50179146D01*
X115868236Y-50179145D01*
X115790247Y-50058235D01*
X115744404Y-50005507D01*
X115744402Y-50005506D01*
X115744401Y-50005505D01*
X115744234Y-50005313D01*
X115743165Y-50004437D01*
X115635508Y-49911466D01*
X115504530Y-49851914D01*
X115504528Y-49851913D01*
X115437454Y-49832340D01*
X115295015Y-49812105D01*
X115295011Y-49812104D01*
X115295007Y-49812104D01*
X115295005Y-49812104D01*
X100883508Y-49836243D01*
X100816435Y-49816671D01*
X100770592Y-49763943D01*
X100759300Y-49712243D01*
X100759300Y-40739100D01*
X100778985Y-40672061D01*
X100831789Y-40626306D01*
X100883300Y-40615100D01*
X128857241Y-40615100D01*
X128924280Y-40634785D01*
G37*
%TD.AperFunction*%
%TA.AperFunction,Conductor*%
G36*
X78202939Y-70291985D02*
G01*
X78248694Y-70344789D01*
X78259900Y-70396300D01*
X78259900Y-72646729D01*
X78271574Y-72754734D01*
X78282892Y-72806482D01*
X78282894Y-72806489D01*
X78293508Y-72838202D01*
X78317372Y-72909504D01*
X78317374Y-72909508D01*
X78395425Y-73030362D01*
X78395430Y-73030369D01*
X78441303Y-73083071D01*
X78441306Y-73083074D01*
X78504545Y-73137624D01*
X78550249Y-73177049D01*
X78681260Y-73236527D01*
X78748343Y-73256062D01*
X78748344Y-73256062D01*
X78748983Y-73256152D01*
X78752605Y-73256669D01*
X78752667Y-73256673D01*
X78890805Y-73276221D01*
X78890810Y-73276220D01*
X78890811Y-73276221D01*
X84028945Y-73264751D01*
X90023442Y-73251371D01*
X90127429Y-73240322D01*
X90127437Y-73240320D01*
X90127439Y-73240320D01*
X90133483Y-73239034D01*
X90177342Y-73229711D01*
X90276833Y-73197502D01*
X90398774Y-73121134D01*
X90452109Y-73075999D01*
X90547592Y-72968373D01*
X90608888Y-72838202D01*
X90629355Y-72771397D01*
X90629355Y-72771396D01*
X90651494Y-72629229D01*
X90677507Y-70403654D01*
X90677505Y-70403642D01*
X90677506Y-70403629D01*
X90677421Y-70401653D01*
X90677534Y-70401192D01*
X90677546Y-70400243D01*
X90677769Y-70400245D01*
X90694193Y-70333827D01*
X90744972Y-70285835D01*
X90801305Y-70272300D01*
X100360900Y-70272300D01*
X100427939Y-70291985D01*
X100473694Y-70344789D01*
X100484900Y-70396300D01*
X100484900Y-71681800D01*
X100484901Y-71681809D01*
X100496452Y-71789250D01*
X100496454Y-71789262D01*
X100507660Y-71840772D01*
X100541783Y-71943297D01*
X100541786Y-71943303D01*
X100619571Y-72064337D01*
X100619579Y-72064348D01*
X100665323Y-72117140D01*
X100665326Y-72117143D01*
X100665330Y-72117147D01*
X100774064Y-72211367D01*
X100774067Y-72211368D01*
X100774068Y-72211369D01*
X100904936Y-72271136D01*
X100904937Y-72271136D01*
X100904941Y-72271138D01*
X100954636Y-72285730D01*
X101013414Y-72323505D01*
X101042438Y-72387061D01*
X101043700Y-72404707D01*
X101043700Y-75397816D01*
X101024015Y-75464855D01*
X100971211Y-75510610D01*
X100920712Y-75521812D01*
X77282310Y-75714780D01*
X77215112Y-75695643D01*
X77168928Y-75643214D01*
X77157303Y-75591846D01*
X77137300Y-73251371D01*
X77112908Y-70397360D01*
X77132018Y-70330154D01*
X77184429Y-70283950D01*
X77236903Y-70272300D01*
X78135900Y-70272300D01*
X78202939Y-70291985D01*
G37*
%TD.AperFunction*%
%TA.AperFunction,Conductor*%
G36*
X93704787Y-64519785D02*
G01*
X93725429Y-64536419D01*
X94774597Y-65585588D01*
X94784422Y-65597851D01*
X94784643Y-65597669D01*
X94789614Y-65603678D01*
X94815617Y-65628095D01*
X94840035Y-65651026D01*
X94860929Y-65671920D01*
X94866411Y-65676173D01*
X94870843Y-65679957D01*
X94904818Y-65711862D01*
X94922376Y-65721514D01*
X94938635Y-65732195D01*
X94954464Y-65744473D01*
X94997238Y-65762982D01*
X95002456Y-65765538D01*
X95043308Y-65787997D01*
X95062716Y-65792980D01*
X95081117Y-65799280D01*
X95099504Y-65807237D01*
X95142888Y-65814108D01*
X95145519Y-65814525D01*
X95151239Y-65815709D01*
X95196381Y-65827300D01*
X95216416Y-65827300D01*
X95235814Y-65828826D01*
X95255594Y-65831959D01*
X95255595Y-65831960D01*
X95255595Y-65831959D01*
X95255596Y-65831960D01*
X95301984Y-65827575D01*
X95307822Y-65827300D01*
X102902852Y-65827300D01*
X102969891Y-65846985D01*
X102995000Y-65868326D01*
X103000726Y-65874685D01*
X103000730Y-65874689D01*
X103153865Y-65985948D01*
X103153870Y-65985951D01*
X103326792Y-66062942D01*
X103326797Y-66062944D01*
X103511954Y-66102300D01*
X103571148Y-66102300D01*
X103638187Y-66121985D01*
X103658829Y-66138619D01*
X103757581Y-66237371D01*
X103791066Y-66298694D01*
X103793900Y-66325052D01*
X103793900Y-66717300D01*
X103774215Y-66784339D01*
X103721411Y-66830094D01*
X103669900Y-66841300D01*
X103511954Y-66841300D01*
X103479497Y-66848198D01*
X103326797Y-66880655D01*
X103326792Y-66880657D01*
X103153870Y-66957648D01*
X103153865Y-66957651D01*
X103000729Y-67068911D01*
X102874066Y-67209585D01*
X102779421Y-67373515D01*
X102779418Y-67373522D01*
X102720927Y-67553540D01*
X102720926Y-67553544D01*
X102708973Y-67667273D01*
X102703279Y-67721449D01*
X102676694Y-67786063D01*
X102667639Y-67796168D01*
X102427697Y-68036110D01*
X102366374Y-68069595D01*
X102296682Y-68064611D01*
X102258524Y-68041890D01*
X102171272Y-67965812D01*
X102152480Y-67949426D01*
X102122877Y-67935796D01*
X102021792Y-67889252D01*
X101954813Y-67869359D01*
X101954813Y-67869360D01*
X101927407Y-67865333D01*
X101812460Y-67848442D01*
X101812455Y-67848441D01*
X101812449Y-67848441D01*
X101116355Y-67846286D01*
X101116343Y-67846286D01*
X101008089Y-67857672D01*
X100956199Y-67868876D01*
X100852895Y-67903170D01*
X100852893Y-67903171D01*
X100731862Y-67980954D01*
X100731851Y-67980962D01*
X100679059Y-68026706D01*
X100584833Y-68135447D01*
X100584830Y-68135451D01*
X100525064Y-68266317D01*
X100505378Y-68333358D01*
X100505376Y-68333363D01*
X100484900Y-68475784D01*
X100484900Y-68897300D01*
X100465215Y-68964339D01*
X100412411Y-69010094D01*
X100360900Y-69021300D01*
X90819123Y-69021300D01*
X90752084Y-69001615D01*
X90706329Y-68948811D01*
X90695131Y-68895851D01*
X90702489Y-68266317D01*
X90744974Y-64631455D01*
X90744972Y-64631443D01*
X90744973Y-64631429D01*
X90744888Y-64629452D01*
X90745001Y-64628991D01*
X90745013Y-64628044D01*
X90745235Y-64628046D01*
X90761660Y-64561626D01*
X90812440Y-64513634D01*
X90868772Y-64500100D01*
X93637748Y-64500100D01*
X93704787Y-64519785D01*
G37*
%TD.AperFunction*%
%TA.AperFunction,Conductor*%
G36*
X101006196Y-61605185D02*
G01*
X101051951Y-61657989D01*
X101063151Y-61710728D01*
X101061736Y-61853652D01*
X101049032Y-63136814D01*
X101048569Y-63183528D01*
X101028222Y-63250369D01*
X100974967Y-63295599D01*
X100924575Y-63306300D01*
X95712853Y-63306300D01*
X95645814Y-63286615D01*
X95625172Y-63269981D01*
X94576003Y-62220812D01*
X94566180Y-62208550D01*
X94565959Y-62208734D01*
X94560986Y-62202723D01*
X94558406Y-62200300D01*
X94510564Y-62155373D01*
X94500119Y-62144928D01*
X94489675Y-62134483D01*
X94484186Y-62130225D01*
X94479761Y-62126447D01*
X94445782Y-62094538D01*
X94445780Y-62094536D01*
X94445777Y-62094535D01*
X94428229Y-62084888D01*
X94411963Y-62074204D01*
X94396133Y-62061925D01*
X94353368Y-62043418D01*
X94348122Y-62040848D01*
X94307293Y-62018403D01*
X94307292Y-62018402D01*
X94287893Y-62013422D01*
X94269481Y-62007118D01*
X94251098Y-61999162D01*
X94251092Y-61999160D01*
X94205074Y-61991872D01*
X94199352Y-61990687D01*
X94154221Y-61979100D01*
X94154219Y-61979100D01*
X94134184Y-61979100D01*
X94114786Y-61977573D01*
X94107362Y-61976397D01*
X94095005Y-61974440D01*
X94095004Y-61974440D01*
X94048616Y-61978825D01*
X94042778Y-61979100D01*
X90901436Y-61979100D01*
X90834397Y-61959415D01*
X90788642Y-61906611D01*
X90777444Y-61853652D01*
X90777638Y-61836990D01*
X90779042Y-61716851D01*
X90779040Y-61716839D01*
X90779041Y-61716831D01*
X90778956Y-61714857D01*
X90779069Y-61714396D01*
X90779081Y-61713440D01*
X90779305Y-61713442D01*
X90795726Y-61647030D01*
X90846503Y-61599036D01*
X90902840Y-61585500D01*
X100939157Y-61585500D01*
X101006196Y-61605185D01*
G37*
%TD.AperFunction*%
%TA.AperFunction,Conductor*%
G36*
X99373995Y-53249570D02*
G01*
X99441020Y-53269304D01*
X99486736Y-53322141D01*
X99496629Y-53391307D01*
X99496555Y-53391810D01*
X99493702Y-53410990D01*
X99493702Y-53410994D01*
X99471603Y-57963564D01*
X99469501Y-58396483D01*
X99479974Y-58501321D01*
X99479975Y-58501323D01*
X99490387Y-58551663D01*
X99490389Y-58551671D01*
X99522364Y-58652054D01*
X99522365Y-58652057D01*
X99598252Y-58774297D01*
X99643176Y-58827809D01*
X99750426Y-58923717D01*
X99880354Y-58985525D01*
X99947078Y-59006255D01*
X99947081Y-59006255D01*
X100089159Y-59028954D01*
X100966272Y-59042658D01*
X101032994Y-59063388D01*
X101077918Y-59116900D01*
X101088327Y-59167871D01*
X101078066Y-60204268D01*
X101078096Y-60204921D01*
X101078058Y-60205073D01*
X101078033Y-60207665D01*
X101077424Y-60207658D01*
X101061448Y-60272778D01*
X101010756Y-60320862D01*
X100954222Y-60334500D01*
X90920657Y-60334500D01*
X90853618Y-60314815D01*
X90807863Y-60262011D01*
X90796665Y-60209051D01*
X90810723Y-59006260D01*
X90876648Y-53366004D01*
X90897114Y-53299203D01*
X90950449Y-53254068D01*
X91000725Y-53243457D01*
X99373995Y-53249570D01*
G37*
%TD.AperFunction*%
%TD*%
M02*
