%TF.GenerationSoftware,KiCad,Pcbnew,7.0.9*%
%TF.CreationDate,2024-02-29T12:22:54+05:30*%
%TF.ProjectId,RPS2,52505332-2e6b-4696-9361-645f70636258,rev?*%
%TF.SameCoordinates,Original*%
%TF.FileFunction,Soldermask,Top*%
%TF.FilePolarity,Negative*%
%FSLAX46Y46*%
G04 Gerber Fmt 4.6, Leading zero omitted, Abs format (unit mm)*
G04 Created by KiCad (PCBNEW 7.0.9) date 2024-02-29 12:22:54*
%MOMM*%
%LPD*%
G01*
G04 APERTURE LIST*
G04 Aperture macros list*
%AMRoundRect*
0 Rectangle with rounded corners*
0 $1 Rounding radius*
0 $2 $3 $4 $5 $6 $7 $8 $9 X,Y pos of 4 corners*
0 Add a 4 corners polygon primitive as box body*
4,1,4,$2,$3,$4,$5,$6,$7,$8,$9,$2,$3,0*
0 Add four circle primitives for the rounded corners*
1,1,$1+$1,$2,$3*
1,1,$1+$1,$4,$5*
1,1,$1+$1,$6,$7*
1,1,$1+$1,$8,$9*
0 Add four rect primitives between the rounded corners*
20,1,$1+$1,$2,$3,$4,$5,0*
20,1,$1+$1,$4,$5,$6,$7,0*
20,1,$1+$1,$6,$7,$8,$9,0*
20,1,$1+$1,$8,$9,$2,$3,0*%
G04 Aperture macros list end*
%ADD10RoundRect,0.250000X0.450000X-0.350000X0.450000X0.350000X-0.450000X0.350000X-0.450000X-0.350000X0*%
%ADD11RoundRect,0.190500X-0.541500X-0.206500X0.541500X-0.206500X0.541500X0.206500X-0.541500X0.206500X0*%
%ADD12RoundRect,0.150000X0.150000X-0.512500X0.150000X0.512500X-0.150000X0.512500X-0.150000X-0.512500X0*%
%ADD13RoundRect,0.250000X-0.650000X1.000000X-0.650000X-1.000000X0.650000X-1.000000X0.650000X1.000000X0*%
%ADD14RoundRect,0.250000X0.337500X0.475000X-0.337500X0.475000X-0.337500X-0.475000X0.337500X-0.475000X0*%
%ADD15RoundRect,0.250000X-0.412500X-1.100000X0.412500X-1.100000X0.412500X1.100000X-0.412500X1.100000X0*%
%ADD16RoundRect,0.250000X-1.100000X0.412500X-1.100000X-0.412500X1.100000X-0.412500X1.100000X0.412500X0*%
%ADD17R,1.700000X1.700000*%
%ADD18RoundRect,0.250000X0.650000X1.550000X-0.650000X1.550000X-0.650000X-1.550000X0.650000X-1.550000X0*%
%ADD19O,1.800000X3.600000*%
%ADD20RoundRect,0.250000X0.350000X0.450000X-0.350000X0.450000X-0.350000X-0.450000X0.350000X-0.450000X0*%
%ADD21O,1.700000X1.700000*%
%ADD22RoundRect,0.250000X-0.350000X-0.450000X0.350000X-0.450000X0.350000X0.450000X-0.350000X0.450000X0*%
%ADD23R,2.900000X5.400000*%
%ADD24RoundRect,0.250000X-1.500000X-0.550000X1.500000X-0.550000X1.500000X0.550000X-1.500000X0.550000X0*%
%ADD25RoundRect,0.150000X-0.150000X0.512500X-0.150000X-0.512500X0.150000X-0.512500X0.150000X0.512500X0*%
%ADD26RoundRect,0.250000X0.412500X1.100000X-0.412500X1.100000X-0.412500X-1.100000X0.412500X-1.100000X0*%
%ADD27RoundRect,0.150000X0.512500X0.150000X-0.512500X0.150000X-0.512500X-0.150000X0.512500X-0.150000X0*%
%ADD28RoundRect,0.250000X-0.650000X-1.550000X0.650000X-1.550000X0.650000X1.550000X-0.650000X1.550000X0*%
%ADD29RoundRect,0.250000X-0.475000X0.337500X-0.475000X-0.337500X0.475000X-0.337500X0.475000X0.337500X0*%
%ADD30RoundRect,0.250000X-0.450000X0.350000X-0.450000X-0.350000X0.450000X-0.350000X0.450000X0.350000X0*%
%ADD31RoundRect,0.200000X-2.100000X-0.200000X2.100000X-0.200000X2.100000X0.200000X-2.100000X0.200000X0*%
%ADD32RoundRect,0.250002X-4.449998X-5.149998X4.449998X-5.149998X4.449998X5.149998X-4.449998X5.149998X0*%
%ADD33RoundRect,0.250000X-0.400000X-0.625000X0.400000X-0.625000X0.400000X0.625000X-0.400000X0.625000X0*%
%ADD34RoundRect,0.250000X-0.337500X-0.475000X0.337500X-0.475000X0.337500X0.475000X-0.337500X0.475000X0*%
%ADD35R,1.650000X2.380000*%
%ADD36RoundRect,0.062500X0.362500X0.062500X-0.362500X0.062500X-0.362500X-0.062500X0.362500X-0.062500X0*%
%ADD37R,2.380000X1.650000*%
%ADD38RoundRect,0.062500X0.062500X-0.362500X0.062500X0.362500X-0.062500X0.362500X-0.062500X-0.362500X0*%
%ADD39R,4.750000X1.700000*%
%ADD40RoundRect,0.062500X0.337500X-0.062500X0.337500X0.062500X-0.337500X0.062500X-0.337500X-0.062500X0*%
%ADD41RoundRect,0.062500X0.062500X-0.350000X0.062500X0.350000X-0.062500X0.350000X-0.062500X-0.350000X0*%
%ADD42RoundRect,0.250000X-0.325000X-0.450000X0.325000X-0.450000X0.325000X0.450000X-0.325000X0.450000X0*%
%ADD43RoundRect,0.250001X0.462499X1.074999X-0.462499X1.074999X-0.462499X-1.074999X0.462499X-1.074999X0*%
G04 APERTURE END LIST*
D10*
%TO.C,R4*%
X95123000Y-101314000D03*
X95123000Y-99314000D03*
%TD*%
D11*
%TO.C,Q2*%
X107503400Y-97068600D03*
X107503400Y-98968600D03*
X109463400Y-98018600D03*
%TD*%
D12*
%TO.C,Q5*%
X66334600Y-93314100D03*
X68234600Y-93314100D03*
X67284600Y-91039100D03*
%TD*%
D13*
%TO.C,D2*%
X101777800Y-51314600D03*
X101777800Y-55314600D03*
%TD*%
D14*
%TO.C,C17*%
X68434900Y-98069400D03*
X66359900Y-98069400D03*
%TD*%
D15*
%TO.C,C16*%
X69748400Y-72567800D03*
X72873400Y-72567800D03*
%TD*%
D16*
%TO.C,C10*%
X99813000Y-74319600D03*
X99813000Y-77444600D03*
%TD*%
D17*
%TO.C,IMON1*%
X116154200Y-76301600D03*
%TD*%
D18*
%TO.C,Vout1*%
X87960200Y-44018200D03*
D19*
X82880200Y-44018200D03*
%TD*%
D14*
%TO.C,C12*%
X73057700Y-104267000D03*
X70982700Y-104267000D03*
%TD*%
D20*
%TO.C,R25*%
X102307500Y-67132200D03*
X100307500Y-67132200D03*
%TD*%
D14*
%TO.C,C26*%
X101541300Y-44455900D03*
X99466300Y-44455900D03*
%TD*%
D17*
%TO.C,RV1*%
X127050800Y-80695800D03*
D21*
X127050800Y-78155800D03*
X127050800Y-75615800D03*
%TD*%
D14*
%TO.C,C5*%
X92629900Y-96037400D03*
X90554900Y-96037400D03*
%TD*%
D22*
%TO.C,R21*%
X70791600Y-95554800D03*
X72791600Y-95554800D03*
%TD*%
D10*
%TO.C,R7*%
X74357000Y-92151200D03*
X74357000Y-90151200D03*
%TD*%
D17*
%TO.C,TEMP1*%
X66827400Y-69672200D03*
%TD*%
D23*
%TO.C,L1*%
X114576400Y-86207600D03*
X104676400Y-86207600D03*
%TD*%
D10*
%TO.C,R20*%
X78395600Y-104073200D03*
X78395600Y-102073200D03*
%TD*%
D24*
%TO.C,C1*%
X95979000Y-110769400D03*
X101379000Y-110769400D03*
%TD*%
D25*
%TO.C,Q3*%
X76866600Y-94005400D03*
X74966600Y-94005400D03*
X75916600Y-96280400D03*
%TD*%
D26*
%TO.C,C22*%
X92252800Y-64109600D03*
X89127800Y-64109600D03*
%TD*%
D15*
%TO.C,C15*%
X99237000Y-70129400D03*
X102362000Y-70129400D03*
%TD*%
D22*
%TO.C,R22*%
X70486800Y-98044000D03*
X72486800Y-98044000D03*
%TD*%
D27*
%TO.C,Q1*%
X118367700Y-100338000D03*
X118367700Y-98438000D03*
X116092700Y-99388000D03*
%TD*%
D28*
%TO.C,Vin1*%
X78308200Y-113436400D03*
D19*
X83388200Y-113436400D03*
%TD*%
D26*
%TO.C,C23*%
X124993400Y-63957200D03*
X121868400Y-63957200D03*
%TD*%
D29*
%TO.C,C19*%
X73395800Y-56258500D03*
X73395800Y-58333500D03*
%TD*%
D20*
%TO.C,R15*%
X119120200Y-103568600D03*
X117120200Y-103568600D03*
%TD*%
D10*
%TO.C,R19*%
X89357200Y-82575400D03*
X89357200Y-80575400D03*
%TD*%
D20*
%TO.C,R12*%
X89315800Y-91490800D03*
X87315800Y-91490800D03*
%TD*%
D17*
%TO.C,RV2*%
X126847600Y-51409600D03*
D21*
X126847600Y-53949600D03*
X126847600Y-56489600D03*
%TD*%
D26*
%TO.C,C21*%
X124993400Y-71272400D03*
X121868400Y-71272400D03*
%TD*%
D30*
%TO.C,R28*%
X106514500Y-57216800D03*
X106514500Y-59216800D03*
%TD*%
D31*
%TO.C,IC2*%
X106327500Y-62661800D03*
X106327500Y-63931800D03*
X106327500Y-65201800D03*
X106327500Y-66471800D03*
X106327500Y-67741800D03*
X106327500Y-69011800D03*
X106327500Y-70281800D03*
D32*
X115477500Y-66471800D03*
%TD*%
D20*
%TO.C,DNP1*%
X96021400Y-89230200D03*
X94021400Y-89230200D03*
%TD*%
D16*
%TO.C,C11*%
X96367600Y-74307300D03*
X96367600Y-77432300D03*
%TD*%
D30*
%TO.C,R24*%
X76215200Y-56286600D03*
X76215200Y-58286600D03*
%TD*%
D17*
%TO.C,SW1*%
X83489800Y-96001600D03*
D21*
X83489800Y-98541600D03*
X83489800Y-101081600D03*
%TD*%
D33*
%TO.C,R31*%
X121880900Y-60655200D03*
X124980900Y-60655200D03*
%TD*%
D20*
%TO.C,R17*%
X119120200Y-105702200D03*
X117120200Y-105702200D03*
%TD*%
D16*
%TO.C,C13*%
X92938600Y-74307300D03*
X92938600Y-77432300D03*
%TD*%
D34*
%TO.C,C2*%
X121171100Y-92123600D03*
X123246100Y-92123600D03*
%TD*%
D20*
%TO.C,R11*%
X96005400Y-91338400D03*
X94005400Y-91338400D03*
%TD*%
D26*
%TO.C,C20*%
X92303600Y-68376800D03*
X89178600Y-68376800D03*
%TD*%
D22*
%TO.C,R23*%
X100332900Y-64668400D03*
X102332900Y-64668400D03*
%TD*%
%TO.C,R13*%
X90592400Y-93726000D03*
X92592400Y-93726000D03*
%TD*%
D33*
%TO.C,R30*%
X89102600Y-71602600D03*
X92202600Y-71602600D03*
%TD*%
D20*
%TO.C,R18*%
X93490800Y-82346800D03*
X91490800Y-82346800D03*
%TD*%
D14*
%TO.C,C6*%
X101240500Y-92125800D03*
X99165500Y-92125800D03*
%TD*%
D35*
%TO.C,U1*%
X117297200Y-95375000D03*
D36*
X115847200Y-96125000D03*
X115847200Y-95625000D03*
X115847200Y-95125000D03*
X115847200Y-94625000D03*
X118747200Y-94625000D03*
X118747200Y-95125000D03*
X118747200Y-95625000D03*
X118747200Y-96125000D03*
%TD*%
D20*
%TO.C,R27*%
X112340500Y-57200800D03*
X110340500Y-57200800D03*
%TD*%
D37*
%TO.C,U2*%
X75246000Y-100457000D03*
D38*
X74496000Y-99007000D03*
X74996000Y-99007000D03*
X75496000Y-99007000D03*
X75996000Y-99007000D03*
X75996000Y-101907000D03*
X75496000Y-101907000D03*
X74996000Y-101907000D03*
X74496000Y-101907000D03*
%TD*%
D14*
%TO.C,C7*%
X89349400Y-89077800D03*
X87274400Y-89077800D03*
%TD*%
D20*
%TO.C,R10*%
X123234000Y-94206400D03*
X121234000Y-94206400D03*
%TD*%
D22*
%TO.C,R5*%
X87519000Y-108356400D03*
X89519000Y-108356400D03*
%TD*%
D34*
%TO.C,C4*%
X99165500Y-89865200D03*
X101240500Y-89865200D03*
%TD*%
D15*
%TO.C,C3*%
X99300900Y-100177600D03*
X102425900Y-100177600D03*
%TD*%
D26*
%TO.C,C25*%
X124993400Y-67614800D03*
X121868400Y-67614800D03*
%TD*%
D31*
%TO.C,IC3*%
X73767600Y-61334600D03*
X73767600Y-62604600D03*
X73767600Y-63874600D03*
X73767600Y-65144600D03*
X73767600Y-66414600D03*
X73767600Y-67684600D03*
X73767600Y-68954600D03*
D32*
X82917600Y-65144600D03*
%TD*%
D17*
%TO.C,J1*%
X124551400Y-105966600D03*
D21*
X122011400Y-105966600D03*
X124551400Y-103426600D03*
X122011400Y-103426600D03*
X124551400Y-100886600D03*
X122011400Y-100886600D03*
%TD*%
D39*
%TO.C,IC1*%
X98483800Y-95521400D03*
D40*
X95508800Y-96271400D03*
X95508800Y-95771400D03*
X95508800Y-95271400D03*
X95508800Y-94771400D03*
D41*
X96233800Y-94058900D03*
X96733800Y-94058900D03*
X97233800Y-94058900D03*
X97733800Y-94058900D03*
X98233800Y-94058900D03*
X98733800Y-94058900D03*
X99233800Y-94058900D03*
X99733800Y-94058900D03*
X100233800Y-94058900D03*
X100733800Y-94058900D03*
D40*
X101458800Y-94771400D03*
X101458800Y-95271400D03*
X101458800Y-95771400D03*
X101458800Y-96271400D03*
D41*
X100733800Y-96983900D03*
X100233800Y-96983900D03*
X99733800Y-96983900D03*
X99233800Y-96983900D03*
X98733800Y-96983900D03*
X98233800Y-96983900D03*
X97733800Y-96983900D03*
X97233800Y-96983900D03*
X96733800Y-96983900D03*
X96233800Y-96983900D03*
%TD*%
D20*
%TO.C,R2*%
X105394000Y-96697800D03*
X103394000Y-96697800D03*
%TD*%
%TO.C,R6*%
X92567000Y-98374200D03*
X90567000Y-98374200D03*
%TD*%
%TO.C,R14*%
X87664800Y-86995000D03*
X85664800Y-86995000D03*
%TD*%
D16*
%TO.C,C14*%
X89509600Y-74332700D03*
X89509600Y-77457700D03*
%TD*%
D10*
%TO.C,R3*%
X97332800Y-101431600D03*
X97332800Y-99431600D03*
%TD*%
D30*
%TO.C,R26*%
X77494000Y-71843800D03*
X77494000Y-73843800D03*
%TD*%
D34*
%TO.C,C18*%
X100320800Y-62331600D03*
X102395800Y-62331600D03*
%TD*%
D20*
%TO.C,R9*%
X123234000Y-96238400D03*
X121234000Y-96238400D03*
%TD*%
D24*
%TO.C,C8*%
X103497400Y-75768200D03*
X108897400Y-75768200D03*
%TD*%
D17*
%TO.C,GND2*%
X123850400Y-44323000D03*
%TD*%
D22*
%TO.C,R29*%
X66437000Y-95529400D03*
X68437000Y-95529400D03*
%TD*%
D42*
%TO.C,D1*%
X87519400Y-106045000D03*
X89569400Y-106045000D03*
%TD*%
D17*
%TO.C,TEMP2*%
X66878200Y-63550800D03*
%TD*%
D28*
%TO.C,GND1*%
X113047500Y-113416900D03*
D19*
X118127500Y-113416900D03*
%TD*%
D14*
%TO.C,C9*%
X96058900Y-86969600D03*
X93983900Y-86969600D03*
%TD*%
D43*
%TO.C,L2*%
X71780500Y-101193600D03*
X68805500Y-101193600D03*
%TD*%
D25*
%TO.C,Q4*%
X90373200Y-86811700D03*
X89423200Y-84536700D03*
X91323200Y-84536700D03*
%TD*%
D30*
%TO.C,R8*%
X79335400Y-96409000D03*
X79335400Y-98409000D03*
%TD*%
D20*
%TO.C,R16*%
X95183200Y-84632800D03*
X93183200Y-84632800D03*
%TD*%
D30*
%TO.C,R33*%
X114427000Y-51984400D03*
X114427000Y-53984400D03*
%TD*%
D26*
%TO.C,C24*%
X92252800Y-59893200D03*
X89127800Y-59893200D03*
%TD*%
D22*
%TO.C,R1*%
X107305600Y-100812600D03*
X109305600Y-100812600D03*
%TD*%
D30*
%TO.C,R32*%
X80643600Y-51920800D03*
X80643600Y-53920800D03*
%TD*%
D18*
%TO.C,GND3*%
X116873300Y-44088500D03*
D19*
X111793300Y-44088500D03*
%TD*%
M02*
